<?xml version="1.0" standalone="no"?>
<!DOCTYPE svg PUBLIC "-//W3C//DTD SVG 20010904//EN"
 "http://www.w3.org/TR/2001/REC-SVG-20010904/DTD/svg10.dtd">
<svg version="1.0" xmlns="http://www.w3.org/2000/svg"
 width="1088.000000pt" height="360.000000pt" viewBox="0 0 1088.000000 360.000000"
 preserveAspectRatio="xMidYMid meet">

<g transform="translate(0.000000,360.000000) scale(0.100000,-0.100000)"
fill="#000000" stroke="none">
<path d="M215 3453 c-59 -31 -66 -42 -59 -93 6 -44 4 -50 -41 -111 -64 -86
-92 -151 -100 -234 -8 -78 4 -78 23 -1 11 44 67 123 94 134 15 6 8 -28 -12
-69 -20 -38 -34 -153 -19 -143 4 2 11 25 15 50 3 25 17 58 30 73 27 32 44 73
44 104 0 12 7 35 15 51 8 15 15 34 15 42 0 17 38 42 76 50 l31 6 67 -154 c37
-84 71 -161 77 -170 6 -12 6 -18 -2 -18 -8 0 -8 -4 1 -15 7 -8 9 -22 6 -31 -4
-12 -2 -15 9 -10 22 8 19 -20 -6 -54 -18 -24 -21 -37 -15 -77 4 -26 8 -61 9
-78 3 -38 38 -57 96 -52 49 5 75 25 65 51 -5 14 -14 17 -38 12 -22 -4 -27 -3
-16 4 8 5 27 10 43 10 22 0 27 -4 27 -23 0 -42 -34 -62 -107 -62 l-64 0 26
-22 c17 -15 40 -23 68 -24 l42 -2 -42 -6 c-54 -9 -63 -19 -38 -38 27 -20 90
-11 120 17 16 15 25 18 30 10 4 -6 -9 -25 -29 -43 -21 -18 -54 -67 -76 -112
-22 -44 -40 -73 -40 -64 0 17 54 127 70 143 19 19 10 27 -27 24 l-38 -3 -11
-80 c-8 -53 -9 -107 -3 -160 5 -44 9 -82 9 -84 0 -2 6 -1 13 2 11 4 13 -7 9
-48 -5 -61 13 -84 26 -34 10 42 32 50 32 13 0 -29 14 -151 31 -269 5 -38 16
-83 24 -99 8 -16 15 -33 15 -38 0 -13 44 -108 50 -108 3 0 14 13 23 30 10 16
22 30 28 30 14 0 11 -17 -5 -23 -8 -3 -22 -19 -30 -35 -14 -27 -14 -32 2 -53
10 -13 24 -39 31 -56 16 -39 23 -41 45 -11 16 22 16 21 1 -9 -13 -29 -13 -35
3 -72 10 -22 33 -55 51 -72 28 -26 38 -30 69 -25 20 4 43 3 49 -2 17 -11 -88
-9 -105 2 -11 7 -12 4 -3 -13 7 -11 18 -21 26 -21 8 0 12 -6 9 -13 -3 -8 4
-25 15 -38 19 -23 20 -23 21 -3 0 11 -6 26 -12 34 -7 8 -3 6 10 -4 18 -16 21
-26 16 -52 -5 -28 0 -37 38 -78 25 -25 43 -48 41 -50 -2 -2 7 -13 21 -24 15
-11 26 -24 26 -30 0 -5 34 -42 76 -81 67 -63 81 -71 118 -72 29 -2 33 -3 14
-6 -16 -2 -28 -6 -28 -9 0 -9 55 -53 66 -54 7 0 14 -6 17 -12 3 -7 22 -22 43
-33 22 -11 44 -25 49 -32 6 -7 41 -28 78 -48 l69 -37 26 23 27 24 -23 -26
c-35 -40 -8 -48 32 -10 18 17 37 31 44 31 16 0 35 38 29 60 -3 11 4 27 17 39
l21 20 4 -42 c6 -62 5 -86 -3 -147 l-8 -55 45 -16 c44 -15 46 -15 55 5 10 20
11 19 11 -6 1 -22 6 -28 24 -28 13 0 27 -4 33 -9 5 -6 27 -14 49 -20 22 -5 50
-13 62 -16 18 -6 24 -2 32 26 l11 34 -5 -32 c-5 -36 3 -44 46 -47 24 -2 29 2
29 20 0 13 5 26 10 29 6 4 10 -8 10 -29 0 -20 5 -36 10 -36 6 0 10 24 10 54 0
46 5 61 33 98 32 42 52 56 112 78 20 7 31 17 31 30 0 16 -7 20 -31 19 -25 0
-27 -2 -10 -9 17 -7 12 -12 -37 -33 -55 -26 -101 -71 -111 -112 -4 -18 -5 -18
-6 -1 -1 16 -3 16 -21 -5 l-21 -24 20 40 c10 22 29 50 40 62 19 21 13 42 -8
28 -6 -3 -8 6 -5 20 3 19 -1 27 -17 34 -32 11 -9 21 34 14 44 -7 47 -17 10
-37 -27 -14 -26 -14 34 -12 34 1 64 4 67 6 2 3 -2 14 -10 24 -8 11 -14 14 -14
8 0 -7 -7 -12 -15 -12 -8 0 -14 5 -12 12 1 7 -16 18 -38 26 -41 13 -95 57 -95
76 0 6 10 -1 23 -16 35 -43 101 -66 167 -59 103 12 104 35 3 46 -38 3 -92 17
-121 30 -29 13 -59 22 -66 19 -8 -3 -17 -1 -21 5 -3 6 -13 11 -21 11 -11 0
-14 -6 -9 -22 5 -17 2 -15 -13 8 -14 22 -35 35 -76 48 -31 10 -68 19 -81 20
-12 0 -21 4 -19 7 7 12 -29 20 -40 9 -5 -5 -14 -10 -20 -10 -5 0 -2 6 9 13 29
22 1 30 -40 13 -20 -9 -57 -29 -82 -46 -25 -17 -47 -29 -50 -27 -4 5 72 55
121 80 l30 15 -35 18 c-19 10 -43 24 -54 31 -11 7 -30 17 -41 22 -12 5 -24 15
-25 20 -2 6 -24 15 -49 20 -25 5 -34 9 -21 10 19 1 21 4 12 15 -7 8 -26 18
-42 21 -23 5 -28 11 -24 24 3 10 -1 24 -10 31 -22 18 -18 30 10 30 13 0 28 6
32 13 4 8 28 19 53 25 41 10 43 10 25 -5 -18 -14 -15 -14 45 -8 65 7 154 41
145 55 -2 4 7 12 20 18 29 13 33 32 8 33 -11 0 -6 6 14 15 43 18 49 34 57 139
7 84 6 91 -14 108 -21 18 -22 18 -37 0 -8 -10 -11 -11 -7 -3 10 19 7 66 -8
110 -7 19 -11 44 -10 55 2 26 -15 47 -53 64 -17 7 -24 16 -18 18 15 5 -1 43
-18 43 -26 0 -98 61 -104 89 -3 16 -17 37 -30 45 -34 23 -38 20 -20 -15 9 -17
15 -35 13 -41 -2 -6 -12 9 -21 33 -12 29 -32 55 -61 77 -24 18 -55 43 -69 56
-51 48 -67 54 -121 51 -28 -1 -40 -1 -26 2 44 8 43 20 -3 52 -25 17 -49 31
-53 31 -3 0 -29 16 -56 36 -28 19 -52 33 -55 30 -3 -3 -16 8 -30 25 -33 39
-47 28 -21 -17 13 -21 27 -34 37 -32 10 2 27 -13 46 -42 17 -25 46 -53 65 -62
24 -12 29 -17 16 -18 -11 0 -39 20 -63 45 -23 25 -47 45 -52 45 -22 0 -59 23
-55 34 6 15 -38 98 -54 104 -7 2 -12 -4 -12 -13 0 -9 -4 -14 -9 -11 -5 3 -21
-19 -36 -50 -19 -38 -39 -63 -68 -81 -42 -27 -112 -48 -101 -32 3 5 12 9 21 9
24 0 80 30 107 57 36 36 67 122 52 146 -6 11 -49 48 -95 83 -70 54 -91 64
-125 65 -23 0 -34 3 -26 6 8 2 21 7 29 9 9 3 -1 16 -29 37 -24 17 -60 49 -81
70 -20 20 -45 37 -53 37 -9 0 -15 3 -14 8 2 6 -80 92 -88 92 -2 0 -4 -7 -4
-17 0 -32 -14 -2 -21 45 -3 26 -45 132 -93 236 -47 104 -86 195 -86 202 0 8
-4 14 -8 14 -12 0 -39 61 -47 104 -8 40 -22 44 -70 19z m389 -702 c-2 -3 -12
3 -22 13 -16 17 -16 18 5 5 12 -7 20 -15 17 -18z m-89 -49 c-3 -3 -11 0 -18 7
-9 10 -8 11 6 5 10 -3 15 -9 12 -12z m188 -93 c-8 -8 -16 -8 -30 0 -16 9 -14
10 12 11 21 0 26 -3 18 -11z m-56 -5 c-3 -3 -12 -4 -19 -1 -8 3 -5 6 6 6 11 1
17 -2 13 -5z m103 -18 c0 -2 -9 -6 -20 -9 -11 -3 -18 -1 -14 4 5 9 34 13 34 5z
m143 -86 c5 -4 -15 -5 -42 -2 -37 3 -58 0 -77 -13 -14 -9 -28 -14 -31 -12 -6
6 31 27 66 37 27 8 70 3 84 -10z m83 -95 c6 -36 -12 -82 -43 -106 -17 -13 -17
-13 0 7 28 34 36 76 22 118 -11 31 -11 35 1 25 7 -6 16 -26 20 -44z m-331 -41
c-25 -36 -45 -70 -45 -76 0 -6 -3 -9 -6 -6 -8 8 29 79 61 117 43 50 38 36 -10
-35z m172 60 c-3 -3 -12 -4 -19 -1 -8 3 -5 6 6 6 11 1 17 -2 13 -5z m66 -12
c11 -12 13 -22 7 -32 -8 -12 -10 -10 -10 8 0 14 -8 26 -22 32 -15 6 -17 9 -7
9 9 1 23 -7 32 -17z m-93 -10 c0 -4 12 -20 26 -35 22 -24 28 -26 42 -16 13 10
12 8 -1 -7 -18 -19 -19 -19 -41 9 -12 15 -27 27 -34 27 -7 0 -10 5 -7 10 3 6
1 10 -4 10 -12 0 -14 -9 -11 -60 1 -19 9 -43 18 -53 15 -17 15 -17 -3 -11 -13
5 -16 4 -11 -4 4 -7 5 -12 1 -12 -9 0 -45 64 -45 81 0 22 38 69 56 69 8 0 14
-3 14 -8z m284 -48 c3 -8 2 -12 -4 -9 -6 3 -10 10 -10 16 0 14 7 11 14 -7z
m-169 -74 c-3 -5 -14 -10 -23 -9 -14 0 -13 2 3 9 27 11 27 11 20 0z m-324 -37
c-12 -20 -14 -14 -5 12 4 9 9 14 11 11 3 -2 0 -13 -6 -23z m272 20 c-7 -2 -21
-2 -30 0 -10 3 -4 5 12 5 17 0 24 -2 18 -5z m-43 -23 c13 -8 12 -10 -2 -10
-19 0 -25 -25 -9 -34 5 -3 12 -17 15 -32 5 -20 1 -30 -20 -47 -38 -31 -66 -46
-84 -46 -8 -1 3 8 25 18 22 10 48 27 58 38 17 20 17 22 0 57 -17 36 -18 37
-63 30 -59 -9 -68 -17 -73 -67 l-4 -42 -1 47 c-2 55 7 63 86 74 28 3 49 10 46
15 -7 12 7 11 26 -1z m324 1 c3 -4 -6 -6 -19 -3 -14 2 -25 6 -25 8 0 8 39 4
44 -5z m13 -83 c-3 -7 -5 -2 -5 12 0 14 2 19 5 13 2 -7 2 -19 0 -25z m-157
-52 c0 -3 -13 6 -30 21 -16 14 -30 32 -30 40 0 8 14 -2 30 -20 17 -19 30 -37
30 -41z m353 -3 c-7 -2 -21 -2 -30 0 -10 3 -4 5 12 5 17 0 24 -2 18 -5z m-442
-20 c13 -16 12 -17 -3 -4 -17 13 -22 21 -14 21 2 0 10 -8 17 -17z m186 11 c-3
-3 -12 -4 -19 -1 -8 3 -5 6 6 6 11 1 17 -2 13 -5z m320 -11 c10 -10 14 -15 8
-11 -6 4 -22 12 -36 17 -15 6 -18 10 -8 10 9 1 25 -7 36 -16z m-377 -9 c0 -2
-7 -4 -15 -4 -8 0 -15 4 -15 10 0 5 7 7 15 4 8 -4 15 -8 15 -10z m-223 -31
c-3 -10 -5 -4 -5 12 0 17 2 24 5 18 2 -7 2 -21 0 -30z m431 20 c-8 -10 -20
-27 -26 -38 -6 -11 -12 -15 -12 -9 0 12 38 64 47 64 3 0 -1 -8 -9 -17z m-321
-25 c-3 -8 -6 -5 -6 6 -1 11 2 17 5 13 3 -3 4 -12 1 -19z m532 -62 c-12 -44
-44 -67 -81 -59 -40 8 -35 23 5 16 46 -7 67 16 68 75 0 37 2 42 9 25 5 -13 5
-36 -1 -57z m-689 39 c0 -7 -6 -18 -13 -22 -7 -4 -18 -19 -25 -33 l-12 -25 6
25 c12 46 23 70 34 70 5 0 10 -7 10 -15z m747 -37 c-2 -13 -4 -5 -4 17 -1 22
1 32 4 23 2 -10 2 -28 0 -40z m-357 -10 c0 -30 -3 -39 -10 -28 -7 12 -13 12
-33 1 -14 -7 -31 -11 -39 -8 -7 3 -3 6 10 6 28 1 39 26 21 49 -11 13 -8 12 9
-2 23 -20 23 -20 29 2 8 34 13 26 13 -20z m208 11 c-3 -8 -7 -3 -11 10 -4 17
-3 21 5 13 5 -5 8 -16 6 -23z m-441 -1 c-3 -8 -6 -5 -6 6 -1 11 2 17 5 13 3
-3 4 -12 1 -19z m291 -23 c-3 -3 -9 2 -12 12 -6 14 -5 15 5 6 7 -7 10 -15 7
-18z m-401 -17 c-3 -8 -6 -5 -6 6 -1 11 2 17 5 13 3 -3 4 -12 1 -19z m-45
-115 c-9 -45 -10 -42 -10 42 0 79 1 85 9 48 6 -25 6 -60 1 -90z m195 97 c28
-8 28 -8 3 -10 -14 -1 -35 -3 -47 -4 -24 -3 -31 8 -13 19 6 4 7 12 3 18 -4 8
-1 7 9 -1 9 -7 29 -17 45 -22z m337 4 c3 -8 2 -12 -4 -9 -6 3 -10 10 -10 16 0
14 7 11 14 -7z m-271 -1 c-7 -2 -19 -2 -25 0 -7 3 -2 5 12 5 14 0 19 -2 13 -5z
m147 -28 c14 -19 14 -19 -2 -6 -10 7 -18 18 -18 24 0 6 1 8 3 6 1 -2 9 -13 17
-24z m305 15 c-3 -5 -12 -10 -18 -10 -7 0 -6 4 3 10 19 12 23 12 15 0z m90 -9
c3 -5 1 -12 -5 -16 -6 -4 -8 -10 -5 -15 3 -5 1 -11 -5 -15 -6 -4 -10 6 -10 24
0 30 13 41 25 22z m210 -38 c11 -7 16 -13 12 -13 -10 0 -87 51 -87 57 0 5 27
-11 75 -44z m-377 10 c-10 -2 -26 -2 -35 0 -10 3 -2 5 17 5 19 0 27 -2 18 -5z
m-438 -16 c-42 -23 -70 -42 -70 -48 0 -4 10 -9 23 -13 15 -4 27 0 39 14 9 11
22 20 30 20 9 -1 8 -5 -4 -14 -10 -7 -18 -19 -18 -26 0 -8 -9 -11 -29 -7 -19
4 -33 1 -41 -8 -7 -8 -19 -15 -27 -15 -11 0 -11 4 -2 23 17 32 81 86 104 87
17 0 17 -2 -5 -13z m103 6 c-13 -2 -33 -2 -45 0 -13 2 -3 4 22 4 25 0 35 -2
23 -4z m-358 -43 c-4 -12 -9 -19 -12 -17 -3 3 -2 15 2 27 4 12 9 19 12 17 3
-3 2 -15 -2 -27z m423 -22 c19 2 33 -3 42 -15 12 -15 12 -16 0 -5 -18 15 -52
16 -68 0 -8 -8 -14 -5 -22 16 -9 26 -14 28 -48 22 l-37 -5 35 13 c32 13 36 12
52 -8 12 -14 26 -20 46 -18z m64 12 c18 -16 27 -30 21 -30 -7 0 -13 5 -13 10
0 6 -15 19 -32 30 -18 11 -27 20 -21 20 7 0 27 -13 45 -30z m423 14 c12 -5 14
-9 4 -14 -9 -6 -3 -17 22 -40 36 -35 20 -31 -19 4 -46 41 -49 66 -7 50z m-795
-35 c0 -5 -4 -9 -10 -9 -5 0 -10 7 -10 16 0 8 5 12 10 9 6 -3 10 -10 10 -16z
m855 11 c13 -6 15 -9 5 -9 -8 0 -22 4 -30 9 -18 12 -2 12 25 0z m171 -21 c3
-6 -5 -3 -20 6 -14 10 -26 19 -26 22 0 7 39 -17 46 -28z m-271 -99 c5 -9 4
-11 -3 -6 -13 8 -32 72 -31 101 1 11 7 -3 14 -31 7 -28 16 -57 20 -64z m152
104 c-3 -3 -12 -4 -19 -1 -8 3 -5 6 6 6 11 1 17 -2 13 -5z m-367 -30 c0 -2 -9
0 -20 6 -11 6 -20 13 -20 16 0 2 9 0 20 -6 11 -6 20 -13 20 -16z m407 20 c-3
-3 -12 -4 -19 -1 -8 3 -5 6 6 6 11 1 17 -2 13 -5z m-541 -39 c9 -19 32 -48 50
-65 19 -16 30 -30 25 -30 -14 0 -101 100 -101 116 0 23 8 16 26 -21z m199 25
c3 -6 -1 -7 -9 -4 -18 7 -21 14 -7 14 6 0 13 -4 16 -10z m380 0 c3 -6 -1 -7
-9 -4 -18 7 -21 14 -7 14 6 0 13 -4 16 -10z m-638 -12 c-2 -7 3 -22 11 -33 14
-17 13 -17 -7 1 -13 12 -20 27 -17 33 10 15 19 14 13 -1z m-302 -38 c7 0 18 7
25 15 7 9 15 13 17 11 3 -2 -5 -14 -17 -26 -17 -17 -24 -19 -36 -9 -23 19 -17
-20 11 -68 13 -24 20 -43 16 -43 -4 0 -17 21 -30 46 -16 35 -20 55 -15 78 5
21 9 25 12 14 2 -10 9 -18 17 -18z m758 5 c-15 -11 -16 -15 -3 -31 14 -17 14
-18 -2 -5 -10 7 -18 24 -18 36 0 18 4 22 20 18 19 -5 19 -6 3 -18z m130 8 c-7
-2 -21 -2 -30 0 -10 3 -4 5 12 5 17 0 24 -2 18 -5z m112 -33 c20 -39 19 -67
-2 -74 -10 -3 -49 -1 -88 3 l-70 9 60 0 c33 0 66 1 73 1 20 2 14 18 -9 24 -13
4 -18 10 -14 17 4 7 1 16 -6 21 -11 7 -11 9 -1 9 7 0 15 -7 18 -15 4 -8 12
-15 20 -15 17 0 17 5 4 31 -6 10 -8 19 -6 19 3 0 12 -13 21 -30z m-384 -33
l22 -32 -32 33 c-31 33 -40 49 -21 37 5 -3 19 -20 31 -38z m274 33 c13 -6 15
-9 5 -9 -8 0 -22 4 -30 9 -18 12 -2 12 25 0z m-549 -27 c-10 -10 -19 5 -10 18
6 11 8 11 12 0 2 -7 1 -15 -2 -18z m-284 -18 c2 -13 11 -20 25 -20 12 0 25 -3
29 -7 4 -5 -9 -8 -28 -8 -33 0 -36 2 -40 35 -4 36 7 36 14 0z m234 -6 c-14
-11 -26 -29 -26 -40 0 -12 -7 -19 -17 -18 -11 0 -13 3 -5 6 6 2 12 11 12 19 0
17 35 54 51 54 7 0 0 -9 -15 -21z m454 -4 c13 -14 21 -25 18 -25 -2 0 -15 11
-28 25 -13 14 -21 25 -18 25 2 0 15 -11 28 -25z m79 -1 c14 -12 -19 -1 -35 12
-18 14 -18 14 6 3 14 -6 27 -13 29 -15z m-864 -20 c18 -43 19 -54 4 -54 -5 0
-7 4 -4 10 3 5 -1 23 -10 39 -16 31 -18 41 -10 41 3 0 12 -16 20 -36z m623 24
c7 -7 12 -16 12 -20 0 -11 -23 -6 -32 7 -18 24 -1 34 20 13z m96 -4 c3 -8 2
-12 -4 -9 -6 3 -10 10 -10 16 0 14 7 11 14 -7z m-278 -10 c20 -14 29 -15 51
-5 19 9 29 9 37 1 8 -8 6 -9 -6 -5 -14 6 -18 2 -18 -17 0 -28 33 -51 62 -43
16 6 19 3 16 -12 -2 -12 -11 -17 -26 -15 -15 2 -22 -2 -22 -13 0 -9 -5 -13
-10 -10 -8 5 -7 11 0 20 14 16 5 35 -16 35 -8 0 -14 9 -14 20 0 14 -7 20 -24
20 -13 0 -29 7 -36 15 -7 8 -16 12 -21 9 -5 -3 -9 0 -9 5 0 15 6 14 36 -5z
m-46 -12 c0 -1 -11 -7 -24 -12 -18 -7 -26 -19 -31 -52 -5 -24 -10 -37 -13 -30
-2 8 1 33 8 57 10 36 16 43 36 41 13 0 24 -2 24 -4z m-163 -8 c-3 -3 -12 -4
-19 -1 -8 3 -5 6 6 6 11 1 17 -2 13 -5z m334 -16 c11 -21 11 -22 -4 -9 -10 7
-17 17 -17 22 0 15 9 10 21 -13z m-371 -9 c0 -14 -16 -11 -29 5 -10 12 -8 13
8 9 12 -3 21 -9 21 -14z m434 -14 c5 -22 4 -26 -4 -15 -5 8 -10 24 -10 34 0
26 6 18 14 -19z m104 -7 c1 -51 -6 -78 -19 -78 -13 0 -11 61 4 93 6 15 13 27
13 27 1 0 2 -19 2 -42z m-625 -8 c25 0 129 -28 109 -29 -7 -1 -33 4 -57 10
-36 9 -47 8 -69 -6 -14 -10 -26 -23 -26 -29 0 -15 -40 -49 -48 -41 -4 4 1 11
11 16 9 6 17 16 17 24 0 8 9 19 20 25 24 13 26 30 5 30 -16 0 -20 12 -8 24 4
3 11 0 15 -9 5 -8 19 -15 31 -15z m989 -3 c4 -6 7 -28 6 -47 l-1 -35 -4 38
c-4 39 -33 55 -33 18 0 -11 -9 -23 -20 -26 -11 -3 -20 -11 -20 -16 0 -17 -43
-69 -57 -69 -9 0 -5 13 13 41 14 22 23 47 20 55 -4 10 2 14 19 14 15 0 25 6
25 15 0 12 -12 14 -75 8 -52 -4 -75 -3 -75 5 0 23 187 23 202 -1z m-415 -39
c-3 -7 -5 -2 -5 12 0 14 2 19 5 13 2 -7 2 -19 0 -25z m190 26 c-3 -3 -12 -4
-19 -1 -8 3 -5 6 6 6 11 1 17 -2 13 -5z m-200 -50 c8 4 13 -3 13 -19 0 -52
-27 -23 -43 45 -6 22 -5 22 5 -3 7 -16 18 -25 25 -23z m-378 25 c17 -6 31 -15
31 -21 0 -6 -6 -8 -14 -5 -7 3 -19 0 -26 -6 -10 -9 -12 -8 -7 5 4 12 -2 20
-21 27 -15 5 -20 10 -11 10 9 1 30 -4 48 -10z m511 7 c0 -2 -8 -10 -17 -17
-16 -13 -17 -12 -4 4 13 16 21 21 21 13z m85 -6 c-3 -5 -18 -10 -33 -9 -24 0
-25 1 -7 9 28 12 47 12 40 0z m43 -2 c-6 -18 -28 -21 -28 -4 0 9 7 16 16 16 9
0 14 -5 12 -12z m-363 -25 c-9 -37 -11 -38 -30 -20 -21 21 -19 30 5 22 14 -5
20 -2 20 9 0 9 3 16 6 16 3 0 3 -12 -1 -27z m243 -15 c-8 -13 -20 -38 -26 -56
-16 -46 9 -54 51 -16 l32 29 -29 -32 c-20 -23 -39 -33 -58 -33 -15 0 -28 2
-28 4 0 10 42 101 52 113 17 21 21 15 6 -9z m243 -9 c-5 -13 -10 -19 -10 -12
-1 15 10 45 15 40 3 -2 0 -15 -5 -28z m-731 -21 c0 -5 -7 -8 -15 -8 -17 0 -18
2 -9 25 5 13 8 14 15 3 5 -7 9 -16 9 -20z m190 28 c0 -2 -7 -7 -16 -10 -8 -3
-12 -2 -9 4 6 10 25 14 25 6z m-236 -68 c-3 -4 -16 -8 -29 -8 -13 0 -30 -9
-38 -20 -11 -16 -21 -19 -42 -14 -18 4 -30 2 -36 -7 -6 -10 -11 -11 -19 -3
-14 14 32 28 60 19 13 -4 22 1 30 15 6 12 21 20 35 20 21 0 25 5 26 33 l1 32
8 -29 c5 -16 7 -33 4 -38z m101 42 c3 -5 2 -10 -4 -10 -5 0 -13 5 -16 10 -3 6
-2 10 4 10 5 0 13 -4 16 -10z m-327 -31 c-3 -8 -7 -3 -11 10 -4 17 -3 21 5 13
5 -5 8 -16 6 -23z m422 21 c0 -5 -12 -10 -27 -9 -25 0 -26 1 -8 9 27 12 35 12
35 0z m434 -22 c-6 -29 -5 -31 10 -19 9 7 16 11 16 7 0 -7 -61 -46 -73 -46 -5
0 3 14 17 31 14 17 26 37 26 45 0 8 3 14 6 14 3 0 2 -15 -2 -32z m-381 2 c-7
-28 -13 -30 -53 -20 l-35 8 31 1 c17 1 37 8 44 16 17 20 19 19 13 -5z m198 -3
c-10 -9 -11 -8 -5 6 3 10 9 15 12 12 3 -3 0 -11 -7 -18z m-331 -6 c0 -5 10
-12 23 -15 12 -2 -4 -2 -35 0 -56 5 -58 4 -101 -35 -24 -23 -50 -41 -58 -40
-11 0 -11 2 1 6 8 3 31 21 52 40 20 19 51 39 70 43 46 11 48 11 48 1z m582
-23 c-6 -6 -15 -8 -19 -4 -4 4 -1 11 7 16 19 12 27 3 12 -12z m-401 -11 c-1
-4 -1 -14 -1 -22 0 -8 -7 -15 -16 -15 -11 0 -14 5 -10 16 3 9 6 20 6 26 0 5 5
8 11 6 6 -2 10 -7 10 -11z m163 -36 c-7 -9 -24 13 -24 32 0 21 1 21 13 -3 8
-14 12 -27 11 -29z m246 19 c-8 -5 -19 -10 -25 -10 -5 0 -3 5 5 10 8 5 20 10
25 10 6 0 3 -5 -5 -10z m-53 -16 c-3 -3 -12 -4 -19 -1 -8 3 -5 6 6 6 11 1 17
-2 13 -5z m-267 -19 c-7 -8 -16 -12 -21 -9 -13 8 -1 24 18 24 13 0 13 -3 3
-15z m208 8 c-10 -2 -26 -2 -35 0 -10 3 -2 5 17 5 19 0 27 -2 18 -5z m-394
-44 c-3 -5 -10 -7 -15 -3 -5 3 -7 10 -3 15 3 5 10 7 15 3 5 -3 7 -10 3 -15z
m63 -1 c-3 -8 -6 -5 -6 6 -1 11 2 17 5 13 3 -3 4 -12 1 -19z m-194 5 c-7 -2
-21 -2 -30 0 -10 3 -4 5 12 5 17 0 24 -2 18 -5z m279 -20 c-3 -16 -7 -22 -10
-15 -4 13 4 42 11 42 2 0 2 -12 -1 -27z m308 11 c-25 -7 -49 -13 -55 -13 -18
1 59 27 80 28 11 0 0 -7 -25 -15z m-635 -4 c3 -5 -3 -10 -14 -10 -11 0 -23 5
-26 10 -3 6 3 10 14 10 11 0 23 -4 26 -10z m109 -1 c23 -11 54 -64 44 -75 -3
-2 -19 11 -36 31 -17 19 -36 35 -42 35 -5 0 -10 5 -10 10 0 13 13 13 44 -1z
m126 -54 c-7 -8 -17 -15 -23 -15 -6 0 -2 7 9 15 25 19 30 19 14 0z m110 -52
c0 -18 -4 -33 -9 -33 -11 0 -32 81 -24 93 10 17 33 -25 33 -60z m-275 7 c-3
-5 -14 -10 -23 -9 -14 0 -13 2 3 9 27 11 27 11 20 0z m50 0 c3 -5 1 -10 -4
-10 -6 0 -11 5 -11 10 0 6 2 10 4 10 3 0 8 -4 11 -10z m115 6 c0 -2 -18 -6
-40 -8 -22 -2 -40 0 -40 4 0 5 18 8 40 8 22 0 40 -2 40 -4z m10 -52 c0 -14 -3
-14 -15 -4 -8 7 -15 14 -15 16 0 2 7 4 15 4 8 0 15 -7 15 -16z m-103 0 c-3 -3
-12 -4 -19 -1 -8 3 -5 6 6 6 11 1 17 -2 13 -5z m296 -51 c-7 -2 -19 -2 -25 0
-7 3 -2 5 12 5 14 0 19 -2 13 -5z m-173 -29 c0 -8 -5 -12 -10 -9 -6 4 -8 11
-5 16 9 14 15 11 15 -7z m100 12 c0 -2 -7 -7 -16 -10 -8 -3 -12 -2 -9 4 6 10
25 14 25 6z m-285 -16 c-3 -5 -11 -10 -16 -10 -6 0 -7 5 -4 10 3 6 11 10 16
10 6 0 7 -4 4 -10z m85 0 c0 -5 -4 -10 -10 -10 -5 0 -10 5 -10 10 0 6 5 10 10
10 6 0 10 -4 10 -10z m82 -39 c-4 -11 -7 -10 -13 5 -12 29 -10 36 5 22 7 -7
11 -19 8 -27z m-98 -16 c3 -9 0 -15 -9 -15 -9 0 -12 6 -9 15 4 8 7 15 9 15 2
0 5 -7 9 -15z m455 12 c-2 -1 -13 -9 -24 -17 -19 -14 -19 -14 -6 3 7 9 18 17
24 17 6 0 8 -1 6 -3z m-379 -16 c0 -5 -6 -14 -14 -20 -12 -10 -13 -8 -9 8 5
21 23 30 23 12z m283 -23 c-11 -13 -19 -28 -17 -33 5 -13 -34 -38 -46 -30 -5
3 0 15 12 27 16 16 18 23 8 26 -9 3 -5 9 11 18 39 22 56 18 32 -8z m-357 -16
c-21 -2 -42 0 -47 5 -4 4 13 6 39 3 l47 -5 -39 -3z m179 -2 c3 -5 -4 -6 -15
-3 -11 3 -22 9 -25 13 -3 5 4 6 15 3 11 -3 22 -9 25 -13z m65 10 c-8 -5 -22
-9 -30 -9 -10 0 -8 3 5 9 27 12 43 12 25 0z m310 -34 c0 -2 -7 -7 -16 -10 -8
-3 -12 -2 -9 4 6 10 25 14 25 6z m90 -19 c0 -2 -10 -12 -22 -23 l-23 -19 19
23 c18 21 26 27 26 19z m-155 -17 c-3 -5 -12 -10 -18 -10 -7 0 -6 4 3 10 19
12 23 12 15 0z m-196 -3 c-2 -1 -13 -9 -24 -17 -19 -14 -19 -14 -6 3 7 9 18
17 24 17 6 0 8 -1 6 -3z m96 -17 c-3 -5 -16 -15 -28 -21 -19 -9 -19 -8 3 10
28 23 34 26 25 11z m-183 -50 c-23 -16 -45 -30 -49 -30 -10 0 70 59 81 60 5 0
-10 -13 -32 -30z m123 10 c-7 -11 -119 -70 -132 -70 -6 0 124 76 135 79 2 1 0
-4 -3 -9z m249 -15 c-9 -14 -18 -25 -21 -25 -5 0 5 18 20 38 17 22 18 13 1
-13z m-234 -20 c-7 -8 -17 -15 -23 -15 -6 0 -2 7 9 15 25 19 30 19 14 0z m489
-51 c2 -2 -27 -4 -65 -3 -44 0 -62 3 -49 8 18 7 104 3 114 -5z m-155 -25 c-12
-13 -18 -34 -18 -60 1 -23 -3 -36 -8 -33 -22 14 14 114 40 114 3 0 -3 -9 -14
-21z m-44 -19 c0 -5 -5 -10 -11 -10 -5 0 -7 5 -4 10 3 6 8 10 11 10 2 0 4 -4
4 -10z m127 4 c-3 -3 -12 -4 -19 -1 -8 3 -5 6 6 6 11 1 17 -2 13 -5z m121 -19
c12 -10 -41 -9 -73 0 l-40 13 55 -6 c30 -2 56 -6 58 -7z m-108 -27 c0 -8 -14
-13 -31 -14 -32 -1 -32 -1 -8 12 30 17 39 17 39 2z m68 -17 c-7 -11 -15 -18
-20 -15 -11 7 3 34 18 34 12 0 12 -4 2 -19z m-48 -18 c0 -10 -42 -53 -51 -53
-10 0 0 30 15 47 12 13 36 17 36 6z m-73 -29 c-3 -3 -12 -4 -19 -1 -8 3 -5 6
6 6 11 1 17 -2 13 -5z m113 -5 c0 8 2 12 5 10 2 -3 2 -15 -2 -28 -4 -17 -8
-19 -14 -9 -7 11 -11 10 -19 -2 -14 -22 -12 -3 2 20 9 14 14 16 20 7 6 -9 8
-8 8 2z m-120 -39 c-8 -5 -19 -10 -25 -10 -5 0 -3 5 5 10 8 5 20 10 25 10 6 0
3 -5 -5 -10z m166 -58 c-12 -11 -18 7 -10 30 l8 23 4 -23 c2 -13 1 -26 -2 -30z"/>
<path d="M5459 3421 c-114 -37 -179 -107 -179 -195 0 -58 17 -99 64 -155 59
-70 70 -97 55 -133 -13 -32 -74 -67 -115 -68 -11 0 -23 -3 -27 -6 -8 -8 56
-136 76 -152 35 -30 187 49 235 121 23 35 27 51 27 117 l0 76 -62 84 c-35 46
-63 94 -63 106 0 44 45 71 109 65 12 -1 21 2 20 6 -2 4 -17 41 -34 80 -16 40
-34 73 -40 72 -5 0 -35 -8 -66 -18z"/>
<path d="M3264 3082 c-1 -235 2 -339 10 -344 13 -9 131 -10 161 -2 19 5 20 14
20 345 l1 339 -96 0 -95 0 -1 -338z"/>
<path d="M3860 3413 l-35 -4 0 -337 0 -337 95 0 95 0 -4 118 -3 117 38 0 c22
0 44 -4 51 -8 6 -4 30 -54 52 -112 23 -57 47 -107 53 -112 18 -11 176 -10 183
1 3 5 -20 64 -50 130 -30 66 -55 124 -55 129 0 4 16 24 36 43 48 45 64 85 64
159 0 75 -16 116 -63 157 -57 50 -118 63 -281 61 -78 -1 -157 -3 -176 -5z
m283 -145 c35 -18 46 -40 47 -90 0 -39 -4 -50 -27 -68 -22 -17 -38 -20 -92
-18 l-66 3 -3 70 c-5 110 -2 115 64 115 30 0 65 -5 77 -12z"/>
<path d="M4724 3082 c-1 -235 2 -339 10 -344 13 -9 131 -10 161 -2 19 5 20 14
20 345 l1 339 -96 0 -95 0 -1 -338z"/>
<path d="M5954 3075 l0 -346 95 3 95 3 0 135 1 135 128 3 127 3 0 -141 0 -140
98 0 97 0 0 345 0 345 -98 0 -98 0 3 -122 3 -123 -134 -3 -134 -3 5 126 6 125
-97 0 -97 0 0 -345z"/>
<path d="M9498 3312 c-125 -34 -233 -134 -275 -255 -23 -68 -23 -186 1 -304
14 -69 23 -94 36 -98 10 -3 30 -17 45 -31 l28 -25 36 34 c62 59 95 72 201 74
52 1 113 7 135 14 160 48 346 -126 362 -341 9 -111 -54 -252 -144 -326 -63
-51 -233 -164 -247 -164 -25 0 -38 27 -31 62 5 21 35 61 90 118 166 172 217
298 165 401 -19 37 -70 79 -97 79 -8 0 -9 -10 -1 -37 16 -60 6 -161 -24 -226
-31 -67 -119 -164 -166 -184 -30 -12 -37 -12 -58 2 -35 22 -55 58 -75 133 -23
81 -25 199 -4 249 20 47 19 50 -6 27 -40 -36 -56 -85 -62 -189 -7 -122 -21
-167 -50 -163 -31 4 -56 55 -71 144 -8 44 -20 93 -26 109 -15 40 -49 75 -72
75 -17 0 -17 -2 -3 -30 28 -55 45 -153 45 -270 0 -136 -9 -176 -51 -216 -25
-24 -39 -29 -78 -29 -65 0 -117 36 -156 106 -28 51 -30 61 -30 164 0 61 3 125
7 144 11 49 -14 25 -42 -42 -18 -40 -23 -71 -23 -134 0 -73 4 -90 32 -147 37
-75 94 -130 191 -184 114 -62 121 -69 118 -110 -5 -56 -39 -68 -150 -54 -152
19 -260 87 -307 192 -122 278 56 740 282 729 32 -2 52 3 76 20 17 13 52 26 77
29 l46 7 -83 54 c-151 100 -259 128 -378 97 -131 -34 -218 -104 -272 -221 -54
-115 -47 -271 16 -367 31 -46 31 -46 1 -77 -14 -15 -36 -48 -49 -76 -133 -266
60 -575 358 -575 79 0 146 20 266 80 102 52 291 174 323 209 34 37 37 22 7
-31 -66 -117 -204 -475 -213 -551 -3 -26 2 -30 44 -47 l46 -17 46 139 c76 229
201 506 216 477 4 -8 13 -39 20 -69 23 -98 81 -252 132 -353 64 -125 129 -196
216 -239 63 -31 72 -33 177 -33 102 0 114 2 169 30 132 67 213 188 223 334 l6
78 54 23 c71 29 152 105 191 177 128 242 -7 525 -278 582 -30 7 -100 15 -154
18 l-99 6 39 31 c73 58 164 149 193 195 128 200 48 473 -167 574 -81 38 -208
49 -278 24 l-42 -14 -36 48 c-93 125 -264 182 -418 141z"/>
<path d="M6475 2677 c-167 -76 -279 -493 -279 -1032 1 -261 9 -308 55 -313 20
-2 32 4 48 26 34 48 41 109 35 284 -15 378 45 724 137 791 21 15 29 16 52 6
72 -33 94 -211 51 -426 -20 -98 -38 -137 -78 -168 -42 -32 -56 -82 -56 -199
l0 -85 73 26 c86 30 250 63 313 63 25 0 54 5 65 10 45 25 48 48 60 454 11 373
11 385 -8 418 -10 18 -32 37 -47 43 -24 8 -31 6 -46 -12 -22 -27 -27 -95 -36
-433 -4 -170 -10 -257 -18 -262 -10 -7 -116 -12 -116 -5 0 1 7 34 15 72 25
119 37 321 25 418 -30 244 -130 376 -245 324z"/>
<path d="M7240 2530 c-67 -35 -115 -160 -90 -234 12 -39 58 -82 72 -68 4 4 18
28 31 52 27 54 67 85 99 77 36 -9 87 -65 100 -111 17 -59 14 -210 -5 -278 -12
-38 -31 -71 -59 -102 -57 -60 -81 -65 -138 -27 -52 36 -75 39 -90 12 -16 -30
-12 -102 8 -140 32 -65 148 -101 226 -71 43 16 107 82 137 142 83 164 82 426
-2 590 -31 61 -98 128 -154 154 -60 28 -88 29 -135 4z"/>
<path d="M8288 2479 c-25 -14 -94 -118 -130 -195 -26 -55 -32 -62 -48 -54 -33
18 -111 12 -145 -11 -97 -67 -155 -258 -155 -516 0 -105 1 -113 26 -142 15
-18 35 -31 49 -31 44 0 50 22 56 209 7 186 20 249 62 312 13 19 33 35 46 37
21 3 23 1 17 -20 -4 -12 -15 -48 -24 -78 -11 -37 -16 -93 -17 -175 0 -112 2
-124 28 -178 18 -36 39 -63 57 -72 89 -46 200 23 252 155 17 44 22 77 22 160
1 99 -1 109 -32 172 -18 36 -46 78 -63 92 -37 32 -37 33 46 172 36 59 65 113
65 120 0 18 -49 54 -74 54 -11 0 -29 -5 -38 -11z m-57 -491 c50 -96 32 -279
-28 -294 -44 -11 -56 17 -49 117 5 74 39 219 51 219 3 0 14 -19 26 -42z"/>
<path d="M9615 2438 c-24 -43 -29 -66 -29 -122 -1 -47 3 -70 12 -73 14 -5 57
83 67 140 8 40 -1 107 -14 107 -4 0 -21 -24 -36 -52z"/>
<path d="M9054 2305 c-11 -29 2 -130 21 -170 50 -102 71 18 22 128 -27 60 -34
67 -43 42z"/>
<path d="M586 2085 c-8 -33 28 -175 41 -162 7 7 -19 187 -27 187 -4 0 -11 -11
-14 -25z"/>
<path d="M2293 2064 c-32 -16 -37 -26 -33 -72 3 -35 -25 -69 -85 -103 -60 -34
-85 -62 -85 -95 0 -12 30 -66 66 -120 l66 -99 -10 -45 c-11 -46 -30 -156 -57
-335 -8 -55 -22 -146 -32 -203 -9 -56 -14 -103 -12 -105 2 -2 75 -17 163 -35
87 -17 161 -34 164 -36 5 -5 -44 -213 -144 -616 -24 -96 -44 -180 -44 -187 0
-18 139 -17 162 1 10 7 23 44 33 92 43 215 60 268 84 258 22 -9 62 -12 247
-20 186 -7 185 -7 159 80 -16 56 -72 135 -60 86 16 -71 18 -83 8 -77 -6 4 -13
25 -17 47 -7 46 -46 114 -76 132 -11 7 -20 17 -20 21 0 5 16 -5 35 -22 20 -17
40 -31 46 -31 17 0 61 -38 49 -42 -6 -2 0 -19 13 -38 29 -43 47 -93 47 -131 0
-24 4 -29 24 -29 27 0 36 16 36 68 0 30 -8 44 -52 86 -29 27 -43 44 -31 37 12
-6 25 -16 28 -21 10 -16 25 -11 25 8 0 11 -10 24 -22 30 -18 8 -11 9 33 5 31
-3 59 -2 62 3 3 5 8 26 12 48 7 37 7 38 -16 31 -19 -5 -17 -2 9 14 36 23 36
24 22 52 -12 21 -72 27 -100 9 -9 -6 -17 -5 -21 1 -9 15 -171 17 -176 3 -7
-19 91 -38 128 -25 39 13 42 14 35 2 -13 -20 -86 -23 -141 -6 -47 15 -53 20
-43 33 11 13 6 14 -42 10 -30 -3 -67 -2 -84 3 -28 8 -45 5 -34 -6 3 -3 58 -23
122 -45 158 -54 235 -53 321 2 l30 20 -30 -26 c-16 -14 -33 -26 -37 -26 -4 0
-5 -6 -2 -14 4 -10 -8 -16 -48 -20 -29 -4 -65 -9 -80 -12 -18 -4 -32 1 -47 17
-12 13 -35 23 -58 25 -55 5 -173 47 -173 62 0 6 -5 12 -11 12 -6 0 -9 14 -7
33 3 31 4 32 47 29 l43 -4 -8 109 c-12 152 -10 247 8 323 9 36 23 101 32 145
9 44 21 94 25 110 5 17 12 47 15 67 6 32 14 41 60 68 84 48 88 98 5 61 -58
-27 -81 -26 -108 3 l-23 25 15 92 c9 51 14 96 11 101 -3 4 -23 -2 -44 -13 -22
-12 -57 -23 -78 -26 -32 -4 -44 0 -81 31 -24 20 -54 36 -67 36 -23 0 -24 3
-19 38 4 20 9 45 11 54 6 22 -38 68 -65 68 -11 0 -25 2 -33 5 -7 2 -28 -3 -45
-11z m189 -279 c14 -32 -5 -58 -36 -49 -30 9 -30 10 -16 44 15 36 36 39 52 5z
m195 -22 c-7 -39 -29 -69 -45 -59 -9 6 3 55 21 84 17 25 30 12 24 -25z m53
-173 c8 -5 12 -10 10 -12 -53 -34 -70 -35 -70 -3 0 19 5 25 23 25 12 0 29 -4
37 -10z m0 -74 c0 -1 -4 -16 -9 -32 -5 -16 -22 -69 -36 -119 -15 -49 -31 -94
-35 -98 -16 -17 -21 74 -9 148 8 54 17 78 28 82 9 2 23 8 31 13 16 9 30 12 30
6z m-280 -101 c0 -14 -4 -25 -10 -25 -5 0 -10 11 -10 25 0 14 5 25 10 25 6 0
10 -11 10 -25z m179 -779 c8 -9 9 -16 2 -20 -6 -4 -8 -21 -5 -39 3 -25 2 -28
-5 -12 -9 18 -10 17 -10 -9 -1 -33 -9 -31 -16 4 -11 56 -27 37 -28 -32 0 -38
-2 -46 -7 -28 -9 30 -4 62 17 113 17 39 33 46 52 23z m311 -72 c0 -2 -9 0 -20
6 -11 6 -20 13 -20 16 0 2 9 0 20 -6 11 -6 20 -13 20 -16z m-205 6 c3 -6 -1
-7 -9 -4 -18 7 -21 14 -7 14 6 0 13 -4 16 -10z m71 -59 c22 -31 12 -25 -27 16
-22 24 -26 31 -11 20 13 -8 30 -25 38 -36z m-145 12 c13 -16 12 -17 -3 -4 -10
7 -18 15 -18 17 0 8 8 3 21 -13z m35 -77 c31 -18 71 -73 61 -82 -3 -3 -8 4
-12 15 -4 12 -31 39 -60 61 -30 22 -60 50 -66 63 -9 16 -5 14 17 -9 16 -16 43
-38 60 -48z m24 38 c0 -2 -9 0 -20 6 -11 6 -20 13 -20 16 0 2 9 0 20 -6 11 -6
20 -13 20 -16z m40 -29 c13 -14 21 -25 18 -25 -2 0 -15 11 -28 25 -13 14 -21
25 -18 25 2 0 15 -11 28 -25z m65 -62 c-6 -45 -29 -56 -31 -16 -1 11 -5 27 -9
34 -5 8 1 5 13 -5 l22 -19 1 49 c1 27 4 38 6 25 3 -13 2 -44 -2 -68z m-230 51
c9 -15 12 -23 6 -20 -11 7 -35 46 -28 46 3 0 12 -12 22 -26z m-55 -23 c0 -5 7
-17 16 -26 9 -9 14 -18 11 -21 -3 -3 -15 9 -27 25 -12 17 -17 31 -11 31 6 0
11 -4 11 -9z m346 -27 c-3 -9 -6 -22 -6 -30 0 -8 -4 -14 -8 -14 -5 0 -7 14 -4
30 2 17 9 30 14 30 6 0 7 -7 4 -16z m-221 -14 c3 -5 2 -10 -4 -10 -5 0 -13 5
-16 10 -3 6 -2 10 4 10 5 0 13 -4 16 -10z"/>
<path d="M1700 1973 c0 -6 7 -19 16 -28 9 -9 19 -13 22 -10 3 3 -4 15 -16 28
-12 12 -22 16 -22 10z"/>
<path d="M1932 1650 c0 -14 2 -19 5 -12 2 6 2 18 0 25 -3 6 -5 1 -5 -13z"/>
<path d="M8243 1443 c-7 -3 -13 -13 -13 -23 0 -11 -13 -25 -32 -34 -41 -21
-46 -20 -50 7 -4 29 -39 29 -53 0 -7 -12 -24 -32 -39 -44 -35 -28 -77 -17 -86
21 -9 37 -36 37 -55 1 -8 -17 -22 -31 -30 -31 -8 0 -15 -4 -15 -10 0 -5 -9
-10 -19 -10 -12 0 -23 11 -30 31 -12 35 -43 37 -50 4 -6 -36 -51 -49 -51 -15
0 33 -46 27 -58 -9 -6 -18 -21 -32 -40 -39 -28 -10 -31 -8 -34 11 -5 33 -45
35 -57 4 -16 -42 -77 -53 -83 -14 -4 26 -48 39 -48 13 0 -18 -49 -58 -64 -53
-6 2 -10 11 -8 20 1 9 -6 21 -17 26 -16 9 -23 6 -41 -19 -26 -36 -57 -40 -62
-8 -4 33 -35 35 -49 4 -10 -21 -53 -46 -80 -46 -5 0 -9 11 -9 24 0 24 -24 41
-42 30 -5 -3 -13 -17 -18 -30 -18 -46 -90 -58 -90 -15 0 20 -21 33 -36 23 -5
-4 -15 -19 -23 -34 -23 -46 -85 -49 -79 -4 2 17 -2 21 -22 21 -17 0 -26 -6
-28 -20 -2 -11 -14 -28 -27 -38 -30 -22 -62 -9 -67 25 -5 36 -37 35 -49 -1
-18 -51 -89 -56 -89 -7 0 32 -34 53 -56 35 -8 -6 -14 -19 -14 -29 0 -9 -9 -25
-20 -35 -27 -24 -70 -13 -70 18 0 56 -51 63 -77 10 -19 -40 -38 -49 -79 -39
-19 5 -24 13 -24 36 0 19 -7 33 -20 40 -27 15 -60 -4 -60 -34 0 -29 -39 -51
-75 -42 -19 5 -26 13 -25 29 3 38 1 46 -20 57 -27 15 -60 -4 -60 -34 0 -33
-31 -56 -73 -56 -36 0 -37 1 -37 35 0 36 -20 55 -59 55 -14 0 -22 -8 -26 -27
-9 -42 -19 -56 -54 -77 -30 -17 -33 -17 -66 -2 -29 14 -35 22 -35 49 0 40 -15
57 -50 57 -32 0 -50 -17 -50 -46 0 -27 -57 -77 -77 -69 -8 3 -26 8 -39 11 -21
6 -23 10 -18 44 5 32 3 40 -14 49 -28 15 -67 14 -80 -1 -6 -7 -12 -26 -14 -42
-4 -41 -46 -70 -88 -61 -31 7 -32 9 -27 46 4 32 1 42 -16 54 -26 18 -68 20
-85 3 -7 -7 -12 -24 -12 -39 0 -41 -49 -79 -92 -70 -31 7 -33 9 -30 45 5 47
-19 76 -62 76 -45 0 -58 -13 -62 -56 -3 -48 -33 -74 -81 -74 l-36 0 5 44 c3
24 2 49 -1 54 -7 12 -55 32 -77 32 -25 0 -54 -39 -54 -72 -1 -50 -39 -74 -99
-62 -41 8 -46 12 -43 34 2 14 4 34 5 45 1 13 -10 26 -35 40 -35 18 -40 19 -65
5 -21 -12 -29 -25 -31 -50 -4 -35 -23 -64 -53 -81 -16 -8 -135 21 -126 31 2 3
7 21 10 41 7 50 -19 79 -73 79 -47 0 -70 -21 -70 -63 0 -20 -9 -41 -27 -59
-31 -32 -40 -34 -80 -14 -15 8 -36 17 -45 20 -19 6 -24 41 -9 65 23 36 -43 78
-103 67 -36 -7 -46 -21 -46 -62 0 -39 -17 -62 -62 -85 -38 -19 -43 -20 -72 -6
-17 9 -39 18 -48 21 -14 4 -16 13 -11 56 5 42 3 53 -13 65 -27 20 -77 27 -108
15 -21 -8 -26 -16 -26 -45 0 -43 -23 -81 -61 -101 -40 -20 -65 -18 -86 9 -22
29 -54 47 -82 47 -24 0 -25 2 -10 54 20 74 -10 106 -102 106 -46 0 -69 -27
-69 -83 0 -42 -13 -58 -80 -102 -45 -28 -90 -73 -90 -88 0 -14 32 -70 82 -145
45 -67 49 -77 43 -113 -4 -21 -5 -39 -3 -40 39 -6 268 -9 268 -4 0 4 -18 27
-40 51 -35 38 -40 50 -40 89 l0 46 54 -6 c35 -5 56 -3 60 4 13 21 43 11 55
-18 11 -25 5 -55 -40 -232 -28 -112 -55 -222 -60 -244 -5 -22 -13 -56 -19 -75
-5 -19 -24 -91 -40 -160 -17 -69 -33 -133 -36 -142 -4 -14 1 -18 24 -18 16 0
34 6 39 13 6 6 19 64 31 127 17 90 26 118 42 129 17 11 20 24 20 77 0 35 3 64
6 64 3 0 15 -11 26 -25 27 -35 90 -52 126 -35 l27 14 -41 6 c-31 4 -50 15 -70
39 -15 18 -37 37 -48 41 -19 8 -19 9 -2 9 10 1 35 -17 55 -39 38 -42 77 -53
88 -24 8 21 -16 35 -38 23 -24 -12 -29 -11 -29 6 0 19 43 37 67 28 10 -3 26
-15 35 -27 19 -22 18 -23 22 27 1 6 -5 13 -11 13 -34 4 -36 7 -8 13 17 4 29
13 27 20 -1 7 2 19 8 26 9 10 6 16 -9 25 -12 6 -21 20 -21 30 0 27 -14 25 -30
-4 -16 -30 -8 -54 22 -66 15 -5 17 -9 7 -9 -22 -1 -49 31 -49 57 0 18 54 72
73 72 3 0 4 -16 1 -35 -3 -27 -1 -35 12 -35 11 0 15 6 11 20 -3 10 2 25 10 31
12 11 11 14 -9 25 -33 19 -62 17 -91 -6 -38 -30 -46 -83 -18 -123 l22 -32 -26
29 c-23 25 -26 36 -22 68 3 21 3 38 0 38 -3 0 -25 -21 -50 -48 -34 -36 -39
-39 -23 -14 12 18 37 45 55 59 19 15 31 31 29 35 -7 11 -52 10 -75 -2 -17 -10
-19 -7 -19 22 0 42 22 148 31 148 4 0 12 -7 20 -16 10 -12 10 -22 2 -45 -6
-16 -8 -31 -5 -33 4 -2 40 -4 81 -5 92 -1 144 -10 138 -25 -3 -6 -14 -51 -26
-101 -12 -49 -28 -117 -36 -150 -8 -33 -21 -91 -30 -130 -9 -38 -25 -107 -36
-153 -24 -98 -21 -114 18 -103 26 7 28 12 48 119 11 61 26 117 32 123 7 7 31
12 55 10 23 -1 63 4 90 10 42 11 48 16 48 38 0 14 4 33 10 41 6 11 1 22 -23
42 -18 15 -39 27 -47 28 -11 0 -12 2 -1 12 10 11 14 10 22 -5 11 -19 68 -51
77 -43 3 3 -12 22 -32 42 -37 36 -39 37 -104 32 -58 -4 -62 -3 -29 6 45 12 48
26 5 26 -18 0 -28 4 -23 8 14 12 117 53 122 48 2 -2 -15 -11 -37 -20 -50 -20
-45 -34 13 -34 43 0 104 -18 94 -28 -3 -3 -14 -1 -25 5 -12 6 -29 11 -39 11
-14 0 -9 -9 20 -36 41 -38 62 -40 61 -5 0 12 6 21 13 21 9 0 12 -7 9 -17 -8
-27 -37 -153 -46 -198 -5 -22 -15 -67 -24 -100 -20 -77 -20 -75 9 -75 31 0 39
17 55 113 18 106 21 109 109 110 39 0 74 4 77 9 3 5 14 6 25 3 11 -4 19 -2 19
4 0 6 -8 11 -17 11 -10 0 -25 4 -32 9 -12 8 -9 11 13 17 21 5 32 1 47 -15 24
-26 39 -27 39 -2 0 26 -48 44 -120 45 -33 1 -60 4 -60 7 0 3 -10 11 -23 18
-19 9 -19 10 -2 7 11 -3 60 -7 108 -11 70 -6 87 -10 83 -21 -3 -8 -2 -14 3
-14 14 0 20 38 11 68 -7 24 -8 24 -9 5 -1 -13 -5 -23 -10 -23 -13 0 -23 18
-12 22 4 1 11 14 15 28 6 19 5 21 -3 10 -9 -13 -12 -12 -25 5 -8 11 -12 22 -9
25 3 3 8 -1 10 -8 4 -9 8 -10 18 -2 10 8 15 6 20 -9 3 -12 10 -21 15 -21 7 0
24 50 18 54 -2 1 -19 13 -38 27 -19 14 -48 33 -64 43 -27 17 -29 17 -23 1 5
-11 3 -15 -5 -13 -15 5 -17 30 -3 35 6 2 37 -15 70 -36 44 -29 63 -37 72 -29
23 19 14 37 -30 63 -45 26 -95 33 -113 15 -5 -5 -26 -7 -47 -3 -30 4 -37 10
-37 28 0 13 7 25 15 29 13 4 13 9 3 25 -15 25 10 125 32 128 8 2 28 -16 44
-39 25 -36 27 -46 18 -70 -5 -15 -7 -29 -4 -32 3 -3 43 -6 88 -6 46 0 85 -4
88 -8 3 -5 -3 -42 -14 -84 -49 -198 -112 -470 -109 -473 2 -2 15 -1 30 2 23 4
27 12 45 101 18 93 20 97 47 100 15 2 25 8 22 13 -4 5 5 5 20 -1 41 -15 42
-14 40 46 -3 63 -10 77 -19 39 -6 -22 -38 -45 -65 -45 -5 0 -2 26 5 57 7 31
11 60 8 64 -3 5 8 11 23 15 15 3 36 8 46 11 19 5 21 -5 7 -41 -6 -17 -6 -26 0
-26 6 0 10 7 10 15 0 27 89 105 119 105 34 0 44 9 30 26 -9 10 -7 15 5 20 9 3
16 12 16 20 0 10 -21 12 -97 9 -54 -2 -106 -6 -115 -10 -21 -8 -21 -9 -7 92
17 122 36 141 77 77 17 -26 22 -45 18 -65 -6 -32 0 -35 84 -38 30 -1 58 -6 63
-10 4 -4 3 -20 -2 -37 -5 -16 -14 -48 -20 -71 -7 -24 -18 -43 -25 -43 -16 0
-85 -86 -92 -116 -3 -12 -4 -36 -2 -55 2 -26 8 -34 22 -34 16 0 24 15 42 88
22 89 42 132 31 67 -10 -54 -64 -283 -72 -301 -8 -21 5 -30 33 -23 17 5 23 18
32 74 6 38 17 76 23 84 9 12 39 20 106 26 52 6 97 12 99 15 3 3 6 19 7 37 1
18 8 52 15 76 16 50 7 64 -20 34 -12 -12 -24 -22 -27 -22 -4 0 6 14 22 30 26
27 65 41 65 23 0 -5 -18 -80 -40 -167 -22 -88 -38 -162 -35 -164 2 -2 15 -2
28 2 21 5 26 15 37 73 7 38 16 73 20 78 5 6 10 21 13 35 4 24 4 24 6 -3 1 -28
2 -28 49 -21 57 8 59 10 65 54 l4 35 1 -37 c4 -84 32 -22 32 71 0 30 7 55 20
71 11 14 20 38 20 53 0 16 5 37 10 48 9 16 7 19 -8 19 -16 0 -23 -13 -36 -65
-9 -35 -16 -80 -16 -99 0 -19 -5 -38 -11 -42 -14 -8 -5 65 17 140 8 27 14 53
14 58 0 11 -57 10 -64 -1 -3 -4 -16 -6 -30 -4 -21 4 -23 9 -21 49 5 67 15 104
29 104 18 0 35 -42 29 -73 -5 -27 -5 -27 55 -27 34 0 63 -4 66 -9 5 -8 -59
-291 -90 -395 -19 -64 -18 -76 6 -76 24 0 37 24 46 81 11 71 19 80 63 73 34
-5 40 -3 59 23 14 19 18 34 12 43 -6 10 -3 22 11 36 l20 22 -57 7 c-31 4 -52
10 -48 15 5 5 31 3 59 -4 27 -7 61 -10 75 -6 30 8 34 36 5 32 -16 -2 -15 0 6
14 28 18 52 75 42 100 -3 8 0 14 7 14 6 0 8 5 5 10 -4 6 -12 7 -18 3 -7 -4
-22 -6 -34 -4 -13 1 -23 -3 -23 -10 0 -8 -4 -8 -16 2 -14 11 -18 11 -29 -4
-10 -15 -14 -15 -18 -3 -4 9 -14 12 -26 9 -24 -6 -29 15 -6 23 12 5 13 10 4
20 -18 22 -2 101 21 107 25 7 54 -36 46 -69 -4 -16 -2 -25 6 -26 23 -3 52 -5
86 -7 39 -1 40 -14 13 -116 -11 -38 -33 -124 -51 -190 -17 -66 -34 -128 -36
-138 -5 -15 -1 -18 22 -15 26 3 29 8 39 58 6 30 18 65 25 77 12 18 16 19 24 7
10 -12 17 -13 56 -1 25 7 51 12 59 9 8 -3 11 0 7 6 -3 5 0 12 8 15 13 5 31 55
23 64 -3 2 -22 -3 -42 -11 -21 -9 -39 -16 -40 -16 -8 0 -12 41 -4 46 20 12 7
24 -28 25 -22 1 -30 3 -18 6 11 3 23 10 26 15 4 6 35 15 70 22 45 8 64 16 64
26 0 12 -15 15 -72 15 -39 0 -75 3 -79 8 -4 4 3 7 15 7 17 0 22 4 17 16 -6 15
0 16 51 9 32 -4 68 -7 80 -7 19 0 22 -4 17 -27 -7 -29 -72 -286 -80 -313 -4
-14 1 -18 18 -18 21 0 26 8 38 57 14 54 17 58 51 66 31 7 35 12 31 32 -2 13 1
31 8 42 10 16 10 14 5 -9 -3 -16 -1 -28 5 -28 5 0 10 6 10 14 0 8 4 17 9 20 5
4 7 -3 4 -14 -3 -11 -9 -23 -14 -26 -14 -8 -10 -24 6 -24 8 0 22 17 32 37 22
48 33 56 55 37 9 -9 22 -13 27 -9 18 10 12 44 -9 55 -29 15 -25 28 7 22 21 -4
25 -2 20 12 -4 9 -2 16 2 16 11 0 31 56 23 64 -3 4 -17 -4 -31 -16 -14 -13
-11 -6 8 14 56 61 21 74 -144 55 -18 -2 -20 3 -17 56 3 64 15 97 36 97 20 0
46 -44 40 -67 -5 -17 1 -21 33 -26 21 -4 57 -7 81 -7 23 0 42 -2 42 -4 0 -4
-98 -379 -106 -409 -5 -15 -1 -18 17 -15 22 3 29 17 43 79 5 23 13 28 51 33
25 4 45 10 45 14 0 4 -16 18 -35 31 -32 22 -45 41 -27 41 4 0 25 -7 47 -15 56
-20 68 -19 62 5 -3 11 -2 20 1 20 8 0 32 73 27 79 -3 2 -17 -4 -32 -14 -18
-11 -13 -3 15 22 40 38 55 73 30 73 -7 0 -25 -12 -40 -27 -15 -15 -28 -21 -28
-15 0 7 5 12 10 12 6 0 15 12 20 26 9 21 15 25 35 20 18 -5 25 -2 25 9 0 17
-2 17 -82 15 -43 -1 -58 2 -57 12 1 26 24 127 31 133 11 12 47 -51 41 -73 -5
-20 -2 -22 42 -22 l47 0 -4 -32 c-3 -18 -26 -113 -52 -212 -26 -98 -45 -181
-42 -183 2 -3 13 -2 24 1 13 4 22 19 27 42 15 82 29 92 120 85 17 -2 27 1 22
5 -4 4 0 16 9 26 11 11 17 37 18 73 1 36 5 55 13 55 7 0 10 6 7 14 -3 8 0 17
6 21 8 5 7 14 -4 31 -14 20 -14 23 -1 18 10 -4 15 0 15 15 0 21 -10 27 -24 14
-7 -7 -97 -5 -105 3 -2 2 1 10 8 17 6 8 9 22 5 31 -18 46 36 100 60 60 6 -11
11 -28 11 -39 0 -16 8 -21 43 -23 23 -2 42 -5 42 -7 0 -3 -12 -48 -26 -102
-49 -187 -62 -238 -68 -275 -7 -36 -6 -37 16 -29 16 6 25 19 29 45 3 20 8 38
11 41 2 3 27 8 54 11 27 4 55 11 62 17 18 14 43 77 36 89 -3 5 0 16 7 24 9 11
9 18 1 26 -9 9 -5 20 13 44 13 17 21 34 18 38 -4 3 -27 6 -51 6 -59 0 -50 7
16 13 33 3 52 1 52 -6 0 -9 -59 -241 -76 -300 -5 -15 -1 -18 18 -15 18 2 25
12 32 45 9 46 27 56 101 57 33 1 40 5 41 21 0 11 4 28 8 37 10 22 -2 42 -17
30 -7 -4 -25 -14 -42 -20 -28 -11 -28 -11 -11 3 11 8 26 15 33 15 17 0 17 20
1 21 -7 0 2 5 21 12 40 14 58 44 20 33 -13 -4 -42 -9 -64 -11 -37 -4 -38 -4
-8 4 17 4 39 16 48 25 9 9 25 16 36 16 10 0 19 7 19 15 0 12 -14 15 -62 17
l-63 2 55 3 c63 5 77 13 61 40 -6 10 -11 12 -11 6 0 -9 -17 -13 -50 -13 l-51
0 7 50 c6 43 4 49 -9 45 -19 -8 -28 6 -17 25 7 12 12 12 21 3 10 -10 15 -9 26
5 12 16 14 15 32 -7 10 -13 16 -32 14 -42 -5 -17 1 -19 41 -19 41 0 46 -2 46
-23 0 -13 -6 -46 -14 -73 -20 -66 -76 -281 -76 -288 0 -3 9 -6 20 -6 13 0 21
9 25 27 10 48 21 58 67 63 25 3 53 12 62 19 19 16 21 4 7 -46 -5 -17 -7 -34
-4 -37 12 -11 32 8 39 37 9 46 22 57 64 57 47 0 97 35 79 56 -6 8 -26 15 -43
16 -24 1 -21 2 14 7 30 4 44 10 42 20 -1 7 2 19 8 26 6 8 10 19 9 27 -1 7 4
27 11 43 25 60 19 7 -13 -123 -32 -123 -33 -132 -15 -132 11 0 18 7 18 19 0
33 12 52 37 62 22 8 23 11 12 26 -13 15 -12 15 8 5 22 -12 83 -17 83 -6 0 3
-10 15 -22 26 -21 18 -20 18 9 -1 43 -29 69 -27 82 7 10 25 11 24 6 -13 -3
-22 -8 -52 -11 -67 -9 -48 28 -31 40 17 10 41 24 55 55 55 35 0 53 13 45 33
-3 9 -2 17 4 17 15 0 26 60 14 72 -6 6 -12 6 -16 -1 -4 -6 -19 -11 -34 -10
l-27 1 25 7 c14 4 24 13 23 19 -2 7 3 12 11 12 18 0 26 13 36 56 8 35 0 44
-44 44 -13 0 -25 3 -28 6 -8 7 11 75 24 92 14 16 38 -3 38 -29 0 -14 7 -19 28
-19 16 0 31 -2 34 -5 2 -3 -15 -78 -39 -168 -48 -182 -51 -200 -26 -195 11 2
20 18 26 44 7 39 11 43 53 53 38 10 44 15 39 31 -4 12 -2 20 4 20 21 0 11 19
-16 32 -15 7 -29 21 -31 32 -4 18 43 76 61 76 5 0 -6 -12 -23 -26 -37 -31 -38
-67 -2 -72 18 -3 26 4 38 33 8 21 13 44 9 53 -3 8 2 23 11 33 23 26 10 38 -36
32 -39 -6 -40 -5 -40 26 0 21 -5 31 -15 31 -8 0 -15 7 -15 16 0 11 6 14 20 9
12 -4 20 -2 20 5 0 22 34 5 40 -20 4 -18 14 -26 33 -28 15 -2 27 -6 27 -10 0
-7 -2 -14 -49 -197 -17 -66 -31 -128 -31 -138 0 -34 23 -12 37 35 8 28 20 49
32 53 10 3 29 17 42 32 l24 26 -35 -6 c-19 -3 -30 -3 -23 -1 7 3 9 13 6 22 -4
15 -3 15 6 2 8 -12 14 -12 28 -4 10 6 17 15 17 20 -1 5 5 18 12 29 21 30 17
64 -8 75 l-23 9 23 0 c13 1 22 7 22 17 0 11 -8 15 -27 12 -25 -3 -27 0 -29 35
-2 27 1 37 12 37 8 0 14 -9 14 -19 0 -15 8 -21 33 -23 40 -4 40 -1 -9 -190
-21 -81 -35 -150 -32 -154 13 -12 28 8 39 52 9 36 16 45 38 50 46 9 56 20 57
59 1 20 7 41 14 45 23 14 -1 32 -34 26 -22 -4 -27 -3 -16 4 8 5 24 10 35 10
18 1 17 2 -5 15 l-25 13 35 4 c49 4 48 32 -2 36 -34 3 -38 6 -38 32 0 16 3 35
6 44 9 23 34 20 34 -4 0 -14 7 -20 23 -20 30 0 51 -15 42 -29 -6 -11 -18 -55
-61 -226 -8 -33 -17 -68 -20 -77 -4 -12 0 -18 11 -18 16 0 32 31 38 77 3 22
14 33 49 50 38 18 47 28 52 56 4 19 4 41 1 49 -4 9 1 18 9 21 9 4 16 15 16 26
0 16 -8 21 -42 24 l-43 4 48 1 c34 1 47 6 44 15 -2 7 -18 11 -40 9 -34 -3 -37
-1 -37 22 0 16 -6 26 -15 26 -8 0 -15 6 -15 13 0 14 69 21 71 6 1 -5 2 -15 3
-21 0 -7 10 -14 21 -16 11 -2 23 -7 28 -11 4 -4 -5 -52 -19 -107 -15 -54 -30
-115 -34 -134 -4 -19 -11 -48 -15 -63 -7 -25 -5 -28 11 -25 10 2 20 12 22 23
13 78 22 92 62 105 22 7 39 18 37 24 -3 6 1 18 8 26 13 15 19 34 16 55 0 6
-18 10 -38 8 -30 -2 -34 -1 -18 6 11 5 30 10 43 10 38 1 24 21 -15 22 l-38 1
44 11 c59 16 66 37 13 37 -45 0 -56 15 -38 51 15 31 46 38 46 10 0 -13 8 -21
23 -23 29 -4 28 -20 -16 -193 -20 -76 -34 -141 -32 -143 14 -15 34 14 42 59 7
46 11 53 38 61 58 18 61 21 30 28 l-30 8 27 1 c34 1 59 38 31 47 -10 3 -27 10
-38 15 -15 7 -11 8 18 5 28 -4 37 -1 37 10 0 8 -6 14 -12 15 -7 0 -3 4 10 9
15 6 22 18 22 35 0 22 -4 25 -38 25 -38 0 -38 0 -34 35 5 38 21 47 29 15 4
-14 14 -20 34 -20 36 0 41 -9 28 -51 -39 -134 -69 -273 -61 -281 14 -14 27 14
42 85 11 53 13 57 40 57 38 0 48 18 15 26 -14 3 -24 8 -21 11 2 2 23 -1 45 -8
38 -11 43 -11 61 9 31 33 24 49 -35 88 -45 30 -55 42 -55 65 0 67 37 103 50
48 5 -19 13 -25 43 -27 35 -3 49 9 27 23 -17 11 -11 35 9 35 11 0 23 5 26 10
3 6 19 10 35 10 22 0 30 -6 39 -30 7 -23 16 -30 35 -30 15 0 26 -6 26 -12 0
-7 -18 -78 -39 -158 -22 -80 -38 -147 -36 -149 15 -15 33 17 44 80 15 81 44
119 92 119 44 0 81 21 76 42 -3 11 0 18 9 18 8 0 14 9 14 19 0 11 3 27 6 35 6
14 0 16 -37 10 -55 -8 -57 -11 -33 -30 17 -14 16 -14 -11 0 -16 8 -38 17 -49
20 -14 5 -17 12 -11 34 10 39 25 55 41 41 7 -6 10 -17 7 -25 -4 -11 4 -14 36
-14 39 0 53 11 31 25 -18 11 -10 20 36 40 25 11 50 28 55 37 8 15 5 16 -24 11
-25 -4 -37 0 -52 17 -11 12 -19 24 -17 26 11 18 -12 35 -35 27z m67 -93 c0 -5
-7 -10 -16 -10 -8 0 -12 5 -9 10 3 6 10 10 16 10 5 0 9 -4 9 -10z m-140 -24
c0 -3 -4 -8 -10 -11 -5 -3 -10 -1 -10 4 0 6 5 11 10 11 6 0 10 -2 10 -4z
m-170 -20 c0 -11 -19 -15 -25 -6 -3 5 1 10 9 10 9 0 16 -2 16 -4z m-150 -26
c0 -5 -4 -10 -10 -10 -5 0 -10 5 -10 10 0 6 5 10 10 10 6 0 10 -4 10 -10z
m310 0 c0 -5 -4 -10 -10 -10 -5 0 -10 5 -10 10 0 6 5 10 10 10 6 0 10 -4 10
-10z m-322 -47 c-4 -22 -22 -20 -26 1 -2 10 3 16 13 16 10 0 15 -7 13 -17z
m-368 -3 c0 -5 -5 -10 -11 -10 -5 0 -7 5 -4 10 3 6 8 10 11 10 2 0 4 -4 4 -10z
m-380 -40 c0 -5 -4 -10 -10 -10 -5 0 -10 5 -10 10 0 6 5 10 10 10 6 0 10 -4
10 -10z m-150 -20 c0 -5 -4 -10 -10 -10 -5 0 -10 5 -10 10 0 6 5 10 10 10 6 0
10 -4 10 -10z m-125 -10 c3 -5 -1 -10 -10 -10 -9 0 -13 5 -10 10 3 6 8 10 10
10 2 0 7 -4 10 -10z m515 0 c0 -5 -2 -10 -4 -10 -3 0 -8 5 -11 10 -3 6 -1 10
4 10 6 0 11 -4 11 -10z m-796 -41 c-7 -11 -34 -12 -34 -1 0 14 11 21 26 15 8
-3 11 -9 8 -14z m141 11 c-3 -5 -10 -10 -16 -10 -5 0 -9 5 -9 10 0 6 7 10 16
10 8 0 12 -4 9 -10z m255 -5 c0 -8 -4 -15 -10 -15 -5 0 -10 7 -10 15 0 8 5 15
10 15 6 0 10 -7 10 -15z m-568 -10 c0 -5 -5 -11 -11 -13 -6 -2 -11 4 -11 13 0
9 5 15 11 13 6 -2 11 -8 11 -13z m488 -10 c7 -17 17 -25 34 -25 14 0 27 -4 30
-9 3 -5 -5 -47 -18 -92 -13 -46 -26 -96 -30 -111 -6 -28 -20 -36 -30 -19 -3 5
1 14 9 21 17 14 20 63 4 91 -13 25 -3 56 19 62 30 8 -61 6 -111 -2 -44 -7 -50
-6 -57 13 -8 20 -9 20 -10 -4 -1 -35 -19 -54 -66 -69 -39 -13 -44 -12 -73 10
-28 20 -30 27 -25 58 3 20 7 42 9 49 7 20 25 14 35 -12 6 -17 18 -25 45 -28
44 -5 48 -1 30 26 -21 29 -19 33 15 40 39 7 45 5 42 -19 -2 -17 3 -20 43 -21
45 -1 46 0 40 27 -5 21 -2 28 12 32 36 9 44 7 53 -18z m-662 4 c-2 -6 -8 -10
-13 -10 -5 0 -11 4 -13 10 -2 6 4 11 13 11 9 0 15 -5 13 -11z m-188 -9 c0 -5
-5 -10 -11 -10 -5 0 -7 5 -4 10 3 6 8 10 11 10 2 0 4 -4 4 -10z m1735 0 c3 -5
1 -10 -4 -10 -6 0 -11 5 -11 10 0 6 2 10 4 10 3 0 8 -4 11 -10z m-1925 -15 c0
-8 -4 -15 -10 -15 -5 0 -10 7 -10 15 0 8 5 15 10 15 6 0 10 -7 10 -15z m-2729
-11 c44 -22 37 -58 -11 -62 -53 -4 -65 9 -46 47 19 36 18 36 57 15z m2525 5
c8 -13 -13 -29 -38 -29 -11 0 -18 8 -18 20 0 15 7 20 24 20 14 0 28 -5 32 -11z
m912 -17 c2 -15 -2 -22 -12 -22 -11 0 -16 9 -16 26 0 31 23 28 28 -4z m-1160
-5 c2 -12 -3 -17 -17 -17 -15 0 -21 6 -21 21 0 25 33 22 38 -4z m992 -8 c0
-20 -15 -26 -25 -9 -9 15 3 43 15 35 5 -3 10 -15 10 -26z m58 -1 c7 -30 12
-33 50 -36 34 -3 42 -7 42 -23 0 -20 -59 -240 -66 -248 -2 -3 -10 1 -17 8 -9
9 -9 14 2 20 28 18 5 35 -45 34 l-49 -2 49 9 c62 11 79 18 72 29 -3 5 1 22 9
37 20 38 19 46 -6 78 -25 31 -54 35 -46 6 5 -19 4 -19 -22 1 -27 20 -27 23
-18 70 11 57 32 65 45 17z m1497 12 c3 -6 -1 -7 -9 -4 -18 7 -21 14 -7 14 6 0
13 -4 16 -10z m-2787 -23 c2 -10 -3 -17 -12 -17 -10 0 -16 9 -16 21 0 24 23
21 28 -4z m936 7 c3 -9 6 -24 6 -34 0 -15 9 -19 43 -22 37 -3 42 -6 42 -27 0
-22 -4 -23 -82 -27 -76 -4 -95 1 -76 20 4 4 8 25 8 47 1 39 15 58 41 59 7 0
15 -7 18 -16z m-2592 -19 c16 -35 0 -49 -36 -35 -20 7 -26 15 -22 26 3 9 6 20
6 25 0 20 41 8 52 -16z m312 9 c8 -22 8 -44 -1 -44 -20 1 -32 18 -26 38 6 26
18 29 27 6z m324 -11 c12 -24 4 -43 -16 -43 -29 0 -40 13 -31 38 10 26 35 29
47 5z m276 1 c13 -33 4 -42 -22 -26 -7 5 -10 16 -6 25 8 21 20 22 28 1z m504
5 c-2 -6 -8 -10 -13 -10 -5 0 -11 4 -13 10 -2 6 4 11 13 11 9 0 15 -5 13 -11z
m913 -12 c-13 -13 -26 -3 -16 12 3 6 11 8 17 5 6 -4 6 -10 -1 -17z m-181 -3
c0 -24 -25 -84 -35 -84 -17 0 -45 44 -45 70 0 17 6 20 40 20 22 0 40 -3 40 -6z
m1339 -15 c-6 -12 -9 -30 -6 -40 3 -13 0 -19 -10 -19 -11 0 -14 6 -9 23 3 12
6 30 6 40 0 9 7 17 15 17 13 0 14 -4 4 -21z m538 15 c-3 -3 -12 -4 -19 -1 -8
3 -5 6 6 6 11 1 17 -2 13 -5z m-2152 -46 c-9 -39 -11 -42 -24 -33 -6 3 -11 19
-11 36 0 23 4 29 21 29 18 0 20 -4 14 -32z m1432 -15 c-3 -10 -5 -2 -5 17 0
19 2 27 5 18 2 -10 2 -26 0 -35z m-1665 1 c-4 -34 -7 -38 -21 -29 -12 7 -15
48 -4 59 14 14 28 -2 25 -30z m-242 -3 c0 -32 -14 -49 -25 -31 -9 15 3 60 15
60 6 0 10 -13 10 -29z m311 13 c7 -9 12 -29 11 -45 -2 -28 -2 -28 60 -31 63
-3 63 -3 61 -32 -3 -38 -7 -40 -35 -23 -27 17 -135 9 -147 -12 -6 -9 -10 -7
-14 8 -2 11 -3 22 0 25 3 2 6 27 8 55 2 28 7 56 10 61 9 15 31 12 46 -6z
m2426 0 c-3 -3 -12 -4 -19 -1 -8 3 -5 6 6 6 11 1 17 -2 13 -5z m-3227 -24 c0
-24 -14 -70 -21 -70 -15 0 -30 39 -23 64 4 17 11 22 25 19 10 -3 19 -9 19 -13z
m-912 -14 c7 -7 -7 -89 -19 -106 -15 -24 -59 35 -59 81 0 20 3 38 6 41 5 6 62
-7 72 -16z m82 -27 c28 -43 31 -54 22 -74 -6 -13 -8 -26 -4 -29 4 -2 40 -4 81
-5 41 0 78 -4 83 -9 5 -5 2 -37 -7 -74 l-17 -66 -41 0 c-39 -1 -41 0 -23 14
11 8 25 14 32 14 7 0 17 14 23 32 l11 31 -119 -6 c-66 -4 -122 -3 -124 1 -7
11 34 222 43 222 4 0 23 -23 40 -51z m226 36 c3 -8 0 -30 -6 -50 -10 -29 -14
-34 -26 -24 -8 6 -14 29 -14 50 0 33 3 39 20 39 11 0 23 -7 26 -15z m673 -19
c12 -18 21 -47 21 -65 0 -17 3 -31 8 -32 4 0 32 -3 62 -5 82 -6 81 -4 63 -71
-17 -67 -21 -73 -33 -53 -7 12 -12 11 -29 -5 -12 -10 -24 -16 -27 -12 -3 3 4
10 15 16 23 13 72 81 66 91 -6 9 -96 0 -110 -11 -6 -4 -17 -4 -24 0 -8 5 -28
3 -47 -5 -31 -13 -34 -13 -35 3 -1 10 0 23 1 28 2 6 4 24 5 40 2 27 10 69 21
103 6 21 22 13 43 -22z m195 -3 c-8 -45 -9 -47 -23 -38 -6 3 -11 22 -11 41 0
28 4 34 20 34 19 0 20 -4 14 -37z m1911 27 c3 -6 -1 -7 -9 -4 -18 7 -21 14 -7
14 6 0 13 -4 16 -10z m-2468 -8 c9 -5 9 -18 0 -50 -13 -48 -19 -51 -41 -20
-16 23 -21 60 -9 71 8 9 35 9 50 -1z m2348 -12 c4 -6 -9 -10 -32 -9 -34 1 -35
2 -13 9 35 11 38 11 45 0z m184 -16 c14 -12 -19 -1 -35 12 -18 14 -18 14 6 3
14 -6 27 -13 29 -15z m175 11 c3 -8 1 -15 -4 -15 -6 0 -10 7 -10 15 0 8 2 15
4 15 2 0 6 -7 10 -15z m-84 -38 c0 -5 -4 -5 -10 -2 -5 3 -10 14 -10 23 0 15 2
15 10 2 5 -8 10 -19 10 -23z m-864 -13 c19 -15 19 -15 -1 -6 -11 5 -27 12 -35
15 -13 5 -13 6 1 6 8 1 24 -6 35 -15z m699 -4 c18 -19 17 -20 -3 -20 -15 0
-20 6 -19 20 1 11 2 20 3 20 0 0 9 -9 19 -20z m-900 0 c-3 -5 -14 -10 -23 -9
-14 0 -13 2 3 9 27 11 27 11 20 0z m1450 0 c-3 -5 -14 -10 -23 -9 -14 0 -13 2
3 9 27 11 27 11 20 0z m-882 -7 c-7 -2 -19 -2 -25 0 -7 3 -2 5 12 5 14 0 19
-2 13 -5z m214 1 c-3 -3 -12 -4 -19 -1 -8 3 -5 6 6 6 11 1 17 -2 13 -5z m297
-10 c3 -8 2 -12 -4 -9 -6 3 -10 10 -10 16 0 14 7 11 14 -7z m-1227 -25 c-12
-14 -24 -22 -25 -17 -2 4 -8 6 -13 2 -5 -3 -9 0 -9 6 0 7 7 9 16 6 11 -4 15
-2 11 8 -7 18 0 25 23 23 17 -1 16 -3 -3 -28z m526 24 c-7 -2 -19 -2 -25 0 -7
3 -2 5 12 5 14 0 19 -2 13 -5z m685 -29 c-10 -10 -28 6 -28 24 0 15 1 15 17
-1 9 -9 14 -19 11 -23z m252 26 c0 -5 -9 -10 -21 -10 -11 0 -17 5 -14 10 3 6
13 10 21 10 8 0 14 -4 14 -10z m-1552 -31 c23 -28 22 -41 -1 -16 -26 27 -39
47 -31 46 5 0 19 -13 32 -30z m446 12 c4 -5 -3 -7 -14 -4 -23 6 -26 13 -6 13
8 0 17 -4 20 -9z m-459 -92 c-4 -5 -16 -8 -28 -8 -19 1 -19 2 -3 6 15 4 17 12
13 41 l-5 37 14 -33 c8 -18 12 -37 9 -43z m805 64 c-8 -3 -21 -12 -27 -21 -15
-18 -28 -10 -20 13 4 9 18 15 34 14 15 0 21 -3 13 -6z m-1195 -23 c10 -11 13
-20 7 -20 -6 0 -16 9 -22 20 -6 11 -9 20 -7 20 2 0 12 -9 22 -20z m615 -4 c0
-2 -7 -7 -16 -10 -8 -3 -12 -2 -9 4 6 10 25 14 25 6z m-1160 -10 c0 -2 -8 -10
-17 -17 -16 -13 -17 -12 -4 4 13 16 21 21 21 13z m1038 -15 c3 -8 -1 -12 -9
-9 -7 2 -15 10 -17 17 -3 8 1 12 9 9 7 -2 15 -10 17 -17z m547 -11 c-16 -16
-31 -27 -34 -24 -5 4 48 53 58 54 3 0 -8 -13 -24 -30z m528 23 c-7 -2 -19 -2
-25 0 -7 3 -2 5 12 5 14 0 19 -2 13 -5z m-1592 -20 c13 -16 12 -17 -3 -4 -17
13 -22 21 -14 21 2 0 10 -8 17 -17z m473 2 c3 -8 1 -15 -4 -15 -6 0 -10 7 -10
15 0 8 2 15 4 15 2 0 6 -7 10 -15z m425 12 c-2 -1 -13 -9 -24 -17 -19 -14 -19
-14 -6 3 7 9 18 17 24 17 6 0 8 -1 6 -3z m-1656 -27 c-24 -10 -43 -22 -43 -26
0 -7 53 0 85 12 14 5 17 4 10 -4 -15 -16 -129 -37 -151 -27 -16 7 -14 9 16 19
19 6 49 19 65 28 17 10 37 17 45 17 8 0 -4 -8 -27 -19z m438 -3 c-10 -9 -11
-8 -5 6 3 10 9 15 12 12 3 -3 0 -11 -7 -18z m980 10 c-6 -8 -8 -17 -4 -20 3
-4 1 -7 -5 -7 -20 0 -23 19 -5 29 24 14 27 13 14 -2z m589 -11 c0 -2 -7 -7
-16 -10 -8 -3 -12 -2 -9 4 6 10 25 14 25 6z m-1337 -13 c-7 -2 -19 -2 -25 0
-7 3 -2 5 12 5 14 0 19 -2 13 -5z m497 -7 c0 -8 -4 -18 -10 -21 -5 -3 -10 -1
-10 4 0 20 -20 11 -30 -13 -5 -13 -15 -28 -22 -32 -10 -6 -11 -5 -1 7 7 9 9
20 3 29 -13 21 7 40 41 40 19 0 29 -5 29 -14z m-755 -46 c-8 -23 -15 -56 -15
-73 0 -21 -3 -28 -10 -21 -7 7 -4 32 10 78 12 37 23 66 26 64 2 -3 -3 -24 -11
-48z m1160 40 c-3 -5 -14 -10 -23 -9 -14 0 -13 2 3 9 27 11 27 11 20 0z m195
-5 c-7 -8 -17 -15 -23 -15 -6 0 -2 7 9 15 25 19 30 19 14 0z m-2176 -4 c3 -4
-6 -6 -19 -3 -14 2 -25 6 -25 8 0 8 39 4 44 -5z m1609 -11 c-10 -11 -19 -20
-21 -20 -1 0 2 9 8 20 6 11 15 20 20 20 6 0 2 -9 -7 -20z m-1570 -57 c26 -25
47 -51 47 -56 0 -6 -8 0 -19 11 -10 12 -21 19 -24 15 -4 -3 -16 6 -28 20 -19
25 -59 37 -59 19 0 -11 60 -56 84 -62 33 -9 28 -26 -8 -26 -19 0 -33 3 -30 7
2 4 -11 20 -31 35 -21 16 -35 35 -35 49 0 52 43 47 103 -12z m76 13 c-3 -3
-11 5 -18 17 -13 21 -12 21 5 5 10 -10 16 -20 13 -22z m196 25 c3 -5 1 -12 -5
-16 -14 -9 -52 4 -45 16 8 12 42 12 50 0z m338 -35 c-50 -46 -54 -71 -6 -41
15 9 8 -1 -17 -23 -33 -29 -42 -43 -34 -52 8 -8 19 -8 40 0 22 9 26 8 18 0 -7
-7 -27 -13 -45 -13 -19 -1 -37 -6 -41 -12 -16 -21 -7 42 8 65 24 35 106 120
117 120 5 0 -13 -20 -40 -44z m640 8 c-30 -24 -41 -18 -24 15 7 13 17 17 32
14 20 -6 20 -7 -8 -29z m-1403 -20 c0 -9 -7 -14 -17 -12 -25 5 -28 28 -4 28
12 0 21 -6 21 -16z m1201 -5 c9 -18 7 -25 -13 -46 -16 -15 -30 -21 -41 -17
-24 9 -21 22 5 26 26 3 37 36 16 49 -10 7 -9 9 4 9 10 0 22 -10 29 -21z m219
-14 c-13 -14 -26 -22 -29 -19 -3 3 5 14 19 24 34 27 38 25 10 -5z m-1344 -41
c18 -14 18 -14 -6 -3 -31 14 -36 19 -24 19 6 0 19 -7 30 -16z m-326 -29 c-7
-9 -15 -13 -19 -10 -3 3 1 10 9 15 21 14 24 12 10 -5z m70 5 c0 -5 -6 -10 -14
-10 -8 0 -18 5 -21 10 -3 6 3 10 14 10 12 0 21 -4 21 -10z m281 -80 c-24 -11
-46 -20 -50 -20 -12 1 64 39 79 39 8 0 -5 -8 -29 -19z"/>
<path d="M6595 1003 c-43 -6 -52 -20 -23 -33 20 -10 32 -9 57 4 30 16 35 38 8
35 -7 -1 -25 -4 -42 -6z"/>
<path d="M6855 990 c-3 -5 -3 -15 1 -21 6 -11 23 6 24 24 0 10 -18 9 -25 -3z"/>
<path d="M8350 1318 c-1 -2 -22 -87 -49 -190 -44 -170 -47 -188 -30 -188 14 0
19 11 24 48 4 26 11 60 16 76 5 16 9 39 9 51 0 27 31 57 64 60 27 3 68 23 78
38 4 7 12 6 22 -2 20 -17 36 -6 37 27 l0 27 10 -25 c8 -20 12 -22 19 -10 5 8
10 23 10 33 0 15 -6 17 -37 13 -21 -2 -59 -11 -85 -19 -25 -9 -56 -13 -68 -10
-19 5 -21 11 -15 39 3 19 3 34 0 34 -3 0 -5 -1 -5 -2z m20 -108 c0 -5 -5 -10
-11 -10 -5 0 -7 5 -4 10 3 6 8 10 11 10 2 0 4 -4 4 -10z"/>
<path d="M8570 1274 c0 -9 7 -14 17 -12 25 5 28 28 4 28 -12 0 -21 -6 -21 -16z"/>
<path d="M8020 1250 c0 -11 -9 -53 -21 -93 -32 -114 -68 -262 -64 -266 2 -2
11 -1 19 2 8 3 17 27 21 59 9 67 25 93 69 108 30 9 37 18 47 52 12 47 5 88
-16 88 -7 0 -16 -12 -18 -27 l-4 -28 -2 28 c0 15 -6 27 -12 27 -7 0 -9 12 -5
35 4 22 3 35 -4 35 -5 0 -10 -9 -10 -20z m16 -172 c-20 -28 -22 -5 -3 35 10
23 12 24 15 7 2 -11 -4 -30 -12 -42z"/>
<path d="M7956 1182 c-3 -5 -17 -7 -31 -4 -31 5 -33 -12 -3 -32 29 -21 38 -20
38 3 0 11 5 21 12 23 9 3 9 6 1 11 -7 4 -14 3 -17 -1z"/>
<path d="M5170 790 c0 -5 7 -10 15 -10 8 0 15 5 15 10 0 6 -7 10 -15 10 -8 0
-15 -4 -15 -10z"/>
<path d="M3962 741 c-10 -6 -7 -12 12 -24 35 -23 46 -21 46 8 0 19 -5 25 -22
25 -13 0 -29 -4 -36 -9z"/>
<path d="M1752 700 c-17 -27 -27 -106 -14 -113 8 -6 21 45 24 93 0 8 5 21 11
28 5 6 5 12 1 12 -5 0 -15 -9 -22 -20z"/>
<path d="M5200 716 c0 -2 9 -6 20 -9 11 -3 20 -1 20 4 0 5 -9 9 -20 9 -11 0
-20 -2 -20 -4z"/>
<path d="M4214 649 c-36 -22 -71 -82 -74 -124 -5 -69 -1 -85 20 -85 18 0 20 4
15 33 -8 42 7 82 55 138 22 26 36 49 33 53 -9 8 -14 7 -49 -15z"/>
<path d="M5177 663 c-4 -3 -7 -12 -7 -19 0 -9 7 -10 30 -1 17 6 30 15 30 19 0
10 -44 11 -53 1z"/>
<path d="M1670 640 c-9 -16 -8 -22 5 -26 19 -8 20 -6 29 24 9 29 -19 31 -34 2z"/>
<path d="M2326 644 c-50 -18 -63 -29 -87 -76 -14 -27 -19 -54 -17 -86 4 -56
21 -59 29 -5 3 21 11 48 19 59 16 25 70 60 70 45 0 -5 -9 -13 -21 -16 -46 -15
-80 -125 -43 -139 31 -12 41 -6 42 24 0 17 8 37 17 46 11 12 13 20 5 29 -7 9
-6 16 5 25 9 7 14 18 12 24 -2 6 2 24 10 40 19 37 7 47 -41 30z"/>
<path d="M5610 644 c0 -10 33 -33 48 -34 18 0 15 27 -4 34 -20 8 -44 8 -44 0z"/>
<path d="M4955 610 c-17 -33 -20 -54 -5 -45 6 3 10 2 10 -4 0 -5 -5 -13 -10
-16 -12 -7 -4 -25 11 -25 15 0 32 52 19 60 -6 4 -5 13 5 26 19 24 19 34 0 34
-8 0 -21 -13 -30 -30z"/>
<path d="M5460 599 c0 -11 5 -17 10 -14 6 3 10 13 10 21 0 8 -4 14 -10 14 -5
0 -10 -9 -10 -21z"/>
<path d="M4070 581 c-12 -24 -13 -71 -1 -71 14 0 31 25 37 58 5 25 3 32 -9 32
-9 0 -21 -9 -27 -19z"/>
<path d="M3022 520 c-13 -22 -7 -45 9 -34 5 3 7 10 3 15 -3 5 0 16 6 24 7 8 8
15 4 15 -5 0 -15 -9 -22 -20z"/>
<path d="M3611 462 c-14 -26 -14 -52 -1 -52 17 0 35 49 23 61 -8 8 -14 5 -22
-9z"/>
<path d="M3140 425 c0 -8 5 -15 10 -15 6 0 10 7 10 15 0 8 -4 15 -10 15 -5 0
-10 -7 -10 -15z"/>
<path d="M3286 414 c-19 -11 -41 -14 -67 -10 -44 7 -50 -3 -17 -34 15 -13 35
-20 64 -20 38 0 43 3 53 31 19 55 15 58 -33 33z"/>
<path d="M3145 360 c-3 -5 -1 -10 4 -10 6 0 11 5 11 10 0 6 -2 10 -4 10 -3 0
-8 -4 -11 -10z"/>
</g>
</svg>
