<?xml version="1.0" standalone="no"?>
<!DOCTYPE svg PUBLIC "-//W3C//DTD SVG 20010904//EN"
 "http://www.w3.org/TR/2001/REC-SVG-20010904/DTD/svg10.dtd">
<svg version="1.0" xmlns="http://www.w3.org/2000/svg"
 width="1088.000000pt" height="360.000000pt" viewBox="0 0 1088.000000 360.000000"
 preserveAspectRatio="xMidYMid meet">

<g transform="translate(0.000000,360.000000) scale(0.100000,-0.100000)"
fill="#000000" stroke="none">
<path d="M1615 3453 c-59 -31 -66 -42 -59 -93 6 -44 4 -50 -41 -111 -65 -87
-92 -151 -100 -234 -8 -78 4 -79 23 -1 8 29 27 65 50 91 47 56 64 43 32 -24
-13 -28 -23 -71 -24 -100 -2 -59 9 -58 19 2 4 23 20 60 36 82 16 22 33 64 39
95 6 30 15 59 20 64 6 6 10 18 10 28 0 21 34 45 76 54 l31 6 67 -151 c37 -83
68 -161 68 -174 1 -12 6 -28 11 -34 5 -7 7 -20 3 -28 -3 -9 0 -15 9 -15 21 0
19 -16 -6 -50 -18 -24 -21 -37 -15 -77 4 -26 7 -60 6 -74 0 -29 11 -41 55 -58
l30 -11 -38 3 c-37 3 -37 3 -19 -16 10 -10 41 -22 68 -26 l49 -7 -48 -8 c-56
-9 -58 -27 -6 -39 34 -9 64 -1 101 25 35 25 28 -2 -10 -39 -22 -21 -54 -70
-73 -110 -35 -75 -44 -85 -52 -55 -3 9 -2 -14 1 -53 6 -81 16 -121 28 -118 5
1 9 -22 9 -50 0 -35 4 -51 12 -50 7 2 10 -4 7 -12 -7 -18 14 -111 33 -145 13
-24 14 -23 9 20 -15 126 -19 150 -28 150 -13 0 -6 43 8 47 6 2 15 -42 23 -119
15 -158 29 -236 47 -272 8 -16 14 -34 14 -40 0 -14 43 -105 50 -106 3 0 14 13
23 30 10 16 22 30 28 30 14 0 11 -17 -5 -23 -8 -3 -22 -19 -30 -35 -14 -27
-14 -32 2 -53 10 -13 24 -39 31 -56 15 -36 20 -39 41 -20 12 10 12 9 1 -6 -12
-15 -11 -24 4 -60 11 -23 35 -57 54 -76 19 -19 27 -32 18 -28 -15 6 -16 3 -7
-13 6 -11 17 -20 25 -20 8 0 12 -6 9 -13 -3 -8 4 -25 15 -38 19 -23 20 -23 21
-3 0 11 -6 26 -12 34 -7 8 -3 6 10 -4 18 -16 21 -26 16 -52 -5 -28 0 -37 38
-78 25 -25 43 -48 41 -50 -2 -2 7 -13 21 -24 15 -11 26 -24 26 -30 0 -5 34
-42 76 -81 64 -59 82 -71 113 -72 23 -1 28 -3 14 -6 -13 -2 -23 -7 -23 -9 0
-9 55 -53 67 -54 7 0 16 -6 20 -13 4 -8 24 -22 43 -33 19 -10 39 -24 45 -31 5
-7 41 -28 78 -48 l69 -37 26 23 27 24 -23 -27 -24 -26 36 -17 c41 -19 41 -19
50 13 8 25 -10 30 -34 10 -8 -7 -4 -1 9 15 14 15 30 27 37 27 19 0 49 61 35
69 -7 5 -3 15 11 28 l23 22 4 -42 c6 -62 5 -86 -3 -147 l-8 -55 46 -16 c43
-15 47 -15 56 0 8 13 9 13 10 -6 0 -16 6 -23 18 -23 11 0 32 -6 48 -14 16 -8
40 -17 54 -20 14 -3 35 -8 48 -12 15 -4 22 -2 22 7 0 8 6 5 14 -7 9 -12 26
-19 45 -19 25 0 31 4 31 22 0 12 5 25 10 28 6 4 10 -8 10 -29 0 -20 5 -36 10
-36 6 0 10 24 10 53 0 43 6 62 28 93 38 52 52 62 103 77 38 11 43 16 44 45 1
17 -2 32 -7 32 -4 0 -8 -5 -8 -11 0 -6 -9 -8 -20 -4 -11 4 -20 2 -20 -4 0 -6
8 -11 18 -11 15 -1 15 -2 -2 -15 -11 -8 -25 -15 -30 -14 -6 0 -6 3 1 6 16 6
-6 43 -25 43 -7 0 -11 4 -7 9 3 6 23 10 44 9 39 0 81 16 81 31 0 5 -32 12 -71
15 -40 4 -96 18 -126 31 -29 13 -60 22 -67 19 -8 -3 -17 -1 -21 5 -3 6 -13 11
-21 11 -11 0 -14 -6 -9 -22 5 -17 2 -15 -13 8 -26 40 -123 74 -156 54 -18 -12
-19 -11 -9 2 19 22 -31 45 -56 26 -14 -11 -14 -11 -3 4 26 33 -10 31 -79 -5
-86 -45 -91 -40 -8 6 l62 35 -34 18 c-19 10 -43 24 -54 31 -11 7 -30 17 -41
22 -12 5 -24 15 -25 20 -2 6 -24 15 -49 20 -25 5 -34 9 -21 10 19 1 21 4 12
15 -7 8 -26 18 -42 21 -23 5 -28 11 -24 24 3 10 -1 24 -10 31 -22 18 -18 30
10 30 13 0 28 6 32 13 4 7 28 18 53 24 41 10 43 10 25 -4 -18 -14 -14 -14 45
-8 65 7 154 41 145 55 -2 4 7 12 20 18 29 13 33 32 8 33 -11 0 -6 6 14 15 43
18 49 34 57 139 7 84 6 91 -14 108 -21 18 -22 18 -37 0 -14 -17 -14 -17 -5 1
9 19 0 92 -16 124 -5 9 -7 23 -4 30 7 22 -18 60 -45 67 -13 3 -21 10 -18 15 8
12 -12 50 -26 50 -26 0 -98 61 -104 89 -3 16 -17 37 -30 45 -34 22 -38 20 -20
-14 8 -16 15 -35 15 -42 0 -7 -10 8 -23 34 -14 30 -41 61 -77 89 -30 23 -59
47 -65 53 -28 32 -59 44 -109 41 -28 -1 -40 -1 -26 2 44 8 43 20 -3 52 -25 17
-49 31 -53 31 -3 0 -29 16 -56 36 -28 19 -52 33 -55 30 -3 -3 -16 8 -30 25
-14 16 -29 26 -35 23 -5 -3 -16 3 -24 15 -17 24 -34 28 -34 8 0 -8 -7 -14 -16
-14 -10 0 -14 7 -10 20 6 24 -18 51 -113 122 -61 45 -82 55 -115 56 -23 0 -34
3 -26 6 8 2 21 7 29 9 9 3 -1 16 -29 37 -24 17 -60 49 -81 70 -20 20 -45 37
-53 37 -9 0 -15 3 -14 8 2 6 -80 92 -88 92 -2 0 -4 -7 -4 -17 0 -32 -14 -2
-21 45 -3 26 -45 132 -93 236 -47 104 -86 195 -86 202 0 8 -3 14 -7 14 -11 0
-40 67 -48 108 -7 36 -23 40 -70 15z m390 -701 c-3 -3 -11 0 -18 7 -9 10 -8
11 6 5 10 -3 15 -9 12 -12z m45 -46 c0 -13 -8 -30 -17 -37 -16 -12 -17 -12 -5
2 16 21 6 47 -21 52 -15 3 -11 5 11 6 27 1 32 -2 32 -23z m-50 -56 c-8 -5 -22
-9 -30 -9 -10 0 -8 3 5 9 27 12 43 12 25 0z m103 -41 c-8 -8 -16 -8 -30 0 -16
9 -14 10 12 11 21 0 26 -3 18 -11z m189 -108 c4 -3 -15 -4 -43 -3 -34 3 -57
-1 -75 -13 -14 -9 -28 -14 -31 -12 -6 6 31 27 66 37 26 8 70 3 83 -9z m83 -88
c3 -13 3 -23 -2 -23 -4 0 -13 16 -19 36 -9 29 -9 33 1 22 7 -7 16 -23 20 -35z
m-297 -3 c-7 -11 -17 -20 -22 -20 -5 0 -1 9 9 20 10 11 20 20 22 20 2 0 -2 -9
-9 -20z m139 14 c-3 -3 -12 -4 -19 -1 -8 3 -5 6 6 6 11 1 17 -2 13 -5z m64
-11 c13 -17 13 -17 -6 -3 -11 8 -22 16 -24 17 -2 2 0 3 6 3 6 0 17 -8 24 -17z
m-86 -23 c21 -24 14 -27 -9 -4 -9 8 -20 13 -25 10 -14 -9 -3 -87 16 -108 16
-18 16 -18 -2 -12 -13 5 -16 4 -11 -4 4 -7 5 -12 1 -12 -9 0 -45 64 -45 81 0
18 37 69 49 69 4 0 16 -9 26 -20z m-172 -59 c-16 -27 -30 -48 -32 -46 -4 5 48
95 54 95 3 0 -7 -22 -22 -49z m357 44 c0 -14 -30 -63 -47 -76 -12 -10 -11 -5
5 15 12 16 22 37 22 47 0 11 5 19 10 19 6 0 10 -2 10 -5z m36 -32 c-8 -15 -15
-25 -16 -21 0 12 23 58 27 54 3 -2 -2 -17 -11 -33z m58 11 c3 -8 2 -12 -4 -9
-6 3 -10 10 -10 16 0 14 7 11 14 -7z m62 -15 c11 -21 21 -30 33 -26 17 4 52
-37 51 -60 0 -4 -5 0 -11 10 -5 9 -16 17 -24 17 -31 0 -63 22 -58 40 3 10 0
21 -6 24 -6 4 -11 11 -11 17 0 17 9 9 26 -22z m-275 14 c8 6 6 3 -3 -8 -17
-19 -19 -19 -35 -1 -17 18 -17 18 3 8 15 -8 25 -8 35 1z m129 -52 c0 -5 -12
-16 -27 -26 l-28 -17 25 25 c28 29 30 30 30 18z m-85 -21 c-3 -5 -12 -10 -18
-10 -7 0 -6 4 3 10 19 12 23 12 15 0z m-52 -17 c-7 -2 -21 -2 -30 0 -10 3 -4
5 12 5 17 0 24 -2 18 -5z m63 -18 c-11 -8 -29 -15 -40 -14 -15 0 -11 4 14 14
45 17 49 17 26 0z m-111 -5 c3 -5 2 -10 -4 -10 -5 0 -13 5 -16 10 -3 6 -2 10
4 10 5 0 13 -4 16 -10z m-50 -20 c-11 -5 -32 -9 -46 -9 -31 -1 -45 -16 -52
-51 -4 -21 -4 -20 -6 7 0 17 4 35 11 39 15 9 67 22 93 22 l20 1 -20 -9z m60
-63 c5 -18 3 -27 -5 -27 -6 0 -8 4 -5 10 3 5 -1 23 -10 39 -8 17 -15 33 -15
38 0 15 29 -34 35 -60z m495 37 c0 -9 -28 -3 -46 11 -17 13 -16 14 14 4 17 -6
32 -13 32 -15z m-163 -36 c-3 -7 -5 -2 -5 12 0 14 2 19 5 13 2 -7 2 -19 0 -25z
m-157 -53 c0 -5 -13 6 -30 23 -16 18 -30 37 -30 42 0 6 14 -5 30 -23 17 -19
30 -38 30 -42z m-205 5 c-3 -5 -16 -15 -28 -21 -19 -9 -19 -8 3 10 28 23 34
26 25 11z m558 -7 c-7 -2 -21 -2 -30 0 -10 3 -4 5 12 5 17 0 24 -2 18 -5z m64
-20 c10 -10 14 -15 8 -11 -6 4 -22 12 -36 17 -15 6 -18 10 -8 10 9 1 25 -7 36
-16z m-377 -9 c0 -2 -7 -4 -15 -4 -8 0 -15 4 -15 10 0 5 7 7 15 4 8 -4 15 -8
15 -10z m-303 0 c-3 -3 -12 -4 -19 -1 -8 3 -5 6 6 6 11 1 17 -2 13 -5z m80
-26 c-3 -7 -5 -2 -5 12 0 14 2 19 5 13 2 -7 2 -19 0 -25z m431 15 c-8 -10 -20
-27 -26 -38 -6 -11 -12 -15 -12 -9 0 12 38 64 47 64 3 0 -1 -8 -9 -17z m212
-83 c-5 -18 -14 -38 -21 -46 -13 -16 -89 -19 -89 -5 0 6 15 7 33 4 46 -7 67
16 68 75 0 38 2 43 9 25 5 -13 5 -35 0 -53z m-690 36 c0 -8 -4 -17 -9 -21 -12
-7 -24 12 -16 25 9 15 25 12 25 -4z m390 -48 c0 -30 -3 -39 -10 -28 -7 12 -13
12 -33 1 -14 -7 -31 -11 -39 -8 -7 3 -3 6 10 6 28 1 39 26 21 49 -11 13 -8 12
9 -2 23 -20 23 -20 29 2 8 34 13 26 13 -20z m-233 10 c-3 -8 -6 -5 -6 6 -1 11
2 17 5 13 3 -3 4 -12 1 -19z m590 0 c-3 -8 -6 -5 -6 6 -1 11 2 17 5 13 3 -3 4
-12 1 -19z m-299 -23 c-3 -3 -9 2 -12 12 -6 14 -5 15 5 6 7 -7 10 -15 7 -18z
m-447 -135 c-8 -40 -9 -34 -9 45 0 79 1 84 9 45 5 -25 5 -64 0 -90z m196 100
c28 -8 28 -8 3 -10 -14 -1 -35 -3 -48 -4 -16 -2 -21 1 -17 11 3 8 5 19 5 25 0
7 5 6 14 -1 8 -7 27 -16 43 -21z m66 3 c-7 -2 -19 -2 -25 0 -7 3 -2 5 12 5 14
0 19 -2 13 -5z m452 -13 c-3 -5 -12 -10 -18 -10 -7 0 -6 4 3 10 19 12 23 12
15 0z m90 -9 c3 -5 1 -12 -5 -16 -6 -4 -8 -10 -5 -15 3 -5 1 -11 -5 -15 -6 -4
-10 6 -10 24 0 30 13 41 25 22z m160 -9 c-3 -3 -11 0 -18 7 -9 10 -8 11 6 5
10 -3 15 -9 12 -12z m-332 -19 c-7 -2 -19 -2 -25 0 -7 3 -2 5 12 5 14 0 19 -2
13 -5z m372 -3 c3 -6 -1 -7 -9 -4 -18 7 -21 14 -7 14 6 0 13 -4 16 -10z m-805
-13 c-27 -15 -36 -14 -25 2 3 6 16 11 28 11 21 0 21 -1 -3 -13z m103 6 c-13
-2 -33 -2 -45 0 -13 2 -3 4 22 4 25 0 35 -2 23 -4z m-356 -35 c-3 -8 -6 -5 -6
6 -1 11 2 17 5 13 3 -3 4 -12 1 -19z m199 -3 c-24 -18 -15 -28 24 -28 17 0 30
-5 30 -10 0 -5 -12 -7 -27 -4 -17 3 -36 0 -47 -9 -11 -8 -24 -14 -28 -14 -13
0 20 58 39 69 26 15 31 13 9 -4z m212 -28 c18 7 17 5 -10 -16 -16 -12 -19 -10
-28 14 -9 25 -14 27 -48 21 l-37 -5 35 13 c33 13 36 12 53 -10 12 -15 24 -21
35 -17z m74 13 c18 -16 27 -30 21 -30 -7 0 -13 5 -13 10 0 6 -15 19 -32 30
-18 11 -27 20 -21 20 7 0 27 -13 45 -30z m-212 10 c0 -5 -4 -10 -10 -10 -5 0
-10 5 -10 10 0 6 5 10 10 10 6 0 10 -4 10 -10z m635 4 c12 -5 14 -9 4 -14 -9
-6 -3 -17 22 -41 19 -18 25 -26 14 -19 -39 27 -65 54 -65 67 0 15 2 15 25 7z
m-795 -35 c0 -5 -4 -9 -10 -9 -5 0 -10 7 -10 16 0 8 5 12 10 9 6 -3 10 -10 10
-16z m855 11 c13 -6 15 -9 5 -9 -8 0 -22 4 -30 9 -18 12 -2 12 25 0z m171 -21
c3 -6 -5 -3 -20 6 -14 10 -26 19 -26 22 0 7 39 -17 46 -28z m-675 4 c13 -16
12 -17 -3 -4 -10 7 -18 15 -18 17 0 8 8 3 21 -13z m259 -30 c0 -7 -39 17 -46
28 -3 6 5 3 20 -6 14 -10 26 -19 26 -22z m135 -71 c-5 -6 -25 70 -24 93 1 11
7 -5 15 -35 7 -30 11 -56 9 -58z m-205 72 c0 -2 -9 0 -20 6 -11 6 -20 13 -20
16 0 2 9 0 20 -6 11 -6 20 -13 20 -16z m407 20 c-3 -3 -12 -4 -19 -1 -8 3 -5
6 6 6 11 1 17 -2 13 -5z m-547 -37 c0 -5 -4 -5 -10 -2 -5 3 -10 14 -10 23 0
15 2 15 10 2 5 -8 10 -19 10 -23z m-58 1 c-7 -7 -12 -8 -12 -2 0 14 12 26 19
19 2 -3 -1 -11 -7 -17z m-297 -28 c7 0 18 7 25 15 7 9 15 13 17 11 3 -2 -5
-14 -17 -26 -17 -17 -24 -19 -36 -9 -21 17 -18 -13 6 -61 11 -22 20 -43 20
-47 -1 -4 -12 14 -26 40 -19 38 -24 56 -18 80 5 21 9 26 12 15 2 -10 9 -18 17
-18z m754 4 c-9 -11 -8 -18 2 -31 13 -16 12 -17 -3 -4 -23 17 -25 63 -3 55 12
-5 13 -10 4 -20z m134 9 c-7 -2 -19 -2 -25 0 -7 3 -2 5 12 5 14 0 19 -2 13 -5z
m-494 -36 l25 -32 -32 29 c-33 31 -37 36 -24 35 4 0 18 -14 31 -32z m606 3 c8
-16 15 -38 15 -49 0 -26 -39 -37 -77 -22 -22 9 -23 10 -5 7 27 -5 52 2 52 15
0 5 -6 9 -14 9 -8 0 -18 4 -21 10 -3 5 0 8 7 5 7 -3 19 -1 27 4 10 7 11 13 2
30 -7 11 -9 21 -7 21 3 0 12 -13 21 -30z m-385 -30 c30 -43 18 -37 -16 7 -15
20 -23 33 -16 29 6 -3 21 -20 32 -36z m-274 3 c-10 -10 -19 5 -10 18 6 11 8
11 12 0 2 -7 1 -15 -2 -18z m-44 -15 c-13 -7 -26 -24 -29 -40 -3 -17 -12 -28
-22 -27 -10 0 -11 2 -3 6 6 2 12 11 12 19 0 18 36 54 53 53 6 0 2 -5 -11 -11z
m448 -13 c13 -14 21 -25 18 -25 -2 0 -15 11 -28 25 -13 14 -21 25 -18 25 2 0
15 -11 28 -25z m79 -1 c14 -12 -19 -1 -35 12 -18 14 -18 14 6 3 14 -6 27 -13
29 -15z m-864 -20 c18 -43 19 -54 4 -54 -5 0 -8 4 -5 9 3 5 -1 25 -9 45 -8 20
-13 36 -10 36 2 0 12 -16 20 -36z m125 11 c10 3 21 1 25 -5 4 -6 -7 -10 -29
-10 -31 0 -36 3 -36 23 1 20 2 20 11 4 7 -11 17 -16 29 -12z m498 13 c7 -7 12
-16 12 -20 0 -11 -23 -6 -32 7 -18 24 -1 34 20 13z m96 -4 c3 -8 2 -12 -4 -9
-6 3 -10 10 -10 16 0 14 7 11 14 -7z m-289 -5 c4 -6 17 -14 29 -19 15 -6 16
-9 5 -9 -9 -1 -22 6 -29 14 -7 8 -16 12 -21 9 -5 -3 -9 0 -9 5 0 14 17 14 25
0z m100 -9 c4 -6 -1 -7 -11 -3 -14 5 -16 1 -12 -25 5 -37 -7 -44 -14 -8 -7 34
21 61 37 36z m382 4 c-3 -3 -12 -4 -19 -1 -8 3 -5 6 6 6 11 1 17 -2 13 -5z
m-680 -20 c-3 -3 -12 -4 -19 -1 -8 3 -5 6 6 6 11 1 17 -2 13 -5z m153 2 c0 -2
-9 -6 -20 -9 -11 -3 -20 -1 -20 4 0 5 9 9 20 9 11 0 20 -2 20 -4z m181 -18
c11 -21 11 -22 -4 -9 -10 7 -17 17 -17 22 0 15 9 10 21 -13z m-371 -9 c0 -14
-16 -11 -29 5 -10 12 -8 13 8 9 12 -3 21 -9 21 -14z m434 -14 c5 -22 4 -26 -4
-15 -5 8 -10 24 -10 34 0 26 6 18 14 -19z m-290 -19 c-3 -15 -8 -25 -11 -23
-2 3 -1 17 3 31 3 15 8 25 11 23 2 -3 1 -17 -3 -31z m-224 4 c24 0 23 -1 -9
-17 -18 -9 -43 -31 -55 -50 -11 -18 -25 -33 -30 -33 -5 0 -2 8 7 18 10 10 17
24 17 30 0 6 9 16 20 22 24 13 26 30 4 30 -8 0 -12 5 -8 11 4 8 9 8 17 0 6 -6
22 -11 37 -11z m616 -44 c-3 -14 -11 -26 -16 -26 -11 0 -14 73 -3 84 12 12 26
-31 19 -58z m341 52 c22 -9 24 -12 11 -15 -10 -3 -18 -13 -18 -23 0 -10 -9
-22 -20 -25 -11 -3 -20 -13 -20 -21 0 -8 -4 -14 -8 -14 -5 0 -14 -11 -20 -25
-6 -14 -18 -25 -27 -25 -12 0 -10 9 11 41 14 22 23 47 20 55 -4 10 2 14 19 14
15 0 25 6 25 15 0 12 -12 14 -75 8 -52 -4 -75 -3 -75 5 0 6 23 13 53 15 28 2
62 4 74 5 12 1 34 -3 50 -10z m-489 -15 c-2 -12 -11 -17 -26 -15 -15 2 -22 -2
-22 -13 0 -9 -4 -13 -10 -10 -12 8 9 43 30 49 28 7 31 6 28 -11z m-411 -9 c-3
-3 -12 -4 -19 -1 -8 3 -5 6 6 6 11 1 17 -2 13 -5z m510 -16 c-3 -8 -6 -5 -6 6
-1 11 2 17 5 13 3 -3 4 -12 1 -19z m190 16 c-3 -3 -12 -4 -19 -1 -8 3 -5 6 6
6 11 1 17 -2 13 -5z m-654 -11 c-7 -2 -19 -2 -25 0 -7 3 -2 5 12 5 14 0 19 -2
13 -5z m884 -40 c-3 -10 -5 -2 -5 17 0 19 2 27 5 18 2 -10 2 -26 0 -35z m-808
26 c17 -6 31 -15 31 -20 0 -9 -27 -2 -45 11 -5 5 -19 10 -30 13 -13 3 -15 5
-4 6 9 0 30 -4 48 -10z m596 1 c-3 -5 -18 -10 -33 -9 -24 0 -25 1 -7 9 28 12
47 12 40 0z m43 -2 c-6 -18 -28 -21 -28 -4 0 9 7 16 16 16 9 0 14 -5 12 -12z
m-363 -25 c-9 -37 -11 -38 -30 -20 -21 21 -19 30 5 22 14 -5 20 -2 20 9 0 9 3
16 6 16 3 0 3 -12 -1 -27z m228 -43 c-32 -66 -16 -92 31 -52 21 17 21 17 2 -5
-18 -21 -55 -31 -68 -17 -9 9 44 124 57 124 1 0 -9 -23 -22 -50z m258 19 c-5
-13 -10 -19 -10 -12 -1 15 10 45 15 40 3 -2 0 -15 -5 -28z m-371 -1 c0 -11 -5
-18 -12 -16 -19 7 -21 35 -3 35 8 0 15 -9 15 -19z m-406 -60 c-3 -4 -16 -8
-29 -8 -13 0 -30 -9 -38 -20 -11 -16 -21 -19 -42 -14 -18 4 -30 2 -36 -7 -6
-10 -11 -11 -19 -3 -14 14 32 28 60 19 13 -4 22 1 30 15 6 12 21 20 35 20 21
0 25 5 26 33 l1 32 8 -29 c5 -16 7 -33 4 -38z m35 33 c-15 -5 -22 6 -14 19 6
9 10 9 16 -1 5 -8 4 -15 -2 -18z m66 9 c3 -5 2 -10 -4 -10 -5 0 -13 5 -16 10
-3 6 -2 10 4 10 5 0 13 -4 16 -10z m95 -10 c0 -5 -10 -10 -22 -10 -19 0 -20 2
-8 10 19 13 30 13 30 0z m-423 -22 c-3 -8 -6 -5 -6 6 -1 11 2 17 5 13 3 -3 4
-12 1 -19z m674 -1 c-10 -9 -11 -8 -5 6 3 10 9 15 12 12 3 -3 0 -11 -7 -18z
m-331 -7 c0 -5 10 -10 22 -10 12 0 19 -3 15 -6 -3 -3 -30 -3 -59 2 -49 7 -50
8 -23 15 44 10 45 10 45 -1z m123 -6 c-3 -8 -12 -13 -20 -10 -8 3 -24 7 -36 7
-19 1 3 8 55 18 4 0 5 -6 1 -15z m459 -16 c-6 -6 -15 -8 -19 -4 -4 4 -1 11 7
16 19 12 27 3 12 -12z m-662 9 c0 -2 -17 -19 -37 -38 l-38 -34 34 38 c33 34
41 42 41 34z m412 -22 c3 -14 1 -25 -3 -25 -5 0 -9 11 -9 25 0 14 2 25 4 25 2
0 6 -11 8 -25z m167 -1 c-35 -19 -45 -17 -25 5 10 11 25 17 33 14 12 -5 10 -9
-8 -19z m-315 7 c6 -10 -20 -48 -28 -41 -7 8 5 50 15 50 4 0 10 -4 13 -9z
m-397 -49 c6 -4 -10 -7 -35 -8 -32 -1 -41 1 -27 7 26 10 47 10 62 1z m483 -7
c-7 -8 -16 -12 -21 -9 -13 8 -1 24 18 24 13 0 13 -3 3 -15z m217 9 c-3 -3 -12
-4 -19 -1 -8 3 -5 6 6 6 11 1 17 -2 13 -5z m-403 -45 c-3 -5 -10 -7 -15 -3 -5
3 -7 10 -3 15 3 5 10 7 15 3 5 -3 7 -10 3 -15z m-137 5 c-3 -3 -12 -4 -19 -1
-8 3 -5 6 6 6 11 1 17 -2 13 -5z m286 -14 c-3 -12 -8 -19 -11 -16 -5 6 5 36
12 36 2 0 2 -9 -1 -20z m307 4 c-25 -7 -49 -13 -55 -13 -18 1 59 27 80 28 11
0 0 -7 -25 -15z m-635 -4 c3 -5 -3 -10 -14 -10 -11 0 -23 5 -26 10 -3 6 3 10
14 10 11 0 23 -4 26 -10z m109 -1 c23 -11 54 -64 44 -75 -3 -2 -19 11 -36 31
-17 19 -36 35 -42 35 -5 0 -10 5 -10 10 0 13 13 13 44 -1z m63 -41 c-3 -8 -6
-5 -6 6 -1 11 2 17 5 13 3 -3 4 -12 1 -19z m170 -57 c3 -22 1 -41 -4 -41 -11
0 -34 81 -26 93 10 16 24 -10 30 -52z m-108 5 c-10 -8 -89 -13 -83 -5 3 5 24
9 46 9 23 0 39 -2 37 -4z m-172 -12 c-3 -3 -12 -4 -19 -1 -8 3 -5 6 6 6 11 1
17 -2 13 -5z m178 -35 c11 -17 -1 -21 -15 -4 -8 9 -8 15 -2 15 6 0 14 -5 17
-11z m-98 -5 c-3 -3 -12 -4 -19 -1 -8 3 -5 6 6 6 11 1 17 -2 13 -5z m296 -51
c-7 -2 -19 -2 -25 0 -7 3 -2 5 12 5 14 0 19 -2 13 -5z m-176 -35 c-3 -8 -6 -5
-6 6 -1 11 2 17 5 13 3 -3 4 -12 1 -19z m-182 2 c-3 -5 -11 -10 -16 -10 -6 0
-7 5 -4 10 3 6 11 10 16 10 6 0 7 -4 4 -10z m85 0 c0 -5 -4 -10 -10 -10 -5 0
-10 5 -10 10 0 6 5 10 10 10 6 0 10 -4 10 -10z m-15 -45 c0 -14 -6 -25 -13
-25 -7 0 -11 3 -9 8 2 4 7 15 10 25 9 24 12 21 12 -8z m454 2 c-2 -1 -13 -9
-24 -17 -19 -14 -19 -14 -6 3 7 9 18 17 24 17 6 0 8 -1 6 -3z m-96 -39 c-11
-13 -19 -28 -17 -33 6 -15 -36 -39 -48 -27 -7 7 -3 12 11 17 23 7 29 35 9 35
-17 1 33 29 51 30 11 0 9 -6 -6 -22z m-113 -8 c-8 -5 -22 -9 -30 -9 -10 0 -8
3 5 9 27 12 43 12 25 0z m-232 -7 c-10 -2 -26 -2 -35 0 -10 3 -2 5 17 5 19 0
27 -2 18 -5z m167 -3 c3 -6 -1 -7 -9 -4 -18 7 -21 14 -7 14 6 0 13 -4 16 -10z
m215 -74 c0 -2 -8 -10 -17 -17 -16 -13 -17 -12 -4 4 13 16 21 21 21 13z m539
-96 c6 0 11 -5 11 -11 0 -15 -58 28 -72 54 -7 14 -1 11 19 -10 17 -18 36 -33
42 -33z m-742 30 c-14 -11 -28 -20 -32 -20 -10 0 38 39 49 40 5 0 -3 -9 -17
-20z m386 5 c-3 -9 -8 -14 -10 -11 -3 3 -2 9 2 15 9 16 15 13 8 -4z m-273 0
c0 -6 -97 -55 -107 -55 -4 1 17 14 47 30 61 32 60 32 60 25z m40 -20 c-7 -8
-17 -15 -23 -15 -6 0 -2 7 9 15 25 19 30 19 14 0z m425 -45 c16 -7 11 -9 -20
-9 -29 -1 -36 2 -25 9 17 11 19 11 45 0z m-125 -4 c0 -3 -4 -8 -10 -11 -5 -3
-10 -1 -10 4 0 6 5 11 10 11 6 0 10 -2 10 -4z m330 -13 c3 -3 -4 -11 -14 -19
-17 -12 -22 -12 -36 1 -9 8 -22 15 -29 15 -7 0 -10 4 -6 9 5 9 74 4 85 -6z
m47 -9 c-3 -3 -12 -4 -19 -1 -8 3 -5 6 6 6 11 1 17 -2 13 -5z m-169 -35 c29 0
33 -2 17 -8 -20 -8 -72 2 -84 15 -3 4 2 4 12 1 10 -4 35 -7 55 -8z m157 2 c17
-1 15 -4 -11 -20 -33 -20 -73 -70 -75 -93 0 -10 -2 -10 -6 1 -4 11 -10 8 -25
-10 -20 -24 -20 -24 -1 11 10 19 28 47 41 61 26 30 14 51 -16 27 -15 -11 -15
-11 -5 3 7 9 11 18 9 20 -4 4 42 4 89 0z m-235 -39 c0 -4 -14 -8 -31 -8 -32
-1 -32 -1 -8 11 23 13 39 11 39 -3z m-110 -13 c0 -6 -4 -7 -10 -4 -5 3 -10 11
-10 16 0 6 5 7 10 4 6 -3 10 -11 10 -16z m178 2 c-7 -11 -15 -18 -20 -15 -11
7 3 34 18 34 12 0 12 -4 2 -19z m-48 -19 c0 -5 -11 -19 -25 -32 -28 -27 -36
-8 -8 22 17 19 33 24 33 10z m40 -37 c4 3 6 -5 2 -17 -5 -20 -6 -21 -12 -3 -7
19 -7 19 -18 0 -6 -11 -12 -17 -12 -12 0 14 25 47 28 37 2 -6 7 -8 12 -5z
m-13 -67 c-3 -8 -6 -5 -6 6 -1 11 2 17 5 13 3 -3 4 -12 1 -19z m59 -25 c-11
-11 -19 6 -11 24 8 17 8 17 12 0 3 -10 2 -21 -1 -24z"/>
<path d="M5459 3421 c-114 -37 -179 -107 -179 -195 0 -58 17 -99 64 -155 59
-70 70 -97 55 -133 -13 -32 -74 -67 -115 -68 -11 0 -23 -3 -27 -6 -8 -8 56
-136 76 -152 35 -30 187 49 235 121 23 35 27 51 27 117 l0 76 -62 84 c-35 46
-63 94 -63 106 0 44 45 71 109 65 12 -1 21 2 20 6 -2 4 -17 41 -34 80 -16 40
-34 73 -40 72 -5 0 -35 -8 -66 -18z"/>
<path d="M3264 3082 c-1 -235 2 -339 10 -344 13 -9 131 -10 161 -2 19 5 20 14
20 345 l1 339 -96 0 -95 0 -1 -338z"/>
<path d="M3860 3413 l-35 -4 0 -337 0 -337 95 0 95 0 -4 118 -3 117 38 0 c22
0 44 -4 51 -8 6 -4 30 -54 52 -112 23 -57 47 -107 53 -112 18 -11 176 -10 183
1 3 5 -20 64 -50 130 -30 66 -55 124 -55 129 0 4 16 24 36 43 48 45 64 85 64
159 0 75 -16 116 -63 157 -57 50 -118 63 -281 61 -78 -1 -157 -3 -176 -5z
m283 -145 c35 -18 46 -40 47 -90 0 -39 -4 -50 -27 -68 -22 -17 -38 -20 -92
-18 l-66 3 -3 70 c-5 110 -2 115 64 115 30 0 65 -5 77 -12z"/>
<path d="M4724 3082 c-1 -235 2 -339 10 -344 13 -9 131 -10 161 -2 19 5 20 14
20 345 l1 339 -96 0 -95 0 -1 -338z"/>
<path d="M5954 3075 l0 -346 95 3 95 3 0 135 1 135 128 3 127 3 0 -141 0 -140
98 0 97 0 0 345 0 345 -98 0 -98 0 3 -122 3 -123 -134 -3 -134 -3 5 126 6 125
-97 0 -97 0 0 -345z"/>
<path d="M9498 3312 c-125 -34 -233 -134 -275 -255 -23 -68 -23 -186 1 -304
14 -69 23 -94 36 -98 10 -3 30 -17 45 -31 l28 -25 36 34 c62 59 95 72 201 74
52 1 113 7 135 14 160 48 346 -126 362 -341 9 -111 -54 -252 -144 -326 -63
-51 -233 -164 -247 -164 -25 0 -38 27 -31 62 5 21 35 61 90 118 166 172 217
298 165 401 -19 37 -70 79 -97 79 -8 0 -9 -10 -1 -37 16 -60 6 -161 -24 -226
-31 -67 -119 -164 -166 -184 -30 -12 -37 -12 -58 2 -35 22 -55 58 -75 133 -23
81 -25 199 -4 249 20 47 19 50 -6 27 -40 -36 -56 -85 -62 -189 -7 -122 -21
-167 -50 -163 -31 4 -56 55 -71 144 -8 44 -20 93 -26 109 -15 40 -49 75 -72
75 -17 0 -17 -2 -3 -30 28 -55 45 -153 45 -270 0 -135 -9 -176 -49 -214 -69
-67 -177 -32 -236 75 -28 51 -30 61 -30 164 0 61 3 125 7 144 11 49 -14 25
-42 -42 -18 -40 -23 -71 -23 -134 0 -73 4 -90 32 -147 37 -75 94 -130 191
-184 114 -62 121 -69 118 -110 -5 -56 -39 -68 -150 -54 -152 19 -260 87 -307
192 -122 278 56 740 282 729 32 -2 52 3 76 20 17 13 52 26 77 29 l46 7 -83 54
c-145 96 -245 124 -362 101 -228 -44 -370 -267 -313 -490 9 -36 28 -82 41
-102 31 -46 31 -46 1 -77 -14 -15 -36 -48 -49 -76 -133 -266 60 -575 358 -575
79 0 146 20 266 80 102 52 291 174 323 209 37 41 32 20 -23 -93 -31 -63 -76
-168 -101 -234 -42 -115 -44 -119 -60 -99 -20 24 -50 17 -50 -12 0 -17 -18
-31 -41 -31 -5 0 -9 9 -9 20 0 32 -48 27 -56 -5 -3 -14 -19 -32 -35 -40 -36
-19 -37 -19 -41 8 -5 33 -45 36 -57 4 -16 -42 -77 -53 -83 -14 -4 26 -48 39
-48 13 0 -15 -45 -56 -61 -56 -5 0 -9 9 -9 20 0 10 -9 24 -19 30 -16 8 -23 5
-41 -20 -25 -35 -60 -41 -60 -10 0 11 -7 23 -16 27 -16 6 -21 2 -49 -40 -5 -9
-25 -18 -42 -22 -30 -6 -33 -4 -33 18 0 25 -23 42 -42 31 -5 -3 -13 -17 -18
-30 -18 -46 -90 -58 -90 -15 0 20 -21 33 -36 23 -5 -4 -15 -19 -23 -34 -23
-46 -85 -49 -79 -4 2 17 -2 21 -22 21 -17 0 -26 -6 -28 -20 -2 -11 -14 -28
-27 -38 -30 -22 -62 -9 -67 25 -5 36 -37 35 -49 -1 -18 -51 -89 -56 -89 -7 0
32 -34 53 -56 35 -8 -6 -14 -19 -14 -29 0 -9 -9 -25 -20 -35 -27 -24 -70 -13
-70 18 0 56 -51 63 -77 9 -13 -28 -25 -38 -46 -40 -35 -4 -57 13 -57 44 0 30
-32 49 -60 34 -11 -6 -20 -20 -20 -32 0 -25 -26 -47 -56 -48 -24 0 -46 21 -43
42 3 27 -1 38 -21 48 -27 15 -60 -4 -60 -34 0 -33 -31 -56 -73 -56 -36 0 -37
1 -37 35 0 36 -20 55 -59 55 -14 0 -22 -8 -26 -27 -9 -42 -19 -56 -54 -77 -30
-17 -33 -17 -66 -2 -29 14 -35 22 -35 49 0 40 -15 57 -50 57 -32 0 -50 -17
-50 -46 0 -27 -57 -77 -77 -69 -8 3 -26 8 -39 11 -21 6 -23 10 -18 44 5 32 3
40 -14 49 -28 15 -67 14 -80 -1 -6 -7 -12 -26 -14 -42 -4 -41 -46 -70 -88 -61
-31 7 -32 9 -27 46 4 32 1 42 -16 54 -26 18 -68 20 -85 3 -7 -7 -12 -24 -12
-39 0 -41 -49 -79 -92 -70 -31 7 -33 9 -30 45 5 48 -19 76 -64 76 -42 0 -64
-23 -64 -65 0 -41 -29 -65 -79 -65 l-34 0 5 44 c6 49 3 58 -29 75 -52 27 -103
-3 -103 -61 -1 -50 -39 -74 -99 -62 -41 8 -46 12 -43 34 2 14 4 34 5 45 1 13
-10 26 -35 40 -35 18 -40 19 -65 5 -21 -12 -29 -25 -31 -50 -4 -35 -23 -64
-53 -81 -16 -8 -135 21 -126 31 2 3 7 21 10 41 7 50 -19 79 -73 79 -47 0 -70
-21 -70 -63 0 -20 -9 -41 -27 -59 -31 -32 -40 -34 -80 -14 -15 8 -36 17 -45
20 -19 6 -24 41 -9 65 23 36 -43 78 -103 67 -36 -7 -46 -21 -46 -62 0 -39 -17
-62 -62 -85 -38 -19 -43 -20 -72 -6 -17 9 -39 18 -48 21 -14 4 -16 13 -11 56
5 42 3 53 -13 65 -27 20 -77 27 -108 15 -21 -8 -26 -16 -26 -45 0 -43 -23 -81
-61 -101 -40 -20 -65 -18 -86 9 -22 29 -54 47 -82 47 -24 0 -25 2 -10 54 20
74 -10 106 -102 106 -46 0 -69 -27 -69 -83 0 -42 -13 -58 -79 -101 -69 -44
-94 -73 -87 -100 3 -13 33 -66 67 -117 59 -89 61 -96 52 -131 -9 -34 -8 -36
16 -41 44 -7 251 -9 251 -2 0 3 -18 28 -40 54 -33 39 -40 55 -40 90 l0 42 54
-6 c35 -5 56 -3 60 4 13 21 43 11 55 -18 11 -24 7 -49 -24 -172 -47 -185 -96
-381 -135 -539 -17 -69 -33 -133 -36 -142 -4 -14 1 -18 24 -18 16 0 34 6 39
13 6 6 19 64 31 127 17 90 26 118 42 129 17 11 20 24 20 79 l0 66 30 -29 c16
-15 51 -34 77 -42 l48 -13 -47 5 c-36 3 -48 1 -48 -9 0 -22 46 -46 89 -46 35
0 40 3 50 31 15 45 14 51 -10 44 -15 -5 -19 -4 -15 4 5 7 -5 11 -28 11 -28 0
-42 8 -68 36 -18 20 -42 40 -53 45 -18 7 -19 8 -1 8 10 1 35 -17 55 -39 41
-45 91 -56 91 -21 0 26 -15 34 -39 21 -21 -11 -34 -1 -23 16 19 29 92 20 92
-11 0 -23 17 -18 23 7 8 28 1 38 -26 39 -17 1 -15 3 8 8 17 4 29 13 27 20 -1
7 2 19 8 26 9 10 7 16 -8 24 -23 12 -34 55 -19 70 19 19 24 12 20 -24 -3 -27
0 -35 13 -35 11 0 15 6 11 20 -3 10 2 25 10 32 13 10 13 14 -3 25 -74 54 -168
-53 -115 -130 l22 -32 -26 29 c-23 25 -26 35 -21 68 3 21 3 38 -1 38 -4 0 -24
-19 -45 -42 -20 -24 -37 -39 -38 -35 0 5 22 30 49 57 27 27 47 51 43 54 -9 10
-52 7 -73 -4 -17 -10 -19 -7 -19 22 0 42 22 148 31 148 4 0 12 -7 20 -16 10
-12 10 -22 2 -45 -6 -16 -8 -31 -5 -33 4 -2 40 -4 81 -5 92 -1 144 -10 138
-25 -3 -6 -14 -51 -26 -101 -12 -49 -28 -117 -36 -150 -8 -33 -21 -91 -30
-130 -9 -38 -25 -107 -36 -153 -24 -98 -21 -114 18 -103 26 7 28 12 48 119 11
61 26 117 32 123 7 7 31 12 55 10 23 -1 63 4 90 10 42 11 48 16 48 38 0 14 4
33 10 41 6 11 1 22 -23 42 -18 15 -39 27 -47 28 -11 0 -12 2 -1 13 10 10 14 9
22 -6 9 -15 58 -47 74 -47 15 0 2 29 -15 35 -11 3 -25 16 -31 27 -10 18 -18
20 -75 16 -35 -2 -58 0 -51 4 6 4 20 8 30 8 9 0 17 5 17 10 0 6 -11 10 -25 10
-14 0 -25 3 -25 8 0 8 111 54 117 48 2 -2 -15 -11 -37 -20 -51 -20 -43 -36 18
-37 31 0 41 -3 28 -8 -16 -6 -14 -11 19 -40 40 -35 60 -36 59 -2 0 12 6 21 13
21 9 0 12 -7 9 -17 -13 -47 -38 -153 -46 -193 -5 -25 -15 -72 -24 -105 -20
-77 -20 -75 9 -75 31 0 39 17 55 113 18 106 21 109 109 110 39 0 74 4 77 9 3
5 14 6 25 3 10 -4 19 -2 19 3 0 5 -15 12 -32 16 -26 5 -30 9 -18 16 22 14 34
12 60 -10 29 -25 40 -25 40 -1 0 26 -50 44 -125 45 -35 1 -61 4 -59 8 2 3 -2
9 -8 11 -19 8 50 8 121 1 46 -5 61 -10 57 -20 -3 -8 -2 -14 3 -14 14 0 20 38
11 68 -7 24 -8 24 -9 5 -1 -13 -6 -23 -12 -23 -6 0 -8 9 -3 23 17 55 17 53 5
37 -10 -13 -12 -13 -21 0 -5 8 -10 20 -10 25 0 6 5 3 10 -5 8 -13 11 -13 19
-1 7 11 10 9 16 -8 9 -29 21 -27 29 5 7 25 -13 53 -36 54 -5 0 -8 5 -8 11 0 6
9 4 22 -5 16 -11 25 -13 35 -4 23 19 14 36 -32 63 -52 31 -112 32 -107 3 2
-10 -2 -18 -8 -18 -6 0 -8 4 -5 10 3 5 -12 12 -35 16 -33 5 -40 10 -40 29 0
13 7 25 15 29 13 4 13 9 3 25 -15 25 10 125 32 128 8 2 28 -16 44 -39 25 -36
27 -46 18 -70 -5 -15 -7 -29 -4 -32 3 -3 43 -6 88 -6 46 0 85 -4 88 -8 3 -5 1
-24 -4 -43 -6 -19 -26 -101 -45 -184 -20 -82 -45 -189 -57 -238 -12 -48 -19
-89 -17 -91 2 -2 15 -2 30 1 23 4 27 12 45 101 18 93 20 97 47 100 15 2 25 8
22 13 -4 5 5 5 20 -1 43 -16 46 -13 42 45 -5 64 -12 77 -21 40 -6 -23 -51 -53
-63 -41 -6 6 16 119 25 127 4 3 22 9 40 12 31 6 44 -8 25 -27 -11 -10 -12 -36
-2 -36 5 0 9 7 9 15 0 8 5 15 10 15 7 0 7 -6 1 -17 -9 -19 -14 -58 -12 -105 1
-22 6 -28 22 -28 19 0 21 4 15 31 -7 38 18 100 63 151 21 24 28 39 20 43 -6 4
-16 2 -22 -4 -16 -16 -31 -13 -17 3 6 8 26 16 43 18 27 2 31 7 29 26 -2 12 2
22 7 22 6 0 11 7 11 14 0 12 -18 14 -97 11 -54 -2 -105 -5 -113 -7 -12 -2 -14
8 -11 56 4 76 23 140 41 144 24 4 63 -66 56 -99 -6 -32 0 -35 84 -38 30 -1 58
-6 63 -10 4 -4 3 -20 -2 -37 -5 -16 -14 -48 -20 -71 -7 -24 -18 -43 -25 -43
-16 0 -73 -71 -90 -113 -14 -33 -12 -75 4 -91 19 -19 38 6 54 76 21 89 25 102
31 96 4 -4 -53 -264 -71 -327 -6 -22 -5 -24 17 -18 13 4 27 7 31 7 3 0 11 31
18 69 6 38 17 77 24 86 8 12 37 19 105 25 51 5 95 11 99 14 3 3 6 20 7 38 1
18 8 52 15 76 16 50 7 64 -20 34 -12 -12 -24 -22 -27 -22 -4 0 6 14 22 30 26
27 65 41 65 23 0 -5 -18 -80 -40 -167 -22 -88 -38 -162 -35 -164 2 -2 15 -2
28 2 21 5 26 15 37 73 13 73 24 94 43 87 7 -2 32 -1 57 4 43 7 45 9 51 47 l6
40 2 -37 c0 -21 5 -38 10 -38 11 0 21 50 21 109 0 30 7 55 20 71 11 14 20 35
20 47 0 12 4 33 10 47 8 22 7 26 -9 26 -12 0 -22 -12 -29 -32 l-11 -33 5 32
c5 31 4 33 -25 33 -16 0 -32 -4 -35 -9 -3 -4 -16 -6 -30 -4 -21 4 -24 9 -20
46 6 75 15 107 28 107 18 0 35 -42 29 -73 -5 -27 -5 -27 55 -27 34 0 63 -4 66
-9 5 -8 -59 -291 -90 -395 -19 -64 -18 -76 6 -76 24 0 37 24 46 81 11 70 19
80 62 74 41 -6 51 -1 70 34 10 17 11 26 3 34 -8 8 -5 17 10 33 l20 22 -56 7
c-30 3 -53 10 -50 15 3 5 20 4 38 -1 75 -23 145 -8 118 25 -10 12 -9 16 5 24
18 10 24 28 26 75 1 15 5 27 10 27 5 0 6 5 3 10 -5 8 -11 8 -19 1 -7 -6 -22
-8 -34 -4 -14 3 -22 1 -22 -7 0 -10 -4 -9 -16 1 -14 11 -18 11 -29 -4 -10 -15
-14 -15 -18 -3 -4 9 -14 12 -26 9 -24 -6 -29 15 -6 23 12 5 13 10 4 20 -7 9
-9 30 -5 59 6 38 11 45 30 45 27 0 48 -34 44 -70 -3 -24 -1 -25 60 -28 73 -3
73 -4 43 -117 -11 -38 -33 -124 -51 -190 -17 -66 -34 -128 -36 -138 -5 -15 -1
-18 22 -15 26 3 29 8 40 60 13 66 30 94 49 78 8 -7 26 -6 56 3 24 8 51 11 59
9 8 -3 12 -1 8 3 -4 4 -1 13 8 19 8 7 17 31 20 54 3 41 3 42 -26 42 -24 0 -30
-4 -30 -20 0 -18 3 -19 20 -10 11 6 20 7 20 2 0 -6 -8 -12 -17 -15 -10 -2 -25
-8 -34 -11 -11 -5 -18 -1 -22 13 -3 12 -1 24 4 27 19 11 8 24 -23 25 -21 1
-26 3 -14 6 11 3 26 11 33 19 14 13 52 13 86 -1 10 -4 17 -3 17 4 0 6 -8 11
-17 12 -12 1 -9 4 7 8 14 4 25 13 25 21 0 12 -16 15 -72 15 -39 0 -75 3 -79 7
-4 5 3 8 15 8 17 0 21 4 17 15 -4 11 1 15 19 15 18 0 23 -4 19 -15 -4 -10 0
-15 11 -15 11 0 15 5 11 15 -4 12 0 14 22 8 15 -4 37 -7 49 -6 20 1 22 -3 17
-26 -11 -44 -75 -295 -80 -313 -4 -14 0 -18 18 -18 21 0 26 8 39 57 14 53 17
58 50 66 32 7 35 11 31 36 -2 16 1 32 8 36 9 5 10 1 5 -14 -4 -12 -2 -21 4
-21 6 0 11 6 11 14 0 8 4 17 9 20 5 4 7 -3 4 -14 -3 -11 -9 -23 -14 -26 -14
-8 -10 -24 6 -24 8 0 23 18 32 40 18 40 39 50 60 29 6 -6 16 -8 22 -5 18 11
12 44 -9 56 -29 15 -25 28 7 22 21 -4 25 -2 20 11 -3 8 0 18 7 20 14 6 27 52
18 62 -3 3 -17 -5 -31 -17 -14 -13 -11 -6 8 14 56 61 21 74 -144 55 -18 -2
-20 3 -17 56 3 64 15 97 36 97 19 0 47 -46 39 -65 -9 -26 15 -35 91 -35 66 0
68 -1 62 -23 -3 -12 -27 -101 -52 -197 -24 -96 -47 -183 -50 -193 -5 -15 -1
-18 17 -15 22 3 29 17 43 79 5 23 13 28 51 33 44 7 58 19 33 29 -10 4 -10 6
-1 6 6 1 15 -3 18 -9 9 -15 35 -12 35 4 0 18 -33 30 -58 22 -18 -6 -62 18 -52
28 3 3 28 -1 55 -9 63 -19 68 -19 62 5 -3 11 -2 20 3 20 4 0 11 11 14 24 3 13
9 32 12 41 6 14 3 16 -17 10 -23 -7 -23 -7 3 14 26 21 56 96 44 109 -3 3 -35
4 -71 3 -48 -2 -65 1 -64 11 1 26 24 127 31 133 11 12 47 -51 41 -73 -5 -20
-2 -22 42 -22 l47 0 -5 -33 c-3 -17 -26 -113 -51 -211 -25 -99 -44 -181 -42
-184 3 -2 13 -1 24 2 13 4 22 19 27 42 12 64 25 84 59 86 40 2 49 1 61 -3 6
-2 10 -1 10 2 0 4 9 16 19 28 14 15 20 37 20 76 1 38 5 55 14 55 7 0 10 5 7
10 -3 6 -3 16 2 23 4 6 9 29 10 50 3 35 -5 46 -21 30 -7 -7 -97 -5 -105 3 -2
2 1 10 8 17 6 8 9 22 5 31 -18 46 36 100 60 60 6 -11 11 -28 11 -39 0 -16 8
-21 43 -23 23 -2 42 -7 42 -11 0 -4 -7 -30 -14 -57 -23 -77 -73 -275 -80 -316
-7 -36 -6 -37 16 -29 16 6 25 19 29 45 3 20 8 38 11 41 2 3 28 8 58 12 59 9
91 39 94 89 1 16 5 35 10 42 4 7 3 19 -4 27 -10 12 -9 16 4 21 9 3 14 10 11
14 -3 4 2 13 10 20 22 19 9 30 -38 31 l-42 2 50 7 c28 4 52 6 54 4 3 -3 -53
-232 -75 -307 -5 -15 -1 -18 18 -15 18 2 25 12 32 45 9 46 24 54 107 57 l46 1
-8 -30 c-12 -42 -12 -45 11 -45 13 0 21 9 25 28 10 47 21 57 67 62 25 3 53 12
62 19 19 16 21 4 7 -46 -5 -17 -7 -34 -4 -37 12 -11 32 8 39 37 9 46 22 57 64
57 46 0 97 35 80 55 -6 8 -24 16 -38 18 -25 4 -24 4 3 3 35 0 58 11 49 25 -3
5 -1 16 6 24 6 7 10 19 9 27 -1 7 4 27 11 43 25 60 19 7 -13 -123 -32 -123
-33 -132 -15 -132 12 0 18 7 18 23 0 12 4 28 9 35 13 22 61 42 97 42 40 0 42
5 12 32 -21 18 -20 18 9 -1 43 -29 71 -27 79 4 12 48 15 17 5 -41 -6 -31 -9
-59 -7 -61 11 -11 36 13 42 40 9 43 22 57 53 57 33 0 56 14 47 29 -4 6 0 18 8
27 20 19 21 58 2 73 -13 11 -12 15 5 32 10 10 19 28 19 38 0 11 2 26 5 33 4
10 -5 15 -31 16 -21 2 -41 5 -45 8 -9 5 9 73 23 92 14 16 38 -3 38 -29 0 -14
7 -19 30 -19 39 0 39 -2 -10 -185 -45 -170 -47 -188 -23 -183 11 2 20 18 26
44 7 39 11 43 53 53 38 10 44 15 39 31 -4 12 -2 20 4 20 20 0 11 20 -11 30
l-23 9 23 0 c17 1 27 11 38 37 8 20 13 43 9 52 -3 8 2 23 11 33 23 26 10 38
-36 32 -39 -6 -40 -5 -40 26 0 21 -5 31 -15 31 -8 0 -15 7 -15 16 0 11 6 14
20 9 12 -4 20 -2 20 5 0 22 34 5 40 -20 4 -18 14 -26 34 -28 25 -3 27 -6 21
-35 -3 -18 -10 -43 -15 -57 -5 -14 -20 -74 -35 -135 -14 -60 -28 -116 -31
-123 -2 -8 3 -12 12 -10 10 2 22 22 31 50 10 35 20 49 36 54 12 3 30 16 40 30
16 22 16 24 1 24 -13 0 -11 4 7 20 13 10 20 19 16 20 -5 0 -1 10 7 22 23 33
20 67 -6 78 l-23 9 23 0 c13 1 22 7 22 17 0 11 -8 15 -27 12 -25 -3 -27 0 -29
35 -2 27 1 37 12 37 8 0 14 -9 14 -20 0 -15 7 -20 29 -20 17 0 32 -4 35 -8 3
-5 -10 -65 -28 -134 -45 -167 -52 -212 -35 -206 8 2 20 25 28 51 12 38 20 49
40 53 46 9 56 20 57 59 1 20 7 41 14 45 17 11 3 30 -23 31 -20 1 -20 2 3 8
l25 7 -25 9 c-24 9 -24 9 10 15 22 3 36 11 38 23 3 14 -4 17 -37 17 -44 0 -46
3 -35 59 7 34 34 43 34 11 0 -14 7 -20 23 -20 29 0 51 -15 43 -28 -7 -11 -36
-117 -62 -227 -8 -33 -17 -68 -20 -77 -4 -12 0 -18 11 -18 16 0 32 31 38 77 3
22 14 33 49 50 38 18 47 28 52 56 4 19 4 41 1 49 -4 9 1 18 9 21 9 4 16 15 16
26 0 16 -8 21 -42 24 l-43 4 48 1 c34 1 47 6 44 15 -2 7 -18 11 -40 9 -34 -3
-37 -1 -37 22 0 16 -6 26 -15 26 -28 0 -15 17 17 24 35 7 38 5 42 -20 2 -10
14 -21 27 -24 13 -4 23 -13 23 -22 -1 -15 -44 -193 -65 -271 -6 -22 -8 -41 -5
-44 10 -11 36 7 36 24 0 10 5 34 10 54 8 30 17 38 50 49 22 7 39 18 37 24 -3
6 1 18 8 26 13 15 19 34 16 55 0 6 -18 10 -38 8 l-38 -2 43 11 c52 13 54 28 5
29 l-38 1 40 9 c68 16 76 45 11 41 -39 -3 -50 14 -32 49 15 31 46 38 46 10 0
-13 8 -21 23 -23 27 -4 27 -26 2 -113 -9 -33 -23 -89 -31 -124 -7 -35 -16 -73
-20 -83 -5 -15 -2 -19 13 -16 13 2 21 18 28 57 10 48 14 56 40 64 58 17 61 20
30 27 l-30 8 27 1 c16 1 32 9 38 20 14 28 13 31 -12 31 -13 0 -30 5 -38 11
-11 8 -6 9 22 6 40 -6 53 0 38 18 -8 9 -6 14 5 19 8 3 15 17 15 31 0 22 -4 25
-38 25 -38 0 -38 0 -34 35 5 38 21 47 29 15 4 -14 14 -20 34 -20 36 0 41 -9
28 -51 -39 -134 -69 -273 -61 -281 14 -14 27 14 41 84 12 54 14 57 44 60 19 2
31 8 29 16 -1 9 6 10 24 6 19 -5 30 -1 45 15 29 31 21 50 -38 90 -42 28 -53
41 -53 62 0 67 37 103 50 48 5 -19 13 -25 43 -27 35 -3 49 9 27 23 -17 11 -11
35 9 35 11 0 23 5 26 10 3 6 19 10 35 10 22 0 30 -6 39 -30 7 -23 16 -30 35
-30 15 0 26 -6 26 -12 0 -7 -18 -78 -39 -158 -22 -80 -38 -147 -36 -149 15
-15 33 17 44 80 15 81 44 119 92 119 44 0 81 21 76 42 -3 11 0 18 9 18 8 0 14
9 14 19 0 11 3 27 7 36 5 15 1 16 -38 10 -55 -9 -57 -11 -33 -31 17 -15 16
-15 -8 0 -15 9 -34 16 -42 16 -23 0 -29 19 -16 51 14 32 40 39 40 10 0 -14 9
-20 38 -23 45 -6 50 -3 33 23 -7 12 -11 22 -9 23 52 28 94 43 97 35 2 -6 -2
-15 -9 -19 -7 -4 -33 -91 -60 -194 -43 -168 -46 -186 -29 -186 14 0 19 11 24
48 3 26 10 57 16 70 5 13 9 36 9 51 0 32 30 64 63 66 12 1 37 -11 57 -28 19
-16 59 -42 90 -56 49 -23 67 -26 165 -26 102 0 114 2 169 30 132 67 213 188
223 334 l6 78 54 23 c159 66 266 263 235 432 -32 169 -151 291 -322 327 -30 7
-100 15 -154 18 l-99 6 39 31 c73 58 164 149 193 195 128 200 48 473 -167 574
-81 38 -208 49 -278 24 l-42 -14 -36 48 c-93 125 -264 182 -418 141z m77
-1638 c13 -49 35 -120 49 -159 14 -39 21 -71 16 -73 -6 -2 -10 -12 -10 -22 0
-11 -13 -25 -32 -34 -41 -21 -46 -20 -50 7 -4 29 -39 29 -53 0 -7 -12 -24 -32
-39 -44 -23 -18 -33 -20 -55 -13 -36 13 -37 40 -5 121 40 102 143 317 149 311
3 -3 16 -45 30 -94z m135 -324 c0 -5 -7 -10 -16 -10 -8 0 -12 5 -9 10 3 6 10
10 16 10 5 0 9 -4 9 -10z m-140 -24 c0 -3 -4 -8 -10 -11 -5 -3 -10 -1 -10 4 0
6 5 11 10 11 6 0 10 -2 10 -4z m-170 -20 c0 -11 -19 -15 -25 -6 -3 5 1 10 9
10 9 0 16 -2 16 -4z m-150 -26 c0 -5 -4 -10 -10 -10 -5 0 -10 5 -10 10 0 6 5
10 10 10 6 0 10 -4 10 -10z m305 0 c3 -5 1 -10 -4 -10 -6 0 -11 5 -11 10 0 6
2 10 4 10 3 0 8 -4 11 -10z m418 -10 c3 -11 1 -20 -4 -20 -5 0 -9 9 -9 20 0
11 2 20 4 20 2 0 6 -9 9 -20z m-40 -30 c3 -11 1 -20 -4 -20 -5 0 -9 9 -9 20 0
11 2 20 4 20 2 0 6 -9 9 -20z m-695 -7 c-4 -22 -22 -20 -26 1 -2 10 3 16 13
16 10 0 15 -7 13 -17z m532 -23 c0 -5 -5 -10 -11 -10 -5 0 -7 5 -4 10 3 6 8
10 11 10 2 0 4 -4 4 -10z m-1280 -20 c0 -5 -4 -10 -10 -10 -5 0 -10 5 -10 10
0 6 5 10 10 10 6 0 10 -4 10 -10z m-150 -20 c0 -5 -4 -10 -10 -10 -5 0 -10 5
-10 10 0 6 5 10 10 10 6 0 10 -4 10 -10z m-125 -10 c3 -5 -1 -10 -10 -10 -9 0
-13 5 -10 10 3 6 8 10 10 10 2 0 7 -4 10 -10z m515 0 c0 -5 -2 -10 -4 -10 -3
0 -8 5 -11 10 -3 6 -1 10 4 10 6 0 11 -4 11 -10z m-800 -35 c0 -8 -7 -15 -15
-15 -16 0 -20 12 -8 23 11 12 23 8 23 -8z m142 3 c-9 -9 -15 -9 -24 0 -9 9 -7
12 12 12 19 0 21 -3 12 -12z m258 -3 c0 -8 -4 -15 -10 -15 -5 0 -10 7 -10 15
0 8 5 15 10 15 6 0 10 -7 10 -15z m-570 -10 c0 -8 -4 -15 -10 -15 -5 0 -10 7
-10 15 0 8 5 15 10 15 6 0 10 -7 10 -15z m488 -13 c3 -17 10 -22 31 -22 15 0
30 -3 33 -6 3 -3 -1 -31 -9 -62 -48 -188 -44 -179 -63 -167 -8 5 -6 13 6 26
12 14 15 29 11 59 -3 23 -1 38 4 34 5 -3 9 -3 9 0 0 2 3 11 6 20 4 11 1 16
-10 16 -9 0 -16 -5 -16 -12 0 -6 -2 -9 -5 -6 -10 9 6 37 23 41 30 8 -61 6
-111 -2 -44 -7 -50 -6 -57 13 -7 16 -9 17 -9 4 -2 -39 -23 -64 -66 -77 -40
-12 -46 -11 -75 10 -25 19 -30 28 -24 49 3 14 7 34 8 45 1 27 30 26 34 -2 3
-17 11 -22 43 -25 48 -4 53 -1 34 26 -21 29 -19 36 9 36 14 0 28 5 31 10 11
17 23 2 18 -22 -4 -21 0 -23 42 -25 46 -2 46 -1 40 27 -5 22 -2 29 12 33 32 9
48 2 51 -21z m-660 7 c-2 -6 -8 -10 -13 -10 -5 0 -11 4 -13 10 -2 6 4 11 13
11 9 0 15 -5 13 -11z m-188 -9 c0 -5 -5 -10 -11 -10 -5 0 -7 5 -4 10 3 6 8 10
11 10 2 0 4 -4 4 -10z m-190 -9 c0 -6 -4 -13 -10 -16 -5 -3 -10 1 -10 9 0 9 5
16 10 16 6 0 10 -4 10 -9z m-2729 -17 c22 -11 29 -21 27 -37 -3 -19 -9 -22
-46 -21 -23 0 -45 3 -48 6 -6 6 23 68 32 68 3 0 19 -7 35 -16z m2525 5 c8 -13
-13 -29 -38 -29 -11 0 -18 8 -18 20 0 15 7 20 24 20 14 0 28 -5 32 -11z m912
-17 c2 -15 -2 -22 -12 -22 -11 0 -16 9 -16 26 0 31 23 28 28 -4z m-1160 -5 c2
-12 -3 -17 -17 -17 -15 0 -21 6 -21 21 0 25 33 22 38 -4z m874 1 c7 -13 11
-31 9 -40 -2 -15 6 -18 43 -18 56 0 57 -7 22 -130 -14 -47 -30 -105 -36 -129
-8 -32 -14 -41 -23 -32 -8 8 -8 14 1 23 17 17 16 51 -2 45 -8 -3 -17 1 -20 9
-3 9 1 14 13 14 20 0 48 27 38 36 -3 3 -22 1 -41 -6 -20 -6 -42 -9 -49 -7 -6
3 -2 6 11 6 12 1 30 10 39 21 10 11 25 20 35 20 10 0 18 7 18 15 0 12 -14 15
-62 17 l-63 2 55 3 c63 5 77 13 61 40 -6 10 -11 12 -11 6 0 -9 -17 -13 -50
-13 l-51 0 7 53 c11 85 31 109 56 65z m118 -9 c0 -20 -15 -26 -25 -9 -9 15 3
43 15 35 5 -3 10 -15 10 -26z m58 -1 c7 -30 12 -33 50 -36 34 -3 42 -7 42 -23
0 -20 -59 -240 -66 -248 -2 -3 -9 0 -16 7 -8 8 -6 15 6 28 23 22 14 28 -42 27
l-47 -1 47 8 c54 9 69 17 67 33 -1 7 3 26 10 42 10 24 10 35 -1 54 -18 34 -46
50 -57 33 -10 -17 -41 -4 -41 17 0 44 14 91 26 91 7 0 17 -15 22 -32z m-234
14 c2 -4 1 -14 -4 -21 -10 -17 -31 -5 -23 14 6 16 19 20 27 7z m1731 -2 c3 -6
-1 -7 -9 -4 -18 7 -21 14 -7 14 6 0 13 -4 16 -10z m-2785 -26 c0 -8 -7 -14
-15 -14 -15 0 -21 21 -9 33 10 9 24 -2 24 -19z m934 10 c3 -9 6 -24 6 -34 0
-15 9 -19 43 -22 36 -3 42 -6 42 -26 0 -22 -4 -23 -82 -28 -76 -4 -95 1 -76
20 4 4 8 25 8 47 1 39 15 58 41 59 7 0 15 -7 18 -16z m-2592 -19 c16 -35 0
-49 -36 -35 -20 7 -26 15 -22 26 3 9 6 20 6 25 0 20 41 8 52 -16z m312 9 c8
-22 8 -44 -1 -44 -20 1 -32 18 -26 38 6 26 18 29 27 6z m325 -12 c15 -28 -2
-46 -32 -36 -20 8 -23 13 -16 32 10 27 35 29 48 4z m275 2 c13 -33 4 -42 -22
-26 -7 5 -10 16 -6 25 8 21 20 22 28 1z m504 5 c-2 -6 -8 -10 -13 -10 -5 0
-11 4 -13 10 -2 6 4 11 13 11 9 0 15 -5 13 -11z m913 -12 c-13 -13 -26 -3 -16
12 3 6 11 8 17 5 6 -4 6 -10 -1 -17z m2066 17 c-3 -3 -12 -4 -19 -1 -8 3 -5 6
6 6 11 1 17 -2 13 -5z m-2247 -20 c0 -24 -25 -84 -35 -84 -17 0 -45 44 -45 70
0 17 6 20 40 20 22 0 40 -3 40 -6z m1336 -23 c-11 -21 -12 -31 -3 -40 8 -8 7
-11 -7 -11 -14 0 -17 5 -11 23 4 12 7 30 6 40 0 9 7 17 15 17 13 0 13 -4 0
-29z m541 23 c-3 -3 -12 -4 -19 -1 -8 3 -5 6 6 6 11 1 17 -2 13 -5z m-2152
-46 c-9 -39 -11 -42 -24 -33 -6 3 -11 19 -11 36 0 23 4 29 21 29 18 0 20 -4
14 -32z m1432 -15 c-3 -10 -5 -2 -5 17 0 19 2 27 5 18 2 -10 2 -26 0 -35z
m-1665 1 c-4 -34 -7 -38 -21 -29 -12 7 -15 48 -4 59 14 14 28 -2 25 -30z
m-242 -3 c0 -32 -14 -49 -25 -31 -9 15 3 60 15 60 6 0 10 -13 10 -29z m311 13
c7 -9 12 -29 11 -45 -2 -28 -2 -28 60 -31 63 -3 63 -3 61 -32 -3 -38 -7 -40
-35 -23 -27 17 -135 9 -147 -12 -6 -9 -10 -7 -14 8 -3 12 -1 24 4 27 6 3 7 14
4 24 -8 27 13 100 29 100 8 0 20 -7 27 -16z m2426 0 c-3 -3 -12 -4 -19 -1 -8
3 -5 6 6 6 11 1 17 -2 13 -5z m-520 -26 c-3 -8 -6 -5 -6 6 -1 11 2 17 5 13 3
-3 4 -12 1 -19z m-3619 -12 c7 -7 -7 -89 -19 -106 -15 -24 -59 35 -59 81 0 20
3 38 6 41 5 6 62 -7 72 -16z m82 -27 c28 -43 31 -54 22 -74 -6 -13 -8 -26 -4
-29 4 -2 40 -4 81 -5 41 0 78 -4 83 -9 5 -5 2 -37 -7 -74 l-17 -66 -41 0 c-39
-1 -41 0 -23 14 11 8 25 14 32 14 7 0 17 14 23 31 l11 31 -114 -5 c-63 -2
-118 -2 -124 2 -11 7 25 221 38 221 4 0 23 -23 40 -51z m226 36 c3 -8 0 -30
-6 -50 -10 -29 -14 -34 -26 -24 -8 6 -14 29 -14 50 0 33 3 39 20 39 11 0 23
-7 26 -15z m604 6 c0 -26 -14 -71 -22 -71 -12 0 -26 41 -20 62 4 18 42 26 42
9z m70 -27 c16 -24 21 -44 16 -65 -3 -16 -2 -29 2 -30 4 0 34 -2 67 -5 88 -7
86 -4 68 -71 -17 -67 -21 -73 -33 -53 -7 12 -12 11 -29 -4 -12 -11 -21 -14
-21 -8 0 7 4 12 10 12 13 0 71 80 65 90 -6 9 -97 0 -109 -11 -5 -4 -17 -4 -27
1 -12 7 -26 5 -46 -5 -25 -13 -28 -13 -34 3 -4 9 -2 25 3 35 5 10 7 25 4 32
-4 11 -1 29 20 103 6 21 22 13 44 -24z m194 -1 c-8 -45 -9 -47 -23 -38 -6 3
-11 22 -11 41 0 28 4 34 20 34 19 0 20 -4 14 -37z m-557 19 c9 -5 9 -18 0 -50
-13 -48 -19 -51 -41 -20 -16 23 -21 60 -9 71 8 9 35 9 50 -1z m2347 -11 c3 -5
-8 -11 -24 -13 -32 -5 -42 7 -12 15 28 8 31 7 36 -2z m185 -17 c14 -12 -19 -1
-35 12 -18 14 -18 14 6 3 14 -6 27 -13 29 -15z m168 4 c-3 -8 -6 -5 -6 6 -1
11 2 17 5 13 3 -3 4 -12 1 -19z m186 5 c-7 -2 -21 -2 -30 0 -10 3 -4 5 12 5
17 0 24 -2 18 -5z m-263 -38 c0 -5 -5 -3 -10 5 -5 8 -10 20 -10 25 0 6 5 3 10
-5 5 -8 10 -19 10 -25z m-165 -15 c18 -19 17 -20 -3 -20 -15 0 -20 6 -19 20 1
11 2 20 3 20 0 0 9 -9 19 -20z m-815 1 c0 -10 -30 -24 -37 -17 -3 3 -2 9 2 15
8 13 35 15 35 2z m483 -8 c-7 -2 -19 -2 -25 0 -7 3 -2 5 12 5 14 0 19 -2 13
-5z m214 1 c-3 -3 -12 -4 -19 -1 -8 3 -5 6 6 6 11 1 17 -2 13 -5z m660 0 c-3
-3 -12 -4 -19 -1 -8 3 -5 6 6 6 11 1 17 -2 13 -5z m-1578 -20 c-6 -7 -17 -10
-25 -7 -19 7 -8 22 16 20 14 -1 16 -5 9 -13z m1451 6 c0 -5 -10 -10 -22 -10
-19 0 -20 2 -8 10 19 13 30 13 30 0z m-1560 -35 c0 -5 -5 -3 -10 5 -5 8 -10
20 -10 25 0 6 5 3 10 -5 5 -8 10 -19 10 -25z m1308 16 c3 -8 -1 -12 -9 -9 -7
2 -15 10 -17 17 -3 8 1 12 9 9 7 -2 15 -10 17 -17z m-1023 -1 c-3 -5 -12 -10
-18 -10 -7 0 -6 4 3 10 19 12 23 12 15 0z m-207 -25 c-3 -3 -9 2 -12 12 -6 14
-5 15 5 6 7 -7 10 -15 7 -18z m-53 -5 c3 -5 1 -10 -4 -10 -6 0 -11 5 -11 10 0
6 2 10 4 10 3 0 8 -4 11 -10z m775 3 c-8 -3 -21 -12 -27 -21 -15 -19 -26 -11
-17 12 4 9 17 16 33 15 15 0 20 -3 11 -6z m-1195 -23 c10 -11 14 -20 9 -20 -5
0 -15 9 -22 20 -7 11 -11 20 -9 20 2 0 12 -9 22 -20z m389 -41 c-3 -5 -15 -8
-27 -8 -17 1 -18 2 -4 6 10 3 17 15 18 31 0 27 0 27 10 4 5 -13 7 -28 3 -33z
m226 37 c0 -2 -7 -7 -16 -10 -8 -3 -12 -2 -9 4 6 10 25 14 25 6z m609 0 c-2
-2 -15 -9 -29 -15 -24 -11 -24 -11 -6 3 16 13 49 24 35 12z m-731 -25 c3 -8
-1 -12 -9 -9 -7 2 -15 10 -17 17 -3 8 1 12 9 9 7 -2 15 -10 17 -17z m1079 13
c-3 -3 -12 -4 -19 -1 -8 3 -5 6 6 6 11 1 17 -2 13 -5z m-1596 -21 c13 -16 12
-17 -3 -4 -10 7 -18 15 -18 17 0 8 8 3 21 -13z m473 2 c3 -8 1 -15 -4 -15 -6
0 -10 7 -10 15 0 8 2 15 4 15 2 0 6 -7 10 -15z m416 11 c0 -2 -8 -10 -17 -17
-16 -13 -17 -12 -4 4 13 16 21 21 21 13z m-232 -25 c-7 -11 -16 -17 -22 -14
-5 3 -1 12 9 20 25 18 27 17 13 -6z m-1418 -1 c-8 -5 -19 -10 -25 -10 -5 0 -3
5 5 10 8 5 20 10 25 10 6 0 3 -5 -5 -10z m533 -47 c-3 -32 -10 -65 -15 -73 -6
-10 -7 3 -3 35 13 101 27 131 18 38z m1277 43 c0 -3 -4 -8 -10 -11 -5 -3 -10
-1 -10 4 0 6 5 11 10 11 6 0 10 -2 10 -4z m-2135 -16 c3 -6 -1 -7 -9 -4 -18 7
-21 14 -7 14 6 0 13 -4 16 -10z m381 1 c-8 -13 -143 -34 -157 -25 -19 12 29
25 65 19 17 -4 42 -2 56 4 32 13 43 13 36 2z m611 3 c-3 -3 -12 -4 -19 -1 -8
3 -5 6 6 6 11 1 17 -2 13 -5z m503 -9 c0 -8 -4 -17 -10 -20 -5 -3 -10 -1 -10
4 0 20 -20 11 -30 -13 -5 -13 -15 -28 -22 -32 -10 -6 -11 -5 -1 7 7 9 9 20 3
29 -13 20 5 37 40 38 19 0 30 -4 30 -13z m-755 -45 c-8 -23 -15 -56 -15 -73 0
-21 -3 -28 -10 -21 -7 7 -4 32 10 78 12 37 23 66 26 64 2 -3 -3 -24 -11 -48z
m-832 33 c-7 -2 -19 -2 -25 0 -7 3 -2 5 12 5 14 0 19 -2 13 -5z m1620 -13
c-10 -11 -19 -20 -21 -20 -1 0 2 9 8 20 6 11 15 20 20 20 6 0 2 -9 -7 -20z
m-2114 -29 c-15 -24 -6 -49 23 -61 13 -5 17 -9 9 -9 -34 -2 -67 60 -44 82 14
15 23 6 12 -12z m526 -9 c17 -16 37 -37 45 -47 14 -18 13 -19 -1 -8 -9 7 -18
10 -21 7 -3 -2 -20 9 -37 27 -25 24 -35 29 -44 20 -9 -9 -4 -18 23 -39 18 -15
43 -29 54 -32 33 -9 28 -26 -8 -26 -19 0 -33 3 -30 7 2 4 -11 20 -31 35 -33
25 -46 60 -28 77 14 15 49 5 78 -21z m288 13 c-4 -15 -36 -12 -41 3 -3 9 3 13
19 10 13 -1 23 -7 22 -13z m349 -21 c-23 -20 -47 -45 -53 -56 -10 -18 -9 -20
7 -14 15 6 13 1 -6 -19 -24 -26 -25 -27 -6 -41 19 -14 19 -14 -2 -14 -12 0
-22 6 -23 13 0 6 -4 3 -9 -8 -13 -30 -13 6 0 40 11 30 107 135 123 135 6 0 -8
-16 -31 -36z m631 0 c-30 -24 -41 -18 -24 15 7 13 17 17 32 14 20 -6 20 -7 -8
-29z m-1175 1 c-3 -3 -9 2 -12 12 -6 14 -5 15 5 6 7 -7 10 -15 7 -18z m266 0
c-9 -14 -19 -23 -22 -20 -5 4 26 45 35 45 2 0 -4 -11 -13 -25z m-494 -21 c0
-9 -7 -14 -17 -12 -25 5 -28 28 -4 28 12 0 21 -6 21 -16z m1201 -5 c9 -18 7
-25 -13 -46 -16 -15 -30 -21 -41 -17 -24 9 -21 22 5 26 26 3 37 36 16 49 -10
7 -9 9 4 9 10 0 22 -10 29 -21z m-1256 -27 c-3 -3 -11 0 -18 7 -9 10 -8 11 6
5 10 -3 15 -9 12 -12z m1458 3 c-3 -9 -8 -14 -10 -11 -3 3 -2 9 2 15 9 16 15
13 8 -4z m-1327 -31 c18 -14 18 -14 -6 -3 -31 14 -36 19 -24 19 6 0 19 -7 30
-16z m-316 -18 c0 -2 -8 -10 -17 -17 -16 -13 -17 -12 -4 4 13 16 21 21 21 13z
m60 -6 c0 -5 -6 -10 -14 -10 -8 0 -18 5 -21 10 -3 6 3 10 14 10 12 0 21 -4 21
-10z m1087 -12 c-3 -8 -6 -5 -6 6 -1 11 2 17 5 13 3 -3 4 -12 1 -19z m-807
-63 c0 -2 -10 -9 -22 -15 -22 -11 -22 -10 -4 4 21 17 26 19 26 11z"/>
<path d="M7992 1001 c-35 -6 -43 -20 -18 -36 18 -11 90 20 81 35 -7 11 -12 11
-63 1z"/>
<path d="M6475 2676 c-70 -31 -148 -156 -193 -311 -60 -204 -86 -421 -86 -715
0 -266 8 -313 55 -318 19 -2 33 4 47 23 34 43 42 111 36 288 -8 209 8 442 41
570 44 179 92 252 148 226 73 -33 94 -212 50 -429 -18 -89 -41 -138 -81 -167
-37 -27 -52 -83 -52 -197 l0 -85 73 25 c88 31 251 64 313 64 25 0 54 5 65 10
45 25 48 48 60 454 11 373 11 385 -8 418 -10 18 -32 37 -47 43 -24 8 -31 6
-46 -12 -22 -27 -27 -95 -36 -433 -4 -170 -10 -257 -18 -262 -10 -7 -116 -12
-116 -5 0 1 7 34 15 72 24 115 37 319 26 415 -19 163 -76 291 -145 324 -41 19
-61 20 -101 2z"/>
<path d="M7242 2533 c-40 -19 -89 -99 -98 -160 -8 -52 10 -107 43 -133 31 -24
39 -20 60 31 17 45 65 89 95 89 11 0 40 -19 63 -42 38 -38 44 -51 54 -113 14
-80 3 -205 -23 -266 -20 -47 -61 -96 -97 -114 -37 -20 -39 -20 -90 15 -51 35
-74 37 -89 11 -17 -33 -12 -113 10 -148 37 -62 148 -92 227 -62 73 27 150 141
179 266 21 88 20 258 -1 338 -37 143 -130 266 -222 293 -53 16 -71 15 -111 -5z"/>
<path d="M1958 2523 c-10 -2 -18 -13 -18 -22 0 -10 -3 -39 -6 -65 -5 -31 -3
-46 5 -46 6 0 11 4 11 9 0 5 16 33 35 62 19 30 35 57 35 61 0 8 -33 9 -62 1z"/>
<path d="M8259 2449 c-20 -22 -57 -80 -81 -128 l-43 -87 -67 4 c-55 4 -72 1
-101 -17 -98 -60 -157 -256 -157 -522 0 -101 2 -109 26 -138 15 -18 35 -31 49
-31 44 0 50 22 56 209 7 186 20 249 62 312 24 36 76 56 64 25 -29 -75 -41
-152 -42 -261 0 -112 2 -124 28 -178 31 -62 64 -87 117 -87 75 0 152 67 191
166 18 48 23 79 23 164 1 99 -1 109 -32 172 -18 36 -46 78 -63 92 -37 32 -37
33 46 172 36 59 65 113 65 120 0 19 -50 54 -78 54 -17 0 -38 -14 -63 -41z
m-27 -461 c19 -36 23 -59 23 -140 0 -83 -3 -101 -21 -125 -63 -84 -102 -4 -74
148 12 65 39 159 45 159 3 0 15 -19 27 -42z"/>
<path d="M9615 2438 c-24 -43 -29 -66 -29 -122 -1 -47 3 -70 12 -73 14 -5 57
83 67 140 8 40 -1 107 -14 107 -4 0 -21 -24 -36 -52z"/>
<path d="M9054 2305 c-11 -29 2 -130 21 -170 50 -102 71 18 22 128 -27 60 -34
67 -43 42z"/>
<path d="M3693 2064 c-32 -16 -37 -26 -33 -72 3 -35 -25 -69 -85 -103 -60 -34
-85 -62 -85 -95 0 -12 30 -66 66 -120 50 -77 64 -105 60 -124 -12 -51 -45
-249 -61 -360 -9 -63 -20 -133 -25 -155 -5 -22 -12 -65 -15 -96 l-7 -56 94
-17 c147 -26 238 -49 238 -59 0 -10 -57 -248 -145 -602 -25 -99 -45 -186 -45
-193 0 -17 139 -16 162 2 10 7 23 44 33 92 20 101 44 201 57 237 8 20 15 26
27 21 26 -11 66 -14 246 -20 l171 -5 2 24 c2 34 -21 98 -53 144 l-27 38 5 -30
c3 -16 8 -40 12 -52 4 -13 3 -23 -3 -23 -5 0 -12 18 -16 41 -7 43 -25 77 -65
123 l-26 30 33 -27 c19 -15 38 -27 44 -27 16 0 60 -38 48 -42 -6 -2 0 -19 13
-38 29 -43 47 -93 47 -131 0 -24 4 -29 24 -29 27 0 36 16 36 68 0 30 -8 44
-52 86 -30 28 -39 40 -21 28 38 -27 43 -27 43 -4 0 11 -10 24 -22 30 -18 8
-11 9 34 5 55 -6 58 -5 68 21 5 15 10 36 10 47 0 16 -5 19 -22 14 -16 -4 -12
0 10 15 23 14 32 26 28 36 -3 9 -6 20 -6 25 0 6 -27 9 -62 8 -35 -1 -100 2
-145 6 -72 7 -83 6 -89 -9 -3 -9 -13 -16 -21 -16 -13 0 -13 3 -3 15 11 13 5
15 -52 14 -35 -1 -74 2 -86 5 -13 5 -22 3 -22 -3 0 -6 1 -11 3 -11 2 0 56 -18
121 -40 158 -54 235 -53 321 2 l30 20 -30 -26 c-16 -14 -33 -26 -37 -26 -4 0
-5 -6 -2 -14 4 -10 -8 -16 -48 -20 -29 -4 -65 -9 -80 -12 -18 -4 -32 1 -47 17
-12 13 -35 23 -58 25 -56 6 -173 47 -173 62 0 6 -4 12 -10 12 -12 0 -14 57 -2
64 4 3 25 1 46 -4 l38 -8 -8 111 c-12 156 -10 251 8 327 9 36 23 101 32 145 9
44 21 94 25 110 5 17 12 47 15 67 6 32 14 41 60 68 84 48 88 98 5 61 -58 -27
-81 -26 -108 3 -19 21 -22 31 -16 72 4 27 11 66 17 88 15 60 6 70 -42 45 -22
-11 -57 -23 -78 -26 -32 -4 -44 0 -81 31 -24 20 -54 36 -67 36 -23 0 -24 3
-19 38 4 20 9 45 11 54 6 22 -38 68 -65 68 -11 0 -25 2 -33 5 -7 2 -28 -3 -45
-11z m189 -279 c14 -32 -5 -58 -36 -49 -30 9 -30 10 -16 44 15 36 36 39 52 5z
m195 -21 c-6 -37 -23 -64 -39 -64 -12 0 -1 69 14 88 20 23 31 13 25 -24z m41
-170 c29 -8 28 -16 -5 -31 -38 -18 -43 -16 -43 12 0 26 9 29 48 19z m10 -86
c-3 -7 -20 -62 -37 -123 -18 -60 -36 -114 -41 -118 -16 -17 -21 73 -9 148 8
54 17 78 28 82 9 2 23 8 31 13 22 13 33 12 28 -2z m-276 -80 c6 -17 -1 -38
-13 -38 -5 0 -9 11 -9 25 0 26 14 34 22 13z m403 -744 l50 -14 -45 5 c-25 3
-49 10 -54 16 -12 11 -12 11 49 -7z m100 6 c-3 -5 -16 -10 -28 -9 -20 1 -20 2
3 9 14 4 26 8 28 9 2 1 0 -3 -3 -9z m-330 -53 c12 -10 15 -16 6 -21 -6 -4 -9
-18 -5 -34 4 -21 3 -24 -5 -12 -10 13 -11 13 -11 0 -1 -12 -3 -12 -14 3 -18
23 -26 22 -27 -5 0 -13 -3 -17 -6 -11 -5 13 27 93 37 93 3 0 14 -6 25 -13z
m315 -73 c0 -2 -9 0 -20 6 -11 6 -20 13 -20 16 0 2 9 0 20 -6 11 -6 20 -13 20
-16z m-140 -44 c0 -6 -9 -2 -20 7 -11 10 -20 19 -20 21 0 1 9 -2 20 -8 11 -6
20 -15 20 -20z m-233 -32 c-3 -8 -6 -5 -6 6 -1 11 2 17 5 13 3 -3 4 -12 1 -19z
m138 4 c-3 -3 -11 0 -18 7 -9 10 -8 11 6 5 10 -3 15 -9 12 -12z m-19 -43 c3
-6 -5 -3 -20 6 -14 10 -26 19 -26 22 0 7 39 -17 46 -28z m141 9 c-3 -8 -6 -5
-6 6 -1 11 2 17 5 13 3 -3 4 -12 1 -19z m-232 -14 c9 -15 12 -23 6 -20 -11 7
-35 46 -28 46 3 0 12 -12 22 -26z m170 6 c10 -11 16 -20 13 -20 -3 0 -13 9
-23 20 -10 11 -16 20 -13 20 3 0 13 -9 23 -20z m-40 -30 c10 -11 16 -20 13
-20 -3 0 -13 9 -23 20 -10 11 -16 20 -13 20 3 0 13 -9 23 -20z m-181 -6 c5
-14 4 -15 -9 -4 -17 14 -19 20 -6 20 5 0 12 -7 15 -16z m280 -28 c-8 -44 -26
-42 -35 3 -6 31 -6 31 12 15 18 -16 19 -16 19 6 0 13 3 21 6 18 3 -3 2 -22 -2
-42z m62 8 c-3 -9 -6 -22 -6 -30 0 -8 -4 -14 -8 -14 -5 0 -7 14 -4 30 2 17 9
30 14 30 6 0 7 -7 4 -16z m-221 -14 c3 -5 2 -10 -4 -10 -5 0 -13 5 -16 10 -3
6 -2 10 4 10 5 0 13 -4 16 -10z"/>
<path d="M3100 1973 c0 -6 7 -19 16 -28 9 -9 19 -13 22 -10 3 3 -4 15 -16 28
-12 12 -22 16 -22 10z"/>
<path d="M3332 1650 c0 -14 2 -19 5 -12 2 6 2 18 0 25 -3 6 -5 1 -5 -13z"/>
<path d="M9403 1182 c-12 -48 -33 -132 -46 -187 -14 -55 -24 -102 -22 -104 2
-2 11 -1 19 2 9 4 17 27 22 63 5 40 14 65 29 80 13 13 20 26 16 30 -3 4 0 4 7
0 7 -4 21 -4 32 -1 38 12 52 135 15 135 -7 0 -16 -12 -18 -27 l-4 -28 -2 28
c0 15 -6 27 -12 27 -7 0 -9 12 -5 35 4 19 3 35 -1 35 -4 0 -18 -39 -30 -88z
m38 -95 c-17 -17 -24 -1 -9 22 11 18 14 19 16 5 2 -9 -1 -21 -7 -27z"/>
<path d="M9356 1182 c-3 -5 -17 -7 -31 -4 -29 5 -32 -8 -7 -31 25 -22 42 -21
42 2 0 11 5 21 12 23 9 3 9 6 1 11 -7 4 -14 3 -17 -1z"/>
<path d="M5362 741 c-10 -6 -7 -12 12 -24 35 -23 46 -21 46 8 0 19 -5 25 -22
25 -13 0 -29 -4 -36 -9z"/>
<path d="M3147 688 c-22 -50 -29 -98 -14 -98 8 0 20 27 29 65 16 70 10 85 -15
33z"/>
<path d="M3725 645 c-24 -7 -50 -25 -69 -49 -27 -32 -31 -46 -31 -97 0 -63 16
-80 26 -27 l6 33 2 -36 c1 -24 7 -39 17 -43 31 -12 41 -6 42 24 0 17 8 37 17
46 11 12 13 20 5 29 -7 9 -6 16 5 25 9 7 14 18 12 24 -2 6 2 24 10 40 19 37 7
46 -42 31z m5 -73 c-8 -3 -27 -19 -42 -35 -16 -16 -28 -25 -28 -19 0 15 71 74
79 66 3 -4 -1 -9 -9 -12z"/>
<path d="M6355 610 c-18 -34 -20 -54 -4 -44 8 5 8 1 0 -14 -15 -28 7 -42 26
-17 16 23 17 45 2 45 -7 0 -5 10 5 25 20 30 20 35 1 35 -8 0 -21 -13 -30 -30z"/>
<path d="M6857 614 c-9 -9 4 -35 14 -28 5 3 9 12 9 20 0 14 -12 19 -23 8z"/>
<path d="M5483 593 c-25 -25 -33 -88 -10 -81 17 6 39 55 35 81 l-3 22 -22 -22z"/>
<path d="M6815 590 c-3 -5 -1 -10 4 -10 6 0 11 5 11 10 0 6 -2 10 -4 10 -3 0
-8 -4 -11 -10z"/>
<path d="M4420 515 c-10 -18 -10 -29 -3 -36 7 -7 14 -1 22 22 13 38 13 39 3
39 -5 0 -15 -11 -22 -25z"/>
<path d="M5011 462 c-14 -26 -14 -52 -1 -52 17 0 35 49 23 61 -8 8 -14 5 -22
-9z"/>
<path d="M4532 428 c6 -18 28 -21 28 -4 0 9 -7 16 -16 16 -9 0 -14 -5 -12 -12z"/>
<path d="M4540 360 c0 -5 5 -10 10 -10 6 0 10 5 10 10 0 6 -4 10 -10 10 -5 0
-10 -4 -10 -10z"/>
</g>
</svg>
