<?xml version="1.0" standalone="no"?>
<!DOCTYPE svg PUBLIC "-//W3C//DTD SVG 20010904//EN"
 "http://www.w3.org/TR/2001/REC-SVG-20010904/DTD/svg10.dtd">
<svg version="1.0" xmlns="http://www.w3.org/2000/svg"
 width="1088.000000pt" height="360.000000pt" viewBox="0 0 1088.000000 360.000000"
 preserveAspectRatio="xMidYMid meet">

<g transform="translate(0.000000,360.000000) scale(0.100000,-0.100000)"
fill="#000000" stroke="none">
<path d="M975 3453 c-59 -31 -66 -42 -59 -93 6 -44 4 -50 -41 -111 -64 -86
-92 -151 -100 -234 -8 -78 4 -78 23 -1 11 44 67 123 94 134 15 6 8 -28 -13
-70 -12 -23 -22 -64 -23 -94 -3 -62 9 -63 19 -1 4 23 20 60 36 82 16 22 33 64
39 95 6 30 15 59 20 64 6 6 10 18 10 28 0 21 34 45 76 54 l30 6 68 -153 c37
-84 68 -162 69 -174 0 -11 5 -26 10 -32 5 -7 6 -20 3 -29 -4 -12 -2 -15 9 -10
22 8 19 -20 -6 -54 -18 -24 -21 -37 -15 -77 4 -26 7 -59 7 -72 -1 -32 14 -48
52 -57 l32 -8 -40 -6 -40 -5 25 -15 c14 -7 43 -17 65 -21 37 -6 38 -7 8 -8
-37 -1 -50 -16 -33 -36 16 -19 58 -19 90 0 43 25 51 28 57 21 4 -3 -10 -21
-31 -38 -20 -19 -55 -68 -77 -113 -23 -44 -38 -67 -34 -51 3 17 22 56 41 89
19 32 34 60 34 63 0 2 -13 4 -28 4 -32 0 -53 -16 -46 -35 3 -7 -2 -39 -10 -71
-20 -78 -3 -246 22 -230 4 2 7 -19 7 -47 0 -36 4 -51 12 -50 7 2 10 -4 7 -12
-7 -18 14 -111 33 -145 13 -24 14 -23 9 20 -15 126 -19 150 -28 150 -13 0 -6
43 8 47 6 2 15 -42 23 -119 15 -158 29 -236 47 -272 8 -16 14 -33 14 -38 0
-13 44 -108 50 -108 3 0 14 13 23 30 10 16 22 30 28 30 14 0 11 -17 -5 -23 -8
-3 -22 -19 -30 -35 -14 -27 -14 -32 2 -53 10 -13 24 -39 31 -56 15 -36 20 -39
41 -20 12 10 12 9 1 -6 -12 -15 -11 -24 4 -60 11 -23 35 -57 54 -76 19 -19 27
-32 18 -28 -15 6 -16 3 -7 -13 6 -11 17 -20 25 -20 8 0 12 -6 9 -13 -3 -8 4
-25 15 -38 19 -23 20 -23 21 -3 0 11 -6 26 -12 34 -7 8 -3 6 10 -4 18 -16 21
-26 16 -52 -5 -28 0 -37 38 -78 25 -25 43 -48 41 -50 -2 -2 7 -13 21 -24 15
-11 26 -24 26 -30 0 -5 34 -42 76 -81 67 -63 81 -71 118 -72 29 -2 33 -3 14
-6 -16 -2 -28 -6 -28 -9 0 -9 55 -53 66 -54 7 0 14 -6 17 -12 3 -7 22 -22 43
-33 22 -11 44 -25 49 -32 6 -7 41 -28 78 -48 l69 -37 26 23 27 24 -23 -27 -24
-26 36 -17 c41 -19 41 -19 50 13 8 25 -10 30 -34 10 -8 -7 -4 -1 9 15 14 15
30 27 37 27 19 0 46 54 33 67 -6 6 -1 17 13 30 l23 22 4 -42 c6 -62 5 -86 -3
-147 l-8 -55 47 -17 c46 -16 47 -16 55 5 8 20 9 20 9 -5 1 -21 6 -28 20 -28
10 0 32 -7 47 -15 16 -8 37 -15 46 -15 9 0 29 -6 44 -12 22 -10 28 -10 32 0 3
10 8 8 17 -5 8 -11 26 -18 44 -18 25 0 31 4 31 22 0 12 5 25 10 28 6 4 10 -8
10 -29 0 -20 5 -36 10 -36 6 0 10 24 10 53 0 44 6 62 29 95 16 22 36 43 43 48
7 4 3 -4 -8 -17 -38 -42 -55 -88 -52 -135 4 -55 21 -62 29 -11 3 21 11 48 18
61 14 25 71 63 71 47 0 -5 -9 -13 -21 -16 -46 -15 -80 -125 -43 -139 33 -13
44 -6 44 25 0 17 7 37 15 46 11 11 13 19 5 28 -7 9 -6 16 5 25 9 7 14 18 12
24 -2 6 2 24 10 39 18 36 10 49 -23 37 -14 -6 -30 -10 -36 -10 -20 0 3 15 39
25 48 13 55 51 11 57 -15 3 -28 1 -28 -4 0 -4 8 -8 18 -8 15 -1 15 -2 -2 -15
-11 -8 -25 -15 -30 -14 -6 0 -6 3 1 6 10 3 10 9 0 24 -6 10 -15 19 -20 19 -4
0 -5 -4 -2 -10 3 -5 -1 -10 -10 -10 -12 0 -14 4 -5 19 7 15 20 20 49 19 38 0
81 16 81 31 0 5 -32 12 -71 15 -40 4 -96 18 -126 31 -29 13 -60 22 -67 19 -8
-3 -17 -1 -21 5 -3 6 -13 11 -21 11 -11 0 -14 -6 -9 -22 5 -17 2 -15 -13 8
-14 22 -35 35 -76 48 -31 10 -68 19 -81 20 -12 0 -21 4 -19 7 7 12 -29 20 -40
9 -5 -5 -14 -10 -20 -10 -5 0 -2 6 9 13 14 11 15 16 5 22 -7 4 -41 -8 -84 -30
-81 -42 -79 -31 3 14 l54 29 -34 18 c-19 10 -43 24 -54 31 -11 7 -30 17 -41
22 -12 5 -24 15 -25 20 -2 6 -24 15 -49 20 -25 5 -34 9 -21 10 19 1 21 4 12
15 -7 8 -26 18 -42 21 -23 5 -28 11 -24 24 3 10 -1 24 -10 31 -22 18 -18 30
10 30 13 0 28 6 32 13 4 7 28 18 53 24 41 10 43 10 25 -4 -18 -14 -14 -14 45
-8 65 7 154 41 145 55 -2 4 7 12 20 18 29 13 33 32 8 33 -11 0 -6 6 14 15 43
18 49 34 57 139 7 84 6 91 -14 108 -21 18 -22 18 -37 0 -14 -17 -14 -17 -5 1
9 19 0 92 -16 124 -5 9 -7 23 -4 30 7 22 -18 60 -45 67 -13 3 -21 10 -18 15 8
12 -12 50 -26 50 -26 0 -98 61 -104 89 -3 16 -17 37 -30 45 -34 22 -38 20 -20
-14 8 -16 15 -35 15 -42 -1 -7 -10 7 -21 32 -12 27 -37 58 -63 78 -24 18 -55
43 -69 56 -51 48 -67 54 -121 51 -28 -1 -40 -1 -26 2 44 8 43 20 -3 52 -25 17
-49 31 -53 31 -3 0 -29 16 -56 36 -28 19 -52 33 -55 30 -3 -3 -16 8 -30 25
-14 16 -29 26 -35 23 -5 -3 -16 3 -24 15 -17 24 -34 28 -34 8 0 -8 -7 -14 -16
-14 -10 0 -14 7 -10 20 6 24 -18 51 -113 122 -61 45 -82 55 -115 56 -23 0 -34
3 -26 6 8 2 21 7 29 9 9 3 -1 16 -29 37 -24 17 -60 49 -81 70 -20 20 -45 37
-53 37 -9 0 -15 3 -14 8 4 14 -83 91 -98 85 -10 -4 -14 3 -14 28 0 20 -35 112
-90 235 -49 110 -90 206 -90 212 0 7 -4 12 -8 12 -11 0 -39 64 -47 108 -7 36
-23 40 -70 15z m389 -702 c-2 -3 -12 3 -22 13 -16 17 -16 18 5 5 12 -7 20 -15
17 -18z m46 -45 c0 -13 -8 -30 -17 -37 -16 -12 -17 -12 -5 2 16 21 6 47 -21
52 -15 3 -11 5 11 6 27 1 32 -2 32 -23z m-50 -56 c-8 -5 -22 -9 -30 -9 -10 0
-8 3 5 9 27 12 43 12 25 0z m103 -41 c-8 -8 -16 -8 -30 0 -16 9 -14 10 12 11
21 0 26 -3 18 -11z m189 -108 c4 -3 -15 -4 -43 -3 -34 3 -57 -1 -75 -13 -14
-9 -28 -14 -31 -12 -6 6 31 27 66 37 26 8 70 3 83 -9z m83 -88 c3 -13 3 -23
-2 -23 -4 0 -13 16 -19 36 -9 29 -9 33 1 22 7 -7 16 -23 20 -35z m-297 -3 c-7
-11 -17 -20 -22 -20 -5 0 -1 9 9 20 10 11 20 20 22 20 2 0 -2 -9 -9 -20z m139
14 c-3 -3 -12 -4 -19 -1 -8 3 -5 6 6 6 11 1 17 -2 13 -5z m64 -11 c13 -17 13
-17 -6 -3 -11 8 -22 16 -24 17 -2 2 0 3 6 3 6 0 17 -8 24 -17z m-86 -23 c21
-24 14 -27 -9 -4 -9 8 -20 13 -25 10 -12 -8 -4 -85 10 -102 9 -11 8 -14 0 -14
-7 0 -9 -4 -6 -10 3 -5 4 -10 0 -10 -9 0 -45 64 -45 81 0 18 37 69 49 69 4 0
16 -9 26 -20z m-172 -59 c-16 -27 -29 -48 -31 -46 -4 4 26 64 40 83 21 25 17
10 -9 -37z m357 44 c0 -14 -30 -63 -47 -76 -12 -10 -11 -5 5 15 12 16 22 37
22 47 0 11 5 19 10 19 6 0 10 -2 10 -5z m36 -32 c-8 -15 -15 -25 -16 -21 0 12
23 58 27 54 3 -2 -2 -17 -11 -33z m114 6 c0 -6 -4 -7 -10 -4 -5 3 -10 11 -10
16 0 6 5 7 10 4 6 -3 10 -11 10 -16z m-269 4 c8 6 6 3 -3 -8 -17 -19 -19 -19
-35 -1 -17 18 -17 18 3 8 15 -8 25 -8 35 1z m312 -40 c8 3 24 -13 40 -42 24
-40 25 -42 4 -18 -12 15 -28 27 -34 27 -26 0 -61 23 -56 36 4 11 9 12 19 3 8
-6 20 -9 27 -6z m-188 -22 c-3 -6 -11 -11 -16 -11 -5 0 -4 6 3 14 14 16 24 13
13 -3z m-80 -11 c-3 -5 -12 -10 -18 -10 -7 0 -6 4 3 10 19 12 23 12 15 0z m11
-35 c-11 -8 -29 -15 -40 -14 -15 0 -10 4 14 13 46 18 48 18 26 1z m-111 -5 c3
-5 2 -10 -4 -10 -5 0 -13 5 -16 10 -3 6 -2 10 4 10 5 0 13 -4 16 -10z m-50
-20 c-11 -5 -32 -9 -46 -9 -31 -1 -45 -16 -52 -51 -4 -21 -4 -20 -6 7 0 17 4
35 11 39 15 9 67 22 93 22 l20 1 -20 -9z m65 -77 c0 -7 -5 -13 -11 -13 -5 0
-7 4 -4 10 3 5 -1 23 -10 39 -8 17 -15 34 -15 38 1 12 39 -60 40 -74z m490 51
c0 -9 -28 -3 -46 11 -17 13 -16 14 14 4 17 -6 32 -13 32 -15z m-163 -36 c-3
-7 -5 -2 -5 12 0 14 2 19 5 13 2 -7 2 -19 0 -25z m-172 -28 c26 -29 15 -32
-15 -4 -13 13 -20 24 -14 24 6 0 19 -9 29 -20z m-185 -15 c0 -9 -64 -45 -80
-45 -8 0 6 11 30 24 25 13 46 24 48 25 1 0 2 -1 2 -4z m553 -12 c-7 -2 -21 -2
-30 0 -10 3 -4 5 12 5 17 0 24 -2 18 -5z m52 -13 c3 -6 -1 -7 -9 -4 -18 7 -21
14 -7 14 6 0 13 -4 16 -10z m-365 -16 c0 -2 -7 -4 -15 -4 -8 0 -15 4 -15 10 0
5 7 7 15 4 8 -4 15 -8 15 -10z m-223 -31 c-3 -10 -5 -4 -5 12 0 17 2 24 5 18
2 -7 2 -21 0 -30z m431 20 c-8 -10 -20 -27 -26 -38 -6 -11 -12 -15 -12 -9 0
12 38 64 47 64 3 0 -1 -8 -9 -17z m212 -83 c-5 -18 -14 -38 -21 -46 -13 -16
-89 -19 -89 -5 0 6 15 7 33 4 46 -7 67 16 68 75 0 38 2 43 9 25 5 -13 5 -35 0
-53z m-690 36 c0 -8 -4 -17 -9 -21 -12 -7 -24 12 -16 25 9 15 25 12 25 -4z
m747 -38 c-2 -13 -4 -5 -4 17 -1 22 1 32 4 23 2 -10 2 -28 0 -40z m-357 -10
c0 -30 -3 -39 -10 -28 -7 12 -13 12 -33 1 -14 -7 -31 -11 -39 -8 -7 3 -3 6 10
6 28 1 39 26 21 49 -11 13 -8 12 9 -2 23 -20 23 -20 29 2 8 34 13 26 13 -20z
m-233 10 c-3 -8 -6 -5 -6 6 -1 11 2 17 5 13 3 -3 4 -12 1 -19z m291 -23 c-3
-3 -9 2 -12 12 -6 14 -5 15 5 6 7 -7 10 -15 7 -18z m-446 -132 c-9 -45 -10
-42 -10 42 0 79 1 85 9 48 6 -25 6 -60 1 -90z m195 97 c28 -8 28 -8 3 -10 -14
-1 -35 -3 -47 -4 -24 -3 -31 8 -13 19 6 4 7 12 3 18 -4 8 -1 7 9 -1 9 -7 29
-17 45 -22z m66 3 c-7 -2 -19 -2 -25 0 -7 3 -2 5 12 5 14 0 19 -2 13 -5z m452
-13 c-3 -5 -12 -10 -18 -10 -7 0 -6 4 3 10 19 12 23 12 15 0z m90 -9 c3 -5 1
-12 -5 -16 -6 -4 -8 -10 -5 -15 3 -5 1 -11 -5 -15 -6 -4 -10 6 -10 24 0 30 13
41 25 22z m160 -9 c-3 -3 -11 0 -18 7 -9 10 -8 11 6 5 10 -3 15 -9 12 -12z
m-332 -19 c-7 -2 -19 -2 -25 0 -7 3 -2 5 12 5 14 0 19 -2 13 -5z m372 -3 c3
-6 -1 -7 -9 -4 -18 7 -21 14 -7 14 6 0 13 -4 16 -10z m-805 -13 c-42 -23 -70
-42 -70 -48 0 -4 10 -9 23 -13 15 -4 27 0 40 15 10 12 21 18 25 14 4 -4 1 -10
-5 -12 -7 -3 -13 -12 -13 -20 0 -12 -7 -14 -27 -10 -17 3 -36 0 -47 -9 -53
-38 -34 13 23 63 20 18 45 32 56 33 17 0 17 -2 -5 -13z m103 6 c-13 -2 -33 -2
-45 0 -13 2 -3 4 22 4 25 0 35 -2 23 -4z m-361 -45 c-8 -8 -9 -4 -5 13 4 13 8
18 11 10 2 -7 -1 -18 -6 -23z m416 -21 c18 7 17 5 -10 -16 -16 -12 -19 -10
-28 14 -9 25 -14 27 -48 21 l-37 -5 35 13 c33 13 36 12 53 -10 12 -15 24 -21
35 -17z m74 13 c18 -16 27 -30 21 -30 -7 0 -13 5 -13 10 0 6 -15 19 -32 30
-18 11 -27 20 -21 20 7 0 27 -13 45 -30z m423 14 c12 -5 14 -9 4 -14 -9 -6 -3
-17 22 -39 44 -40 30 -40 -16 0 -19 17 -35 37 -35 45 0 16 2 16 25 8z m-795
-35 c0 -5 -4 -9 -10 -9 -5 0 -10 7 -10 16 0 8 5 12 10 9 6 -3 10 -10 10 -16z
m855 11 c13 -6 15 -9 5 -9 -8 0 -22 4 -30 9 -18 12 -2 12 25 0z m171 -21 c3
-6 -5 -3 -20 6 -14 10 -26 19 -26 22 0 7 39 -17 46 -28z m-675 4 c13 -16 12
-17 -3 -4 -10 7 -18 15 -18 17 0 8 8 3 21 -13z m394 -101 c-5 -6 -25 71 -24
93 0 11 7 -5 14 -35 7 -30 12 -57 10 -58z m-205 72 c0 -2 -9 0 -20 6 -11 6
-20 13 -20 16 0 2 9 0 20 -6 11 -6 20 -13 20 -16z m407 20 c-3 -3 -12 -4 -19
-1 -8 3 -5 6 6 6 11 1 17 -2 13 -5z m-547 -37 c0 -5 -4 -5 -10 -2 -5 3 -10 14
-10 23 0 15 2 15 10 2 5 -8 10 -19 10 -23z m205 23 c3 -6 -1 -7 -9 -4 -18 7
-21 14 -7 14 6 0 13 -4 16 -10z m380 0 c3 -6 -1 -7 -9 -4 -18 7 -21 14 -7 14
6 0 13 -4 16 -10z m-643 -22 c-7 -7 -12 -8 -12 -2 0 6 3 14 7 17 3 4 9 5 12 2
2 -3 -1 -11 -7 -17z m-297 -28 c7 0 18 7 25 15 7 9 15 13 17 11 3 -2 -5 -14
-17 -26 -17 -17 -24 -19 -36 -9 -21 17 -18 -13 6 -61 11 -22 20 -43 20 -47 -1
-4 -12 14 -26 40 -19 38 -24 56 -18 80 5 21 9 26 12 15 2 -10 9 -18 17 -18z
m754 4 c-9 -11 -8 -18 2 -31 13 -16 12 -17 -3 -4 -23 17 -25 63 -3 55 12 -5
13 -10 4 -20z m134 9 c-7 -2 -21 -2 -30 0 -10 3 -4 5 12 5 17 0 24 -2 18 -5z
m-494 -36 l25 -32 -32 29 c-33 31 -37 36 -24 35 4 0 18 -14 31 -32z m606 3
c33 -63 5 -93 -66 -71 -31 10 -31 10 -5 7 17 -2 36 -2 43 1 18 7 17 23 -1 23
-8 0 -18 4 -21 10 -3 5 0 8 7 5 7 -3 19 -1 27 4 10 7 11 13 2 30 -7 11 -9 21
-7 21 3 0 12 -13 21 -30z m-385 -30 c30 -43 18 -37 -16 7 -15 20 -23 33 -16
29 6 -3 21 -20 32 -36z m-274 3 c-10 -10 -19 5 -10 18 6 11 8 11 12 0 2 -7 1
-15 -2 -18z m-284 -18 c2 -13 11 -20 25 -20 12 0 25 -3 29 -7 4 -5 -9 -8 -28
-8 -33 0 -36 2 -40 35 -4 36 7 36 14 0z m240 3 c-13 -7 -26 -24 -29 -40 -3
-17 -12 -28 -22 -27 -10 0 -11 2 -3 6 6 2 12 11 12 19 0 18 36 54 53 53 6 0 2
-5 -11 -11z m448 -13 c13 -14 21 -25 18 -25 -2 0 -15 11 -28 25 -13 14 -21 25
-18 25 2 0 15 -11 28 -25z m-785 -21 c18 -43 19 -54 4 -54 -5 0 -8 4 -5 9 3 5
-1 25 -9 45 -8 20 -13 36 -10 36 2 0 12 -16 20 -36z m623 24 c7 -7 12 -16 12
-20 0 -11 -23 -6 -32 7 -18 24 -1 34 20 13z m96 -4 c3 -8 2 -12 -4 -9 -6 3
-10 10 -10 16 0 14 7 11 14 -7z m-284 -9 c15 -18 51 -20 68 -3 9 9 15 9 25 -1
10 -10 8 -11 -7 -5 -16 6 -18 3 -14 -24 2 -18 1 -32 -4 -32 -4 0 -8 9 -8 20 0
14 -7 20 -24 20 -13 0 -29 7 -36 15 -7 8 -16 12 -21 9 -5 -3 -9 0 -9 5 0 16
16 13 30 -4z m483 -2 c-7 -2 -19 -2 -25 0 -7 3 -2 5 12 5 14 0 19 -2 13 -5z
m-686 -19 c-3 -3 -12 -4 -19 -1 -8 3 -5 6 6 6 11 1 17 -2 13 -5z m153 2 c0 -2
-9 -6 -20 -9 -11 -3 -20 -1 -20 4 0 5 9 9 20 9 11 0 20 -2 20 -4z m181 -18
c11 -21 11 -22 -4 -9 -10 7 -17 17 -17 22 0 15 9 10 21 -13z m-371 -9 c0 -14
-16 -11 -29 5 -10 12 -8 13 8 9 12 -3 21 -9 21 -14z m434 -14 c5 -22 4 -26 -4
-15 -5 8 -10 24 -10 34 0 26 6 18 14 -19z m104 -7 c1 -51 -6 -78 -19 -78 -13
0 -11 61 4 93 6 15 13 27 13 27 1 0 2 -19 2 -42z m-658 7 c0 -8 -4 -15 -10
-15 -5 0 -7 7 -4 15 4 8 8 15 10 15 2 0 4 -7 4 -15z m264 -24 c-4 -17 -9 -30
-11 -27 -3 2 -2 19 2 36 4 17 9 30 11 27 2 -2 1 -18 -2 -36z m758 6 c4 -6 7
-28 6 -47 l-1 -35 -4 38 c-4 39 -33 55 -33 18 0 -11 -9 -23 -20 -26 -11 -3
-20 -13 -20 -21 0 -8 -4 -14 -8 -14 -5 0 -14 -11 -20 -25 -6 -14 -18 -25 -27
-25 -12 0 -10 9 11 41 14 22 23 47 20 55 -4 10 2 14 19 14 15 0 25 6 25 15 0
12 -12 14 -75 8 -52 -4 -75 -3 -75 5 0 23 187 23 202 -1z m-514 -6 c-2 -10
-12 -15 -26 -13 -15 2 -22 -2 -22 -13 0 -9 -5 -13 -10 -10 -8 5 -7 11 0 20 7
8 10 18 7 22 -3 4 8 8 24 9 23 1 29 -3 27 -15z m-476 -8 c-19 -9 -36 -24 -40
-32 -8 -23 -42 -54 -50 -46 -4 3 1 11 11 16 9 6 17 15 17 21 0 20 45 56 70 57
23 0 22 -1 -8 -16z m98 -3 c20 -6 21 -8 5 -8 -11 0 -31 4 -45 8 -20 6 -21 8
-5 8 11 0 31 -4 45 -8z m477 -12 c-3 -8 -6 -5 -6 6 -1 11 2 17 5 13 3 -3 4
-12 1 -19z m190 16 c-3 -3 -12 -4 -19 -1 -8 3 -5 6 6 6 11 1 17 -2 13 -5z
m-578 -25 c17 -6 31 -15 31 -20 0 -12 -2 -12 -51 11 -47 21 -33 27 20 9z m596
1 c-3 -5 -18 -10 -33 -9 -24 0 -25 1 -7 9 28 12 47 12 40 0z m43 -2 c-6 -18
-28 -21 -28 -4 0 9 7 16 16 16 9 0 14 -5 12 -12z m-368 -38 c-10 -18 -13 -19
-25 -6 -21 20 -19 28 5 21 15 -5 20 -2 21 12 0 10 3 13 5 6 3 -7 0 -21 -6 -33z
m106 10 c8 0 14 -9 14 -20 0 -28 -19 -25 -30 6 -10 25 -13 50 -3 27 2 -7 11
-13 19 -13z m128 -40 c-36 -72 -16 -94 40 -42 l31 27 -29 -32 c-27 -30 -63
-42 -79 -27 -10 10 44 124 59 124 2 0 -8 -23 -22 -50z m257 19 c-5 -13 -10
-19 -10 -12 -1 15 10 45 15 40 3 -2 0 -15 -5 -28z m-777 -61 c-3 -4 -16 -8
-29 -8 -13 0 -30 -9 -38 -20 -11 -16 -21 -19 -42 -14 -18 4 -30 2 -36 -7 -6
-10 -11 -11 -19 -3 -14 14 32 28 60 19 13 -4 22 1 30 15 6 12 21 20 35 20 21
0 25 5 26 33 l1 32 8 -29 c5 -16 7 -33 4 -38z m35 33 c-15 -5 -22 6 -14 19 6
9 10 9 16 -1 5 -8 4 -15 -2 -18z m66 9 c3 -5 2 -10 -4 -10 -5 0 -13 5 -16 10
-3 6 -2 10 4 10 5 0 13 -4 16 -10z m-327 -31 c-3 -8 -7 -3 -11 10 -4 17 -3 21
5 13 5 -5 8 -16 6 -23z m422 21 c0 -5 -10 -10 -22 -10 -19 0 -20 2 -8 10 19
13 30 13 30 0z m-80 -29 c0 -5 8 -12 18 -15 9 -3 -6 -3 -35 0 -50 5 -53 4 -96
-35 -24 -23 -50 -41 -58 -40 -11 0 -11 2 1 6 8 3 31 21 52 40 20 19 51 39 70
43 46 11 48 11 48 1z m123 -7 c-3 -8 -12 -13 -20 -10 -8 3 -24 7 -36 7 -19 1
3 8 55 18 4 0 5 -6 1 -15z m459 -16 c-6 -6 -15 -8 -19 -4 -4 4 -1 11 7 16 19
12 27 3 12 -12z m-68 3 c3 -4 -6 -13 -20 -20 -35 -16 -40 -14 -19 9 20 22 31
25 39 11z m-333 -14 c-1 -4 -1 -14 -1 -22 0 -8 -7 -15 -16 -15 -11 0 -14 5
-10 16 3 9 6 20 6 26 0 5 5 8 11 6 6 -2 10 -7 10 -11z m152 -7 c3 -11 1 -20
-4 -20 -5 0 -9 9 -9 20 0 11 2 20 4 20 2 0 6 -9 9 -20z m257 -10 c-8 -5 -19
-10 -25 -10 -5 0 -3 5 5 10 8 5 20 10 25 10 6 0 3 -5 -5 -10z m-53 -16 c-3 -3
-12 -4 -19 -1 -8 3 -5 6 6 6 11 1 17 -2 13 -5z m-750 -12 c6 -4 -10 -7 -35 -8
-32 -1 -41 1 -27 7 26 10 47 10 62 1z m483 -7 c-7 -8 -16 -12 -21 -9 -13 8 -1
24 18 24 13 0 13 -3 3 -15z m217 9 c-3 -3 -12 -4 -19 -1 -8 3 -5 6 6 6 11 1
17 -2 13 -5z m-403 -45 c-3 -5 -10 -7 -15 -3 -5 3 -7 10 -3 15 3 5 10 7 15 3
5 -3 7 -10 3 -15z m63 -1 c-3 -8 -6 -5 -6 6 -1 11 2 17 5 13 3 -3 4 -12 1 -19z
m-200 6 c-3 -3 -12 -4 -19 -1 -8 3 -5 6 6 6 11 1 17 -2 13 -5z m286 -14 c-3
-12 -8 -19 -11 -16 -5 6 5 36 12 36 2 0 2 -9 -1 -20z m327 10 c-34 -11 -60
-11 -35 0 11 5 29 8 40 8 16 0 15 -2 -5 -8z m-655 -10 c3 -5 -3 -10 -14 -10
-11 0 -23 5 -26 10 -3 6 3 10 14 10 11 0 23 -4 26 -10z m109 -1 c23 -11 54
-64 44 -75 -3 -2 -19 11 -36 31 -17 19 -36 35 -42 35 -5 0 -10 5 -10 10 0 13
13 13 44 -1z m233 -98 c3 -22 1 -41 -4 -41 -11 0 -34 81 -26 93 10 16 24 -10
30 -52z m-107 5 c0 -2 -18 -6 -40 -8 -22 -2 -40 0 -40 4 0 5 18 8 40 8 22 0
40 -2 40 -4z m-173 -12 c-3 -3 -12 -4 -19 -1 -8 3 -5 6 6 6 11 1 17 -2 13 -5z
m178 -35 c11 -17 -1 -21 -15 -4 -8 9 -8 15 -2 15 6 0 14 -5 17 -11z m-98 -5
c-3 -3 -12 -4 -19 -1 -8 3 -5 6 6 6 11 1 17 -2 13 -5z m296 -51 c-7 -2 -19 -2
-25 0 -7 3 -2 5 12 5 14 0 19 -2 13 -5z m-176 -35 c-3 -8 -6 -5 -6 6 -1 11 2
17 5 13 3 -3 4 -12 1 -19z m-177 8 c0 -3 -4 -8 -10 -11 -5 -3 -10 -1 -10 4 0
6 5 11 10 11 6 0 10 -2 10 -4z m80 -6 c0 -5 -4 -10 -10 -10 -5 0 -10 5 -10 10
0 6 5 10 10 10 6 0 10 -4 10 -10z m90 -25 c0 -12 -19 -12 -23 0 -4 9 -1 12 9
8 7 -3 14 -7 14 -8z m-106 -30 c3 -9 0 -15 -9 -15 -9 0 -12 6 -9 15 4 8 7 15
9 15 2 0 5 -7 9 -15z m455 12 c-2 -1 -13 -9 -24 -17 -19 -14 -19 -14 -6 3 7 9
18 17 24 17 6 0 8 -1 6 -3z m-97 -40 c-12 -13 -20 -26 -17 -29 9 -9 -33 -40
-45 -33 -6 4 -2 14 12 26 18 16 20 22 9 26 -10 4 -8 9 10 19 40 22 56 17 31
-9z m-177 -17 c3 -5 -4 -6 -15 -3 -11 3 -22 9 -25 13 -3 5 4 6 15 3 11 -3 22
-9 25 -13z m65 10 c-8 -5 -22 -9 -30 -9 -10 0 -8 3 5 9 27 12 43 12 25 0z
m-232 -7 c-10 -2 -26 -2 -35 0 -10 3 -2 5 17 5 19 0 27 -2 18 -5z m377 -83
c-3 -5 -16 -15 -28 -21 -19 -9 -19 -8 3 10 28 23 34 26 25 11z m-70 -46 c-24
-19 -111 -64 -122 -64 -8 0 127 78 137 79 3 0 -4 -7 -15 -15z m263 -4 c-7 -10
-14 -17 -17 -15 -4 4 18 35 25 35 2 0 -1 -9 -8 -20z m362 -44 c24 -11 29 -15
15 -16 -23 0 -95 55 -95 73 0 7 10 0 23 -15 12 -15 38 -34 57 -42z m-753 34
c-14 -11 -28 -20 -32 -20 -10 0 38 39 49 40 5 0 -3 -9 -17 -20z m153 -15 c-7
-8 -17 -15 -23 -15 -6 0 -2 7 9 15 25 19 30 19 14 0z m291 -58 c-10 -9 -11 -8
-5 6 3 10 9 15 12 12 3 -3 0 -11 -7 -18z m134 13 c16 -7 11 -9 -20 -9 -29 -1
-36 2 -25 9 17 11 19 11 45 0z m58 -7 c-7 -2 -19 -2 -25 0 -7 3 -2 5 12 5 14
0 19 -2 13 -5z m147 -10 c3 -3 -4 -11 -14 -19 -17 -12 -22 -12 -36 1 -9 8 -22
15 -29 15 -7 0 -10 4 -6 9 5 9 74 4 85 -6z m-340 -33 c0 -5 -5 -10 -11 -10 -5
0 -7 5 -4 10 3 6 8 10 11 10 2 0 4 -4 4 -10z m21 -23 c-10 -9 -11 -8 -5 6 3
10 9 15 12 12 3 -3 0 -11 -7 -18z m197 12 c29 0 33 -2 17 -8 -20 -8 -72 2 -84
15 -3 4 2 4 12 1 10 -4 35 -7 55 -8z m157 2 c17 -1 15 -4 -11 -20 -36 -22 -73
-71 -75 -98 -1 -17 -2 -17 -6 1 -5 18 -6 18 -25 -5 l-20 -24 19 35 c10 19 28
47 41 61 15 17 20 29 13 33 -6 4 -15 5 -19 2 -5 -3 -9 0 -9 7 0 11 26 13 92 8z
m-235 -39 c0 -4 -14 -8 -31 -8 -32 -1 -32 -1 -8 11 23 13 39 11 39 -3z m-110
-13 c0 -6 -4 -7 -10 -4 -5 3 -10 11 -10 16 0 6 5 7 10 4 6 -3 10 -11 10 -16z
m178 2 c-7 -11 -15 -18 -20 -15 -11 7 3 34 18 34 12 0 12 -4 2 -19z m-48 -19
c0 -5 -11 -19 -25 -32 -28 -27 -36 -8 -8 22 17 19 33 24 33 10z m-73 -28 c-3
-3 -12 -4 -19 -1 -8 3 -5 6 6 6 11 1 17 -2 13 -5z m113 -9 c4 3 6 -4 3 -16 -4
-16 -8 -18 -14 -7 -7 11 -11 10 -19 -2 -14 -22 -12 -3 2 20 7 11 14 16 16 10
2 -6 7 -8 12 -5z m-13 -67 c-3 -8 -6 -5 -6 6 -1 11 2 17 5 13 3 -3 4 -12 1
-19z m59 -26 c-12 -11 -18 7 -10 30 l8 23 4 -23 c2 -13 1 -26 -2 -30z"/>
<path d="M5459 3421 c-114 -37 -179 -107 -179 -195 0 -58 17 -99 64 -155 59
-70 70 -97 55 -133 -13 -32 -74 -67 -115 -68 -11 0 -23 -3 -27 -6 -8 -8 56
-136 76 -152 35 -30 187 49 235 121 23 35 27 51 27 117 l0 76 -62 84 c-35 46
-63 94 -63 106 0 44 45 71 109 65 12 -1 21 2 20 6 -2 4 -17 41 -34 80 -16 40
-34 73 -40 72 -5 0 -35 -8 -66 -18z"/>
<path d="M3264 3082 c-1 -235 2 -339 10 -344 13 -9 131 -10 161 -2 19 5 20 14
20 345 l1 339 -96 0 -95 0 -1 -338z"/>
<path d="M3860 3413 l-35 -4 0 -337 0 -337 95 0 95 0 -4 118 -3 117 38 0 c22
0 44 -4 51 -8 6 -4 30 -54 52 -112 23 -57 47 -107 53 -112 18 -11 176 -10 183
1 3 5 -20 64 -50 130 -30 66 -55 124 -55 129 0 4 16 24 36 43 48 45 64 85 64
159 0 75 -16 116 -63 157 -57 50 -118 63 -281 61 -78 -1 -157 -3 -176 -5z
m283 -145 c35 -18 46 -40 47 -90 0 -39 -4 -50 -27 -68 -22 -17 -38 -20 -92
-18 l-66 3 -3 70 c-5 110 -2 115 64 115 30 0 65 -5 77 -12z"/>
<path d="M4724 3082 c-1 -235 2 -339 10 -344 13 -9 131 -10 161 -2 19 5 20 14
20 345 l1 339 -96 0 -95 0 -1 -338z"/>
<path d="M5954 3075 l0 -346 95 3 95 3 0 135 1 135 128 3 127 3 0 -141 0 -140
98 0 97 0 0 345 0 345 -98 0 -98 0 3 -122 3 -123 -134 -3 -134 -3 5 126 6 125
-97 0 -97 0 0 -345z"/>
<path d="M9498 3312 c-125 -34 -233 -134 -275 -255 -23 -68 -23 -186 1 -304
14 -69 23 -94 36 -98 10 -3 30 -17 45 -31 l28 -25 36 34 c62 59 95 72 201 74
52 1 113 7 135 14 160 48 346 -126 362 -341 9 -111 -54 -252 -144 -326 -63
-51 -233 -164 -247 -164 -25 0 -38 27 -31 62 5 21 35 61 90 118 166 172 217
298 165 401 -19 37 -70 79 -97 79 -8 0 -9 -10 -1 -37 16 -60 6 -161 -24 -226
-31 -67 -119 -164 -166 -184 -30 -12 -37 -12 -58 2 -35 22 -55 58 -75 133 -23
81 -25 199 -4 249 20 47 19 50 -6 27 -40 -36 -56 -85 -62 -189 -7 -122 -21
-167 -50 -163 -31 4 -56 55 -71 144 -8 44 -20 93 -26 109 -15 40 -49 75 -72
75 -17 0 -17 -2 -3 -30 28 -55 45 -153 45 -270 0 -136 -9 -176 -51 -216 -25
-24 -39 -29 -78 -29 -65 0 -117 36 -156 106 -28 51 -30 61 -30 164 0 61 3 125
7 144 11 49 -14 25 -42 -42 -18 -40 -23 -71 -23 -134 0 -73 4 -90 32 -147 37
-75 94 -130 191 -184 114 -62 121 -69 118 -110 -5 -56 -39 -68 -150 -54 -152
19 -260 87 -307 192 -122 278 56 740 282 729 32 -2 52 3 76 20 17 13 52 26 77
29 l46 7 -83 54 c-145 96 -245 124 -362 101 -228 -44 -370 -267 -313 -490 9
-36 28 -82 41 -102 31 -46 31 -46 1 -77 -14 -15 -36 -48 -49 -76 -133 -266 60
-575 358 -575 79 0 146 20 266 80 102 52 291 174 323 209 35 39 36 21 2 -41
-45 -83 -109 -235 -157 -372 -33 -97 -42 -113 -67 -123 -16 -7 -39 -9 -51 -6
-20 5 -22 10 -16 42 4 20 4 33 0 29 -4 -4 -29 -91 -55 -193 -43 -167 -46 -185
-29 -185 14 0 19 11 24 47 4 27 11 61 16 77 5 16 9 39 9 51 0 26 31 57 62 60
13 2 28 4 33 6 6 1 19 -1 30 -6 11 -4 34 -14 52 -21 l32 -12 15 46 c9 25 17
59 17 76 1 18 3 24 6 13 3 -10 12 -17 21 -15 21 4 28 28 8 28 -9 0 -16 4 -16
8 0 28 103 280 165 401 41 82 44 82 65 -9 23 -98 81 -252 132 -353 64 -125
129 -196 216 -239 63 -31 72 -33 177 -33 102 0 114 2 169 30 132 67 213 188
223 334 l6 78 54 23 c71 29 152 105 191 177 128 242 -7 525 -278 582 -30 7
-100 15 -154 18 l-99 6 39 31 c73 58 164 149 193 195 128 200 48 473 -167 574
-81 38 -208 49 -278 24 l-42 -14 -36 48 c-93 125 -264 182 -418 141z m-205
-2072 c3 -11 1 -20 -4 -20 -5 0 -9 9 -9 20 0 11 2 20 4 20 2 0 6 -9 9 -20z
m-163 -30 c0 -5 -5 -10 -11 -10 -5 0 -7 5 -4 10 3 6 8 10 11 10 2 0 4 -4 4
-10z"/>
<path d="M6475 2677 c-132 -60 -230 -338 -271 -767 -18 -195 -14 -467 8 -535
11 -35 17 -40 43 -40 25 0 34 7 55 45 25 45 25 47 22 255 -4 268 9 442 43 581
43 178 90 249 148 223 58 -26 85 -151 68 -313 -18 -160 -41 -234 -89 -276 -49
-43 -62 -85 -62 -201 l0 -86 86 28 c94 32 232 59 301 59 24 0 53 5 64 10 45
25 48 48 60 454 11 373 11 386 -8 418 -10 18 -32 37 -47 43 -24 8 -31 6 -46
-13 -21 -25 -25 -85 -38 -462 l-7 -235 -64 -3 -64 -3 7 33 c45 209 52 440 18
570 -26 95 -50 144 -94 186 -40 38 -89 49 -133 29z"/>
<path d="M7255 2536 c-68 -30 -125 -144 -111 -221 8 -40 59 -101 76 -90 6 4
17 23 26 43 19 47 62 92 88 92 34 0 85 -43 108 -90 18 -37 22 -62 22 -145 -1
-131 -20 -198 -77 -261 -54 -59 -95 -65 -146 -21 -58 49 -91 29 -91 -55 0 -91
72 -158 171 -158 62 0 89 11 139 56 84 76 130 211 130 384 0 223 -80 393 -215
456 -57 27 -77 29 -120 10z"/>
<path d="M8283 2476 c-26 -19 -98 -131 -129 -203 -22 -50 -26 -53 -45 -42 -13
6 -45 9 -76 7 -46 -4 -60 -10 -93 -43 -80 -78 -118 -211 -127 -445 l-6 -155
28 -33 c32 -38 68 -42 87 -9 8 14 15 85 19 192 7 180 20 243 62 306 13 19 33
35 46 37 21 3 23 1 17 -20 -4 -12 -15 -48 -24 -78 -11 -38 -16 -93 -17 -175 0
-112 2 -124 28 -178 43 -86 105 -109 186 -67 85 43 139 149 148 287 5 70 2 92
-17 145 -27 74 -61 130 -91 151 -27 20 -24 30 56 163 36 59 65 113 65 119 0
38 -81 66 -117 41z m-51 -488 c19 -36 23 -59 23 -139 0 -107 -13 -146 -53
-156 -43 -10 -55 18 -49 117 5 74 39 220 52 220 3 0 15 -19 27 -42z"/>
<path d="M9615 2438 c-24 -43 -29 -66 -29 -122 -1 -47 3 -70 12 -73 14 -5 57
83 67 140 8 40 -1 107 -14 107 -4 0 -21 -24 -36 -52z"/>
<path d="M9054 2305 c-11 -29 2 -130 21 -170 50 -102 71 18 22 128 -27 60 -34
67 -43 42z"/>
<path d="M3053 2064 c-32 -16 -37 -26 -33 -72 3 -35 -25 -69 -85 -103 -60 -34
-85 -62 -85 -95 0 -12 30 -66 66 -120 50 -77 64 -105 60 -124 -12 -51 -45
-249 -61 -360 -9 -63 -20 -133 -25 -155 -5 -22 -12 -65 -15 -96 l-7 -56 94
-17 c147 -26 238 -49 238 -59 0 -10 -57 -248 -145 -602 -25 -99 -45 -186 -45
-193 0 -17 139 -16 162 2 10 7 23 44 33 92 20 101 44 201 57 237 8 20 15 26
27 21 26 -11 66 -14 248 -20 l172 -6 -4 39 c-5 50 -19 85 -51 131 l-26 37 6
-30 c3 -16 8 -40 12 -52 3 -13 2 -23 -4 -23 -5 0 -12 18 -16 41 -7 45 -25 77
-70 128 l-31 35 38 -32 c21 -18 42 -32 48 -32 17 0 61 -38 49 -42 -6 -2 0 -19
13 -38 29 -43 47 -93 47 -131 0 -24 4 -29 24 -29 27 0 36 16 36 68 0 30 -8 44
-52 86 -30 28 -39 40 -21 28 38 -27 43 -27 43 -4 0 11 -10 24 -22 30 -18 8
-11 9 34 5 55 -6 58 -5 68 21 5 15 10 36 10 47 0 16 -5 19 -22 14 -16 -4 -12
0 10 15 23 14 32 26 28 36 -3 9 -6 20 -6 24 0 5 -37 10 -82 10 -46 1 -112 2
-147 3 -80 2 -92 -16 -22 -33 34 -8 60 -9 85 -2 20 6 34 7 31 2 -12 -19 -86
-22 -140 -5 -45 15 -53 20 -44 32 10 11 1 13 -53 12 -35 -1 -74 2 -86 5 -13 5
-22 3 -22 -3 0 -6 1 -11 3 -11 2 0 56 -18 121 -40 162 -55 230 -54 321 3 l30
19 -30 -26 c-16 -14 -33 -26 -37 -26 -4 0 -5 -6 -2 -14 4 -10 -8 -16 -48 -20
-29 -4 -65 -9 -80 -12 -18 -4 -32 1 -47 17 -12 13 -35 23 -58 25 -56 6 -173
47 -173 62 0 6 -4 12 -10 12 -12 0 -14 57 -2 64 4 3 25 1 46 -4 l38 -8 -8 111
c-12 156 -10 251 8 327 9 36 23 101 32 145 9 44 21 94 25 110 5 17 12 47 15
67 6 32 14 41 60 68 84 48 88 98 5 61 -58 -27 -81 -26 -108 3 -19 21 -22 31
-16 72 4 27 11 66 17 88 15 60 6 70 -42 45 -22 -11 -57 -23 -78 -26 -32 -4
-44 0 -81 31 -24 20 -54 36 -67 36 -23 0 -24 3 -19 38 4 20 9 45 11 54 6 22
-38 68 -65 68 -11 0 -25 2 -33 5 -7 2 -28 -3 -45 -11z m189 -279 c14 -32 -5
-58 -36 -49 -30 9 -30 10 -16 44 15 36 36 39 52 5z m195 -22 c-7 -39 -29 -69
-45 -59 -9 6 3 55 21 84 17 25 30 12 24 -25z m53 -173 c8 -5 12 -10 10 -12
-53 -34 -70 -35 -70 -3 0 19 5 25 23 25 12 0 29 -4 37 -10z m-2 -82 c-3 -7
-20 -62 -37 -123 -18 -60 -36 -114 -41 -118 -16 -17 -21 73 -9 148 8 54 17 78
28 82 9 2 23 8 31 13 22 13 33 12 28 -2z m-278 -93 c0 -14 -4 -25 -10 -25 -5
0 -10 11 -10 25 0 14 5 25 10 25 6 0 10 -11 10 -25z m175 -778 c12 -10 15 -16
6 -21 -6 -4 -9 -18 -5 -34 4 -21 3 -24 -5 -12 -10 13 -11 13 -11 0 -1 -12 -3
-12 -14 3 -18 23 -26 22 -26 -5 0 -13 -5 -30 -10 -38 -15 -21 -3 35 17 83 18
41 21 43 48 24z m315 -73 c0 -2 -9 0 -20 6 -11 6 -20 13 -20 16 0 2 9 0 20 -6
11 -6 20 -13 20 -16z m-205 6 c3 -6 -1 -7 -9 -4 -18 7 -21 14 -7 14 6 0 13 -4
16 -10z m65 -51 c0 -5 -11 1 -25 13 -14 12 -25 23 -25 25 0 2 11 -4 25 -13 14
-9 25 -20 25 -25z m-233 -31 c-3 -8 -6 -5 -6 6 -1 11 2 17 5 13 3 -3 4 -12 1
-19z m138 4 c-3 -3 -11 0 -18 7 -9 10 -8 11 6 5 10 -3 15 -9 12 -12z m-15 -49
c0 -7 -58 36 -66 49 -4 7 9 -1 29 -16 20 -16 37 -30 37 -33z m137 15 c-3 -8
-6 -5 -6 6 -1 11 2 17 5 13 3 -3 4 -12 1 -19z m-62 -8 c10 -11 16 -20 13 -20
-3 0 -13 9 -23 20 -10 11 -16 20 -13 20 3 0 13 -9 23 -20z m-164 -17 c13 -16
12 -17 -3 -4 -10 7 -18 15 -18 17 0 8 8 3 21 -13z m137 -23 c17 -27 10 -25
-19 6 -13 14 -17 23 -9 19 9 -3 21 -14 28 -25z m87 -20 c-7 -42 -29 -51 -31
-13 -1 11 -5 27 -9 34 -5 8 1 5 13 -5 22 -19 22 -19 22 9 0 16 3 26 6 22 3 -3
3 -24 -1 -47z m-261 -2 c8 -5 7 -8 -1 -8 -7 0 -17 9 -23 19 -14 27 -12 41 2
16 6 -11 16 -23 22 -27z m322 6 c-3 -9 -6 -22 -6 -30 0 -8 -4 -14 -8 -14 -5 0
-7 14 -4 30 2 17 9 30 14 30 6 0 7 -7 4 -16z m-221 -14 c3 -5 2 -10 -4 -10 -5
0 -13 5 -16 10 -3 6 -2 10 4 10 5 0 13 -4 16 -10z"/>
<path d="M2460 1973 c0 -6 7 -19 16 -28 9 -9 19 -13 22 -10 3 3 -4 15 -16 28
-12 12 -22 16 -22 10z"/>
<path d="M2692 1650 c0 -14 2 -19 5 -12 2 6 2 18 0 25 -3 6 -5 1 -5 -13z"/>
<path d="M9003 1443 c-7 -3 -13 -13 -13 -23 0 -11 -13 -25 -32 -34 -41 -21
-46 -20 -50 7 -4 29 -39 29 -53 0 -7 -12 -24 -32 -39 -44 -35 -28 -77 -17 -86
21 -9 37 -36 37 -55 1 -8 -17 -22 -31 -30 -31 -8 0 -15 -4 -15 -10 0 -5 -9
-10 -20 -10 -11 0 -21 5 -21 10 -1 6 -2 14 -3 19 -4 36 -56 38 -56 2 0 -17
-18 -31 -41 -31 -5 0 -9 9 -9 20 0 33 -46 27 -58 -9 -6 -18 -21 -32 -40 -39
-28 -10 -31 -8 -34 11 -5 33 -45 35 -57 4 -16 -42 -77 -53 -83 -14 -4 26 -48
39 -48 13 0 -15 -45 -56 -61 -56 -5 0 -9 9 -9 20 0 10 -9 24 -19 30 -16 8 -23
5 -41 -20 -26 -36 -57 -40 -62 -8 -4 33 -35 35 -49 4 -10 -21 -53 -46 -80 -46
-5 0 -9 11 -9 24 0 24 -24 41 -42 30 -5 -3 -13 -17 -18 -30 -18 -46 -90 -58
-90 -15 0 20 -21 33 -36 23 -5 -4 -15 -19 -23 -34 -23 -46 -85 -49 -79 -4 2
17 -2 21 -22 21 -17 0 -26 -6 -28 -20 -2 -11 -14 -28 -27 -38 -30 -22 -62 -9
-67 25 -5 36 -37 35 -49 -1 -18 -51 -89 -56 -89 -7 0 32 -34 53 -56 35 -8 -6
-14 -19 -14 -29 0 -9 -9 -25 -20 -35 -27 -24 -70 -13 -70 18 0 56 -51 63 -77
10 -13 -29 -25 -39 -46 -41 -35 -4 -57 13 -57 44 0 30 -32 49 -60 34 -11 -6
-20 -20 -20 -32 0 -25 -26 -47 -56 -48 -24 0 -46 21 -43 42 3 27 -1 38 -21 48
-27 15 -60 -4 -60 -34 0 -33 -31 -56 -73 -56 -36 0 -37 1 -37 35 0 36 -20 55
-59 55 -14 0 -22 -8 -26 -27 -9 -42 -19 -56 -54 -77 -30 -17 -33 -17 -66 -2
-29 14 -35 22 -35 49 0 40 -15 57 -50 57 -32 0 -50 -17 -50 -46 0 -27 -57 -77
-77 -69 -8 3 -26 8 -39 11 -21 6 -23 10 -18 44 5 32 3 40 -14 49 -28 15 -67
14 -80 -1 -6 -7 -12 -26 -14 -42 -4 -41 -46 -70 -88 -61 -31 7 -32 9 -27 46 4
32 1 42 -16 54 -26 18 -68 20 -85 3 -7 -7 -12 -24 -12 -39 0 -41 -49 -79 -92
-70 -31 7 -33 9 -30 45 5 47 -19 76 -62 76 -45 0 -59 -13 -62 -57 -4 -47 -33
-73 -81 -73 l-36 0 5 44 c6 49 3 58 -29 75 -52 27 -103 -3 -103 -61 -1 -50
-39 -74 -99 -62 -41 8 -46 12 -43 34 2 14 4 34 5 45 1 13 -10 26 -35 40 -35
18 -40 19 -65 5 -21 -12 -29 -25 -31 -50 -4 -35 -23 -64 -53 -81 -16 -8 -135
21 -126 31 2 3 7 21 10 41 7 50 -19 79 -73 79 -47 0 -70 -21 -70 -63 0 -20 -9
-41 -27 -59 -31 -32 -40 -34 -80 -14 -15 8 -36 17 -45 20 -19 6 -24 41 -9 65
23 36 -43 78 -103 67 -36 -7 -46 -21 -46 -62 0 -39 -17 -62 -62 -85 -38 -19
-43 -20 -72 -6 -17 9 -39 18 -48 21 -14 4 -16 13 -11 56 5 42 3 53 -13 65 -27
20 -77 27 -108 15 -21 -8 -26 -16 -26 -45 0 -43 -23 -81 -61 -101 -40 -20 -65
-18 -86 9 -22 29 -54 47 -82 47 -24 0 -25 2 -10 54 20 74 -10 106 -102 106
-46 0 -69 -27 -69 -83 0 -42 -13 -58 -80 -102 -45 -28 -90 -73 -90 -88 0 -14
32 -70 82 -145 44 -66 49 -77 43 -111 -6 -35 -4 -39 17 -43 37 -8 248 -10 248
-3 0 4 -18 27 -40 52 -34 39 -40 53 -40 90 l0 44 54 -6 c35 -5 56 -3 60 4 13
21 43 11 55 -18 11 -24 7 -49 -24 -172 -47 -185 -96 -381 -135 -539 -17 -69
-33 -133 -36 -142 -4 -14 1 -18 24 -18 16 0 34 6 39 13 6 6 19 64 31 127 17
90 26 118 42 129 17 11 20 24 20 77 0 35 2 64 5 64 3 0 16 -12 28 -26 13 -15
44 -32 72 -40 l50 -14 -47 5 c-36 3 -48 1 -48 -9 0 -22 46 -46 89 -46 36 0 40
3 51 36 14 42 9 50 -22 33 -21 -11 -22 -11 -9 4 12 15 10 17 -23 17 -28 0 -42
7 -68 36 -18 20 -42 40 -53 45 -18 7 -19 8 -1 8 10 1 35 -17 55 -39 41 -45 91
-56 91 -21 0 26 -15 34 -39 21 -21 -11 -34 -1 -23 16 19 29 92 20 92 -11 0
-23 17 -18 23 7 8 28 1 38 -26 39 -17 1 -15 3 8 8 17 4 29 13 27 20 -1 7 2 19
8 26 8 10 6 17 -9 27 -21 15 -30 46 -18 66 15 23 24 12 20 -23 -3 -27 0 -35
13 -35 11 0 15 6 11 20 -3 10 2 25 10 32 13 10 13 14 -3 25 -74 54 -168 -53
-115 -130 l22 -32 -26 29 c-23 25 -26 35 -21 68 3 21 3 38 0 38 -3 0 -24 -19
-46 -42 -21 -24 -34 -33 -29 -21 6 12 29 37 51 56 22 18 37 37 33 40 -10 10
-52 8 -74 -3 -17 -10 -19 -7 -19 22 0 42 22 148 31 148 4 0 12 -7 20 -16 10
-12 10 -22 2 -45 -6 -16 -8 -31 -5 -33 4 -2 40 -4 81 -5 92 -1 144 -10 138
-25 -3 -6 -14 -51 -26 -101 -12 -49 -28 -117 -36 -150 -8 -33 -21 -91 -30
-130 -9 -38 -25 -107 -36 -153 -24 -98 -21 -114 18 -103 26 7 28 12 48 119 11
61 26 117 32 123 7 7 31 12 55 10 23 -1 63 4 90 10 42 11 48 16 48 38 0 14 4
33 10 41 6 11 1 22 -23 42 -18 15 -39 27 -47 28 -11 0 -12 2 -1 12 10 11 14
10 22 -5 6 -9 23 -24 40 -33 28 -14 31 -14 49 8 11 13 18 31 16 40 -3 11 2 18
11 18 9 0 12 -6 9 -17 -8 -27 -37 -153 -46 -198 -5 -22 -15 -67 -24 -100 -20
-77 -20 -75 9 -75 31 0 39 17 55 113 18 106 21 109 109 110 39 0 74 4 77 9 3
5 14 6 25 3 11 -4 19 -2 19 4 0 6 -8 11 -17 11 -10 0 -25 4 -32 9 -12 8 -9 11
13 17 21 5 32 1 47 -15 24 -26 39 -27 39 -2 0 26 -48 44 -120 45 -33 1 -60 4
-60 7 0 3 -10 11 -23 18 -19 9 -19 10 -2 7 11 -3 60 -7 108 -11 70 -6 87 -10
83 -21 -3 -8 -2 -14 3 -14 14 0 20 38 11 68 -7 24 -8 24 -9 5 -1 -13 -6 -23
-12 -23 -6 0 -9 6 -6 13 2 6 7 23 11 37 6 19 5 22 -3 10 -10 -13 -12 -13 -21
0 -5 8 -10 20 -10 25 0 6 5 3 10 -5 8 -13 11 -13 19 -1 7 11 10 9 16 -8 9 -29
21 -26 30 6 4 19 2 29 -9 35 -9 5 -28 20 -44 34 l-27 25 39 -25 c30 -19 43
-23 53 -14 23 19 14 36 -32 63 -52 31 -112 32 -107 3 2 -10 -2 -18 -8 -18 -6
0 -8 4 -5 10 3 5 -12 12 -35 16 -33 5 -40 10 -40 29 0 13 7 25 15 29 13 4 13
9 3 25 -15 25 10 125 32 128 8 2 28 -16 44 -39 25 -36 27 -46 18 -70 -5 -15
-7 -29 -4 -32 3 -3 43 -6 88 -6 46 0 85 -4 88 -8 3 -5 1 -24 -4 -43 -6 -19
-26 -101 -45 -184 -20 -82 -45 -189 -57 -238 -12 -48 -19 -89 -17 -91 2 -2 15
-2 30 1 23 4 27 12 45 101 18 93 20 97 47 100 15 2 25 8 22 13 -4 5 5 5 20 -1
43 -16 46 -13 42 45 -4 50 -17 90 -17 54 -1 -23 -24 -47 -53 -54 -26 -7 -27
-6 -17 19 5 14 11 44 12 66 3 34 7 42 28 46 14 3 33 8 43 11 17 4 24 -16 10
-31 -11 -10 -12 -36 -2 -36 5 0 9 7 9 15 0 8 5 15 10 15 7 0 7 -6 1 -17 -9
-19 -14 -58 -12 -105 1 -21 6 -28 22 -28 19 0 20 4 15 35 -8 40 15 93 64 149
20 23 27 37 19 41 -6 4 -16 2 -22 -4 -17 -17 -31 -13 -17 4 7 8 25 15 40 15
33 0 43 9 29 26 -9 10 -7 15 5 20 9 3 16 12 16 20 0 10 -21 12 -97 9 -54 -2
-106 -6 -115 -10 -10 -4 -18 -5 -18 -3 0 2 5 41 11 87 16 129 35 150 77 85 17
-26 22 -45 18 -65 -6 -32 0 -35 84 -38 30 -1 58 -6 63 -10 4 -4 3 -20 -2 -37
-5 -16 -14 -48 -20 -71 -7 -24 -18 -43 -25 -43 -13 0 -64 -58 -85 -97 -15 -30
-17 -91 -3 -105 21 -21 38 1 56 78 11 44 23 83 28 88 4 6 8 8 8 5 0 -12 -68
-305 -75 -320 -8 -21 5 -30 33 -23 17 5 23 18 32 74 6 38 17 76 24 85 8 12 37
19 105 25 51 5 95 11 99 14 3 3 6 20 7 38 1 18 8 52 15 76 16 50 7 64 -20 34
-12 -12 -24 -22 -27 -22 -4 0 6 14 22 30 26 27 65 41 65 23 0 -5 -18 -80 -40
-167 -22 -88 -38 -162 -35 -164 2 -2 15 -2 28 2 21 5 26 15 37 73 13 73 24 94
43 87 7 -2 32 -1 57 4 43 7 45 9 51 47 l6 40 2 -37 c0 -21 5 -38 10 -38 11 0
21 50 21 109 0 30 7 55 20 71 11 14 20 35 20 47 0 12 4 33 10 47 8 22 7 26 -9
26 -12 0 -22 -12 -29 -32 l-11 -33 5 33 c5 30 4 32 -25 32 -16 0 -32 -4 -35
-9 -3 -4 -16 -6 -30 -4 -21 4 -24 9 -20 46 6 75 15 107 28 107 18 0 35 -42 29
-73 -5 -27 -5 -27 55 -27 34 0 63 -4 66 -9 5 -8 -59 -291 -90 -395 -19 -64
-18 -76 6 -76 24 0 37 24 46 81 11 70 19 80 62 74 41 -6 51 -1 70 34 10 17 11
26 3 34 -8 8 -5 17 10 33 l20 22 -56 7 c-30 3 -53 10 -50 15 3 5 20 4 38 -1
76 -23 145 -8 117 25 -10 13 -9 17 3 22 16 6 33 56 28 87 -1 9 3 17 9 17 6 0
8 5 5 10 -4 6 -12 7 -18 3 -7 -4 -22 -6 -34 -4 -13 1 -23 -3 -23 -10 0 -8 -4
-8 -16 2 -14 11 -18 11 -29 -4 -10 -15 -14 -15 -18 -3 -4 9 -14 12 -26 9 -24
-6 -29 15 -6 23 12 5 13 10 4 20 -18 22 -2 101 21 107 25 7 54 -36 46 -69 -4
-16 -2 -25 6 -26 23 -3 52 -5 86 -7 39 -1 40 -14 13 -116 -11 -38 -33 -124
-51 -190 -17 -66 -34 -128 -36 -138 -5 -15 -1 -18 22 -15 26 3 29 8 40 60 13
66 30 94 49 78 8 -7 26 -6 56 3 24 8 51 11 59 9 8 -3 12 -1 8 3 -4 4 -1 13 8
19 8 7 17 31 20 54 3 41 3 42 -26 42 -24 0 -29 -5 -32 -27 -2 -14 -8 -28 -14
-30 -14 -5 -26 35 -13 43 19 11 8 24 -23 25 -22 1 -26 3 -13 6 11 3 23 10 26
15 4 6 17 12 30 14 62 9 94 21 94 34 0 12 -16 15 -72 15 -39 0 -75 3 -79 8 -4
4 3 7 15 7 17 0 21 4 17 15 -4 11 1 15 19 15 18 0 23 -4 19 -15 -4 -10 0 -15
11 -15 11 0 15 5 11 15 -4 12 0 14 22 8 15 -4 37 -7 49 -6 20 1 22 -3 17 -26
-11 -44 -75 -295 -80 -313 -4 -14 0 -18 18 -18 21 0 26 8 38 57 14 53 17 58
51 66 32 7 35 11 31 36 -2 16 1 32 8 36 9 5 10 1 5 -14 -4 -12 -2 -21 4 -21 6
0 11 6 11 14 0 8 4 17 9 20 5 4 7 -3 4 -14 -3 -11 -9 -23 -14 -26 -14 -8 -10
-24 6 -24 8 0 22 17 32 37 22 48 33 56 55 37 9 -9 22 -13 27 -9 18 10 12 44
-9 55 -29 15 -25 28 7 22 21 -4 25 -2 20 12 -4 9 -2 16 2 16 11 0 31 56 23 64
-3 4 -17 -4 -31 -16 -14 -13 -11 -6 8 14 56 61 21 74 -144 55 -18 -2 -20 3
-17 56 3 64 15 97 36 97 19 0 47 -46 39 -65 -9 -24 10 -32 85 -34 37 -1 68 -3
69 -5 3 -2 -83 -341 -103 -409 -5 -15 -1 -18 17 -15 22 3 29 17 43 79 5 23 13
28 51 33 44 7 58 19 33 29 -10 4 -10 6 -1 6 6 1 15 -3 18 -9 9 -15 35 -12 35
4 0 18 -33 30 -58 22 -19 -6 -61 18 -50 29 3 3 27 -1 52 -9 61 -21 69 -20 63
4 -3 11 -2 20 1 20 8 0 32 73 27 79 -3 2 -17 -4 -32 -14 -18 -11 -13 -3 15 22
49 47 57 79 16 69 -19 -5 -25 -3 -21 6 2 7 16 12 31 11 17 -1 26 3 26 13 0 16
-3 16 -82 14 -43 -1 -58 2 -57 12 1 26 24 127 31 133 11 12 47 -51 41 -73 -5
-20 -2 -22 42 -22 l47 0 -5 -32 c-3 -18 -26 -114 -51 -212 -25 -99 -44 -181
-42 -184 3 -2 13 -1 24 2 13 4 22 19 27 42 15 82 29 92 120 85 17 -2 27 1 22
5 -4 4 0 16 10 26 11 12 17 37 17 73 1 36 5 55 13 55 7 0 10 6 7 14 -3 8 0 17
6 21 8 5 7 14 -4 31 -14 20 -14 23 -1 18 10 -4 15 0 15 15 0 21 -10 27 -24 14
-7 -7 -97 -5 -105 3 -2 2 1 10 8 17 6 8 9 22 5 31 -18 46 36 100 60 60 6 -11
11 -28 11 -39 0 -16 8 -21 43 -23 23 -2 42 -7 42 -11 0 -4 -7 -30 -14 -57 -23
-77 -73 -275 -80 -316 -7 -36 -6 -37 16 -29 16 6 25 19 29 45 3 20 8 38 11 41
2 3 27 8 54 11 27 4 55 11 62 17 18 14 43 77 36 89 -3 5 0 15 6 23 10 12 10
18 0 30 -10 12 -9 16 4 21 9 3 14 10 11 14 -3 4 2 13 10 20 23 19 8 30 -42 30
-26 0 -44 2 -42 4 9 10 109 13 109 4 0 -8 -61 -248 -77 -301 -4 -15 0 -18 19
-15 18 2 25 12 32 45 10 46 25 55 107 57 l46 1 -8 -30 c-12 -42 -12 -45 11
-45 13 0 21 9 25 27 10 48 21 58 67 63 25 3 53 12 62 19 19 16 21 4 7 -46 -5
-17 -7 -34 -4 -37 12 -11 32 8 39 37 9 46 22 57 64 57 46 0 97 35 80 55 -6 8
-24 16 -38 18 -25 4 -24 4 3 3 35 0 58 11 49 25 -3 5 0 16 6 24 7 8 10 22 6
30 -3 8 -1 15 4 15 6 0 10 9 10 19 0 11 5 23 11 27 13 8 9 -14 -31 -168 -26
-102 -26 -108 -9 -108 12 0 19 7 19 19 0 33 12 52 37 62 22 8 23 11 12 26 -13
15 -12 15 8 5 22 -12 83 -17 83 -6 0 3 -10 15 -22 26 -21 18 -20 18 9 -1 43
-29 71 -27 79 4 12 48 15 17 5 -41 -6 -31 -9 -59 -7 -61 11 -11 36 13 42 40 9
43 22 57 53 57 33 0 56 14 47 29 -4 6 0 18 8 27 20 20 21 58 1 74 -14 11 -14
14 0 24 9 6 20 28 24 48 9 40 2 48 -43 48 -13 0 -25 3 -28 6 -8 7 11 75 24 92
14 16 38 -3 38 -29 0 -14 7 -19 28 -19 16 0 31 -2 34 -5 2 -3 -15 -78 -39
-168 -48 -182 -51 -200 -26 -195 11 2 20 18 26 44 7 39 11 43 53 53 38 10 44
15 39 31 -4 12 -2 20 4 20 20 0 11 20 -11 30 l-23 9 23 0 c17 1 27 11 38 37 8
20 13 43 9 52 -3 8 2 23 11 33 23 26 10 38 -36 32 -39 -6 -40 -5 -40 26 0 21
-5 31 -15 31 -8 0 -15 7 -15 16 0 11 6 14 20 9 12 -4 20 -2 20 5 0 22 34 5 40
-20 4 -18 14 -26 33 -28 15 -2 27 -6 27 -10 0 -7 -2 -14 -49 -197 -17 -66 -31
-128 -31 -138 0 -34 23 -12 37 35 8 28 20 49 32 53 10 3 28 17 41 30 21 22 21
25 6 25 -16 0 -15 3 5 20 13 10 20 19 16 20 -5 0 -1 10 7 22 23 33 20 67 -6
78 l-23 9 23 0 c13 1 22 7 22 17 0 11 -8 15 -27 12 -25 -3 -27 0 -29 35 -2 27
1 37 12 37 8 0 14 -9 14 -20 0 -15 7 -20 29 -20 17 0 32 -4 36 -9 3 -6 -10
-65 -29 -133 -44 -158 -53 -212 -35 -206 8 2 20 25 28 51 12 38 20 49 40 53
46 9 56 20 57 59 1 20 7 41 14 45 23 14 -1 32 -34 26 -22 -4 -27 -3 -16 4 8 5
24 10 35 10 18 1 17 2 -5 15 l-25 13 35 4 c49 4 48 32 -2 36 -40 3 -46 16 -32
70 8 27 34 29 34 2 0 -14 7 -20 23 -20 29 0 51 -15 43 -28 -7 -11 -36 -117
-62 -227 -8 -33 -17 -68 -20 -77 -4 -12 0 -18 11 -18 16 0 32 31 38 77 3 22
14 33 49 50 38 18 47 28 52 56 4 19 4 41 1 49 -4 9 1 18 9 21 9 4 16 15 16 26
0 16 -8 21 -42 24 l-43 4 48 1 c34 1 47 6 44 15 -2 7 -18 11 -40 9 -34 -3 -37
-1 -37 22 0 16 -6 26 -15 26 -28 0 -15 17 17 24 35 7 38 5 42 -21 2 -10 11
-20 22 -21 33 -6 36 -18 21 -73 -9 -30 -22 -81 -31 -114 -8 -33 -20 -80 -26
-103 -6 -24 -9 -46 -6 -49 10 -11 36 7 36 24 0 10 5 34 10 54 8 30 17 38 50
49 22 7 39 18 37 24 -3 6 1 18 8 26 13 15 19 34 16 55 0 6 -18 10 -38 8 -30
-2 -34 -1 -18 6 11 5 30 10 43 10 38 1 24 21 -15 22 l-38 1 40 9 c68 16 75 45
10 41 -35 -3 -40 3 -35 38 1 15 28 40 42 40 4 0 8 -9 8 -19 0 -13 8 -21 23
-23 28 -4 27 -25 -3 -133 -12 -44 -24 -91 -26 -105 -3 -14 -9 -40 -14 -59 -10
-39 -8 -46 14 -38 8 3 18 28 23 58 7 46 11 53 38 61 58 18 61 21 30 28 l-30 8
27 1 c34 1 59 38 31 47 -47 15 -58 24 -21 19 38 -6 62 10 32 22 -15 6 -15 7 4
14 15 6 22 17 22 34 0 22 -4 25 -38 25 -38 0 -38 0 -34 35 5 38 21 47 29 15 4
-14 14 -20 34 -20 36 0 41 -9 28 -51 -41 -141 -69 -273 -60 -282 7 -7 15 0 26
26 8 20 15 44 15 54 0 45 12 62 44 65 19 2 30 8 28 16 -1 9 6 10 24 6 18 -5
30 -1 45 14 30 33 23 49 -36 88 -45 30 -55 42 -55 65 0 67 37 103 50 48 5 -19
13 -25 43 -27 35 -3 49 9 27 23 -17 11 -11 35 9 35 11 0 23 5 26 10 3 6 19 10
35 10 22 0 30 -6 39 -30 7 -23 16 -30 35 -30 15 0 26 -6 26 -12 0 -7 -18 -78
-39 -158 -22 -80 -38 -147 -36 -149 15 -15 33 17 44 80 15 81 44 119 92 119
44 0 81 21 76 42 -3 11 0 18 9 18 8 0 14 9 14 19 0 11 3 27 7 36 5 15 1 16
-38 10 -55 -9 -57 -11 -33 -31 17 -15 16 -15 -8 0 -15 9 -34 16 -42 16 -23 0
-29 19 -16 51 14 32 40 39 40 10 0 -14 9 -20 36 -23 39 -5 52 6 33 28 -6 8
-10 16 -8 17 2 1 25 13 51 25 60 29 69 49 20 48 -32 -1 -39 3 -51 31 -15 34
-28 43 -48 36z m67 -93 c0 -5 -7 -10 -16 -10 -8 0 -12 5 -9 10 3 6 10 10 16
10 5 0 9 -4 9 -10z m-140 -24 c0 -3 -4 -8 -10 -11 -5 -3 -10 -1 -10 4 0 6 5
11 10 11 6 0 10 -2 10 -4z m-170 -20 c0 -11 -19 -15 -25 -6 -3 5 1 10 9 10 9
0 16 -2 16 -4z m-150 -26 c0 -5 -4 -10 -10 -10 -5 0 -10 5 -10 10 0 6 5 10 10
10 6 0 10 -4 10 -10z m305 0 c3 -5 1 -10 -4 -10 -6 0 -11 5 -11 10 0 6 2 10 4
10 3 0 8 -4 11 -10z m-317 -47 c-4 -22 -22 -20 -26 1 -2 10 3 16 13 16 10 0
15 -7 13 -17z m-748 -43 c0 -5 -4 -10 -10 -10 -5 0 -10 5 -10 10 0 6 5 10 10
10 6 0 10 -4 10 -10z m-150 -20 c0 -5 -4 -10 -10 -10 -5 0 -10 5 -10 10 0 6 5
10 10 10 6 0 10 -4 10 -10z m-125 -10 c3 -5 -1 -10 -10 -10 -9 0 -13 5 -10 10
3 6 8 10 10 10 2 0 7 -4 10 -10z m515 0 c0 -5 -2 -10 -4 -10 -3 0 -8 5 -11 10
-3 6 -1 10 4 10 6 0 11 -4 11 -10z m-800 -41 c0 -5 -7 -9 -15 -9 -15 0 -20 12
-9 23 8 8 24 -1 24 -14z m145 11 c-3 -5 -10 -10 -16 -10 -5 0 -9 5 -9 10 0 6
7 10 16 10 8 0 12 -4 9 -10z m255 -5 c0 -8 -4 -15 -10 -15 -5 0 -10 7 -10 15
0 8 5 15 10 15 6 0 10 -7 10 -15z m-568 -10 c0 -5 -5 -11 -11 -13 -6 -2 -11 4
-11 13 0 9 5 15 11 13 6 -2 11 -8 11 -13z m486 -13 c3 -17 10 -22 31 -22 15 0
30 -3 33 -6 6 -5 -4 -53 -36 -168 -18 -67 -22 -74 -37 -59 -7 7 -5 14 6 23 17
14 20 62 4 91 -13 25 -3 56 19 62 30 8 -61 6 -111 -2 -44 -7 -50 -6 -57 13 -8
20 -9 20 -10 -4 -1 -35 -19 -54 -66 -69 -39 -13 -44 -12 -73 10 -26 19 -31 28
-25 49 3 14 7 34 8 45 1 27 30 26 34 -2 3 -17 11 -22 43 -25 48 -4 53 -1 34
26 -21 29 -19 33 15 40 39 7 45 5 42 -19 -2 -17 3 -20 43 -21 45 -1 46 0 40
27 -5 21 -2 28 12 32 32 9 48 2 51 -21z m-660 7 c-2 -6 -8 -10 -13 -10 -5 0
-11 4 -13 10 -2 6 4 11 13 11 9 0 15 -5 13 -11z m-188 -9 c0 -5 -5 -10 -11
-10 -5 0 -7 5 -4 10 3 6 8 10 11 10 2 0 4 -4 4 -10z m-190 -9 c0 -6 -4 -13
-10 -16 -5 -3 -10 1 -10 9 0 9 5 16 10 16 6 0 10 -4 10 -9z m-2729 -17 c44
-22 37 -58 -11 -62 -53 -4 -65 9 -46 47 19 36 18 36 57 15z m2525 5 c8 -13
-13 -29 -38 -29 -11 0 -18 8 -18 20 0 15 7 20 24 20 14 0 28 -5 32 -11z m912
-17 c2 -15 -2 -22 -12 -22 -11 0 -16 9 -16 26 0 31 23 28 28 -4z m-1160 -5 c2
-12 -3 -17 -17 -17 -15 0 -21 6 -21 21 0 25 33 22 38 -4z m874 1 c7 -13 11
-31 9 -40 -2 -15 6 -18 43 -18 40 0 46 -3 46 -22 0 -17 -38 -168 -67 -267 -3
-11 -7 -11 -15 -3 -8 8 -8 15 2 26 15 20 5 52 -13 39 -6 -5 -25 -15 -42 -21
-28 -11 -28 -11 -11 3 11 8 26 15 34 15 7 0 12 6 9 13 -2 6 9 17 25 24 34 14
38 38 6 29 -13 -3 -34 -8 -48 -11 l-25 -6 25 11 c14 6 28 18 33 26 4 8 17 14
27 14 11 0 20 7 20 15 0 12 -14 15 -62 17 l-63 2 55 3 c63 5 77 13 61 40 -6
10 -11 12 -11 6 0 -9 -17 -13 -50 -13 l-51 0 7 53 c11 85 31 109 56 65z m118
-9 c0 -20 -15 -26 -25 -9 -9 15 3 43 15 35 5 -3 10 -15 10 -26z m58 -1 c7 -30
12 -33 50 -36 34 -3 42 -7 42 -23 0 -20 -59 -240 -66 -248 -2 -3 -9 0 -16 7
-8 8 -6 15 6 28 23 23 14 28 -47 27 l-52 -1 49 8 c64 11 77 17 75 32 -1 7 3
26 9 41 16 37 15 40 -9 71 -25 32 -54 35 -46 5 5 -20 5 -20 -16 -3 -12 11 -24
20 -26 21 -1 1 0 25 4 52 8 59 30 69 43 19z m-234 14 c2 -4 1 -14 -4 -21 -10
-17 -31 -5 -23 14 6 16 19 20 27 7z m1731 -2 c3 -6 -1 -7 -9 -4 -18 7 -21 14
-7 14 6 0 13 -4 16 -10z m-2785 -26 c0 -8 -7 -14 -15 -14 -15 0 -21 21 -9 33
10 9 24 -2 24 -19z m934 10 c3 -9 6 -24 6 -34 0 -15 9 -19 43 -22 36 -3 42 -6
42 -26 0 -22 -4 -23 -82 -28 -76 -4 -95 1 -76 20 4 4 8 25 8 47 1 39 15 58 41
59 7 0 15 -7 18 -16z m-2592 -19 c16 -35 0 -49 -36 -35 -20 7 -26 15 -22 26 3
9 6 20 6 25 0 20 41 8 52 -16z m312 9 c8 -22 8 -44 -1 -44 -20 1 -32 18 -26
38 6 26 18 29 27 6z m324 -11 c12 -24 4 -43 -16 -43 -29 0 -40 13 -31 38 10
26 35 29 47 5z m276 1 c13 -33 4 -42 -22 -26 -7 5 -10 16 -6 25 8 21 20 22 28
1z m504 5 c-2 -6 -8 -10 -13 -10 -5 0 -11 4 -13 10 -2 6 4 11 13 11 9 0 15 -5
13 -11z m913 -12 c-13 -13 -26 -3 -16 12 3 6 11 8 17 5 6 -4 6 -10 -1 -17z
m2066 17 c-3 -3 -12 -4 -19 -1 -8 3 -5 6 6 6 11 1 17 -2 13 -5z m-2247 -20 c0
-24 -25 -84 -35 -84 -17 0 -45 44 -45 70 0 17 6 20 40 20 22 0 40 -3 40 -6z
m1339 -15 c-6 -12 -9 -30 -6 -40 3 -13 0 -19 -10 -19 -11 0 -14 6 -9 23 3 12
6 30 6 40 0 9 7 17 15 17 13 0 14 -4 4 -21z m538 15 c-3 -3 -12 -4 -19 -1 -8
3 -5 6 6 6 11 1 17 -2 13 -5z m-2152 -46 c-9 -39 -11 -42 -24 -33 -6 3 -11 19
-11 36 0 23 4 29 21 29 18 0 20 -4 14 -32z m1432 -15 c-3 -10 -5 -2 -5 17 0
19 2 27 5 18 2 -10 2 -26 0 -35z m-1665 1 c-4 -34 -7 -38 -21 -29 -12 7 -15
48 -4 59 14 14 28 -2 25 -30z m-242 -3 c0 -32 -14 -49 -25 -31 -9 15 3 60 15
60 6 0 10 -13 10 -29z m311 13 c7 -9 12 -29 11 -45 -2 -28 -2 -28 60 -31 63
-3 63 -3 61 -32 -3 -38 -7 -40 -35 -23 -27 17 -135 9 -147 -12 -6 -9 -10 -7
-14 8 -2 11 -2 22 1 25 3 4 7 28 8 56 1 27 5 54 9 60 9 15 31 12 46 -6z m1906
-26 c-3 -7 -5 -2 -5 12 0 14 2 19 5 13 2 -7 2 -19 0 -25z m520 26 c-3 -3 -12
-4 -19 -1 -8 3 -5 6 6 6 11 1 17 -2 13 -5z m-3232 -53 c-8 -42 -12 -48 -24
-35 -10 10 -14 28 -12 61 1 16 6 20 22 16 18 -5 20 -11 14 -42z m-907 15 c7
-7 -7 -89 -19 -106 -15 -24 -59 35 -59 81 0 20 3 38 6 41 5 6 62 -7 72 -16z
m82 -27 c28 -43 31 -54 22 -74 -6 -13 -8 -26 -4 -29 4 -2 40 -4 81 -5 41 0 78
-4 83 -9 5 -5 2 -37 -7 -74 l-17 -66 -41 0 c-39 -1 -41 0 -23 14 11 8 25 14
32 14 7 0 17 14 23 31 l11 31 -114 -5 c-63 -2 -118 -2 -124 2 -11 7 25 221 38
221 4 0 23 -23 40 -51z m226 36 c3 -8 0 -30 -6 -50 -10 -29 -14 -34 -26 -24
-8 6 -14 29 -14 50 0 33 3 39 20 39 11 0 23 -7 26 -15z m674 -20 c14 -23 21
-46 18 -65 -3 -17 -2 -30 1 -31 3 0 33 -2 66 -5 88 -7 86 -4 68 -71 -17 -67
-21 -73 -33 -53 -7 12 -12 11 -29 -4 -12 -11 -21 -14 -21 -8 0 7 4 12 10 12
13 0 71 80 65 90 -6 9 -96 0 -110 -11 -6 -4 -17 -4 -24 0 -8 5 -28 3 -47 -5
-31 -13 -34 -13 -35 3 -1 10 0 23 1 28 2 6 4 24 5 40 2 27 10 69 21 103 6 21
22 13 44 -23z m194 -2 c-8 -45 -9 -47 -23 -38 -6 3 -11 22 -11 41 0 28 4 34
20 34 19 0 20 -4 14 -37z m-557 19 c9 -5 9 -18 0 -50 -13 -48 -19 -51 -41 -20
-16 23 -21 60 -9 71 8 9 35 9 50 -1z m2348 -12 c4 -6 -9 -10 -32 -9 -34 1 -35
2 -13 9 35 11 38 11 45 0z m184 -16 c14 -12 -19 -1 -35 12 -18 14 -18 14 6 3
14 -6 27 -13 29 -15z m168 4 c-3 -8 -6 -5 -6 6 -1 11 2 17 5 13 3 -3 4 -12 1
-19z m186 5 c-7 -2 -21 -2 -30 0 -10 3 -4 5 12 5 17 0 24 -2 18 -5z m-263 -38
c0 -5 -5 -3 -10 5 -5 8 -10 20 -10 25 0 6 5 3 10 -5 5 -8 10 -19 10 -25z
m-883 -1 c-3 -3 -12 -4 -19 -1 -8 3 -5 6 6 6 11 1 17 -2 13 -5z m718 -14 c18
-19 17 -20 -3 -20 -15 0 -20 6 -19 20 1 11 2 20 3 20 0 0 9 -9 19 -20z m-332
-7 c-7 -2 -19 -2 -25 0 -7 3 -2 5 12 5 14 0 19 -2 13 -5z m214 1 c-3 -3 -12
-4 -19 -1 -8 3 -5 6 6 6 11 1 17 -2 13 -5z m660 0 c-3 -3 -12 -4 -19 -1 -8 3
-5 6 6 6 11 1 17 -2 13 -5z m-1581 -22 c-8 -8 -19 -11 -25 -7 -16 9 -4 24 19
22 17 -1 18 -3 6 -15z m1454 8 c0 -5 -10 -10 -22 -10 -19 0 -20 2 -8 10 19 13
30 13 30 0z m-1536 -59 c-5 -6 -44 39 -44 51 0 5 11 -4 24 -19 13 -15 22 -30
20 -32z m1284 40 c3 -8 -1 -12 -9 -9 -7 2 -15 10 -17 17 -3 8 1 12 9 9 7 -2
15 -10 17 -17z m-1023 -1 c-3 -5 -12 -10 -18 -10 -7 0 -6 4 3 10 19 12 23 12
15 0z m-207 -25 c-3 -3 -9 2 -12 12 -6 14 -5 15 5 6 7 -7 10 -15 7 -18z m722
-2 c-8 -3 -21 -12 -27 -21 -15 -19 -26 -11 -17 12 4 9 17 16 33 15 15 0 20 -3
11 -6z m-1195 -23 c10 -11 14 -20 9 -20 -5 0 -15 9 -22 20 -7 11 -11 20 -9 20
2 0 12 -9 22 -20z m389 -41 c-3 -5 -15 -8 -27 -8 -17 1 -18 2 -4 6 10 3 17 15
18 31 0 27 0 27 10 4 5 -13 7 -28 3 -33z m226 37 c0 -2 -7 -7 -16 -10 -8 -3
-12 -2 -9 4 6 10 25 14 25 6z m-1160 -10 c0 -2 -8 -10 -17 -17 -16 -13 -17
-12 -4 4 13 16 21 21 21 13z m1038 -15 c3 -8 -1 -12 -9 -9 -7 2 -15 10 -17 17
-3 8 1 12 9 9 7 -2 15 -10 17 -17z m572 15 c0 -2 -8 -10 -17 -17 -16 -13 -17
-12 -4 4 13 16 21 21 21 13z m503 -3 c-7 -2 -19 -2 -25 0 -7 3 -2 5 12 5 14 0
19 -2 13 -5z m-1592 -20 c13 -16 12 -17 -3 -4 -10 7 -18 15 -18 17 0 8 8 3 21
-13z m473 2 c3 -8 1 -15 -4 -15 -6 0 -10 7 -10 15 0 8 2 15 4 15 2 0 6 -7 10
-15z m416 11 c0 -2 -8 -10 -17 -17 -16 -13 -17 -12 -4 4 13 16 21 21 21 13z
m-1639 -21 c-18 -8 -36 -15 -40 -15 -13 1 45 29 59 29 8 0 0 -6 -19 -14z
m1407 -4 c-7 -11 -16 -17 -22 -14 -5 3 -1 12 9 20 25 18 27 17 13 -6z m-885
-53 c-3 -35 -10 -67 -15 -73 -10 -10 -5 57 9 113 9 39 11 24 6 -40z m1269 40
c-7 -7 -12 -8 -12 -2 0 14 12 26 19 19 2 -3 -1 -11 -7 -17z m-2127 -8 c3 -6
-1 -7 -9 -4 -18 7 -21 14 -7 14 6 0 13 -4 16 -10z m381 1 c-8 -13 -143 -34
-157 -25 -19 12 29 25 65 19 17 -4 42 -2 56 4 32 13 43 13 36 2z m611 3 c-3
-3 -12 -4 -19 -1 -8 3 -5 6 6 6 11 1 17 -2 13 -5z m503 -8 c0 -8 -4 -18 -10
-21 -5 -3 -10 -1 -10 4 0 20 -20 11 -30 -13 -5 -13 -15 -28 -22 -32 -10 -6
-11 -5 -1 7 7 9 9 20 3 29 -13 21 7 40 41 40 19 0 29 -5 29 -14z m-755 -46
c-8 -23 -15 -56 -15 -73 0 -21 -3 -28 -10 -21 -7 7 -4 32 10 78 12 37 23 66
26 64 2 -3 -3 -24 -11 -48z m-832 33 c-7 -2 -19 -2 -25 0 -7 3 -2 5 12 5 14 0
19 -2 13 -5z m1620 -13 c-10 -11 -19 -20 -21 -20 -1 0 2 9 8 20 6 11 15 20 20
20 6 0 2 -9 -7 -20z m-2114 -29 c-15 -24 -6 -49 23 -61 13 -5 17 -9 9 -9 -34
-2 -67 60 -44 82 14 15 23 6 12 -12z m233 -2 c-52 -24 -46 -39 16 -40 31 0 41
-3 28 -8 -16 -6 -14 -11 18 -39 20 -18 32 -32 26 -32 -6 0 -22 12 -35 26 -22
24 -30 26 -85 22 -33 -2 -55 -1 -48 4 7 4 21 8 31 8 9 0 17 5 17 10 0 6 -11
10 -25 10 -39 0 -29 13 28 37 65 26 86 28 29 2z m293 -7 c17 -16 37 -37 45
-47 14 -18 13 -19 -1 -8 -9 7 -19 10 -22 6 -4 -3 -16 6 -28 20 -19 25 -59 37
-59 19 0 -11 60 -56 84 -62 33 -9 28 -26 -8 -26 -19 0 -33 3 -30 7 2 4 -11 20
-31 35 -33 25 -46 60 -28 77 14 15 49 5 78 -21z m290 19 c3 -5 1 -12 -5 -16
-14 -9 -52 4 -45 16 8 12 42 12 50 0z m347 -27 c-23 -20 -47 -45 -53 -56 -10
-18 -9 -20 7 -14 15 6 13 1 -6 -19 -24 -26 -25 -27 -6 -41 19 -14 19 -14 -2
-14 -12 0 -22 6 -23 13 0 6 -4 3 -9 -8 -13 -30 -13 6 0 40 11 30 107 135 123
135 6 0 -8 -16 -31 -36z m631 0 c-30 -24 -41 -18 -24 15 7 13 17 17 32 14 20
-6 20 -7 -8 -29z m-1175 1 c-3 -3 -9 2 -12 12 -6 14 -5 15 5 6 7 -7 10 -15 7
-18z m266 0 c-9 -14 -19 -23 -22 -20 -5 4 26 45 35 45 2 0 -4 -11 -13 -25z
m1026 15 c0 -5 -8 -10 -17 -10 -15 0 -16 2 -3 10 19 12 20 12 20 0z m-1520
-36 c0 -9 -7 -14 -17 -12 -25 5 -28 28 -4 28 12 0 21 -6 21 -16z m1201 -5 c9
-18 7 -25 -13 -46 -16 -15 -30 -21 -41 -17 -24 9 -21 22 5 26 26 3 37 36 16
49 -10 7 -9 9 4 9 10 0 22 -10 29 -21z m-1256 -27 c-3 -3 -11 0 -18 7 -9 10
-8 11 6 5 10 -3 15 -9 12 -12z m835 14 c0 -2 -8 -10 -17 -17 -16 -13 -17 -12
-4 4 13 16 21 21 21 13z m623 -11 c-3 -9 -8 -14 -10 -11 -3 3 -2 9 2 15 9 16
15 13 8 -4z m-1327 -31 c18 -14 18 -14 -6 -3 -31 14 -36 19 -24 19 6 0 19 -7
30 -16z m-316 -18 c0 -2 -8 -10 -17 -17 -16 -13 -17 -12 -4 4 13 16 21 21 21
13z m60 -6 c0 -5 -6 -10 -14 -10 -8 0 -18 5 -21 10 -3 6 3 10 14 10 12 0 21
-4 21 -10z m1087 -12 c-3 -8 -6 -5 -6 6 -1 11 2 17 5 13 3 -3 4 -12 1 -19z
m-777 -55 c-8 -3 -27 -12 -42 -20 -16 -7 -28 -11 -28 -9 0 9 54 35 70 35 13
-1 13 -1 0 -6z"/>
<path d="M7352 1001 c-35 -6 -43 -20 -18 -36 18 -11 90 20 81 35 -7 11 -12 11
-63 1z"/>
<path d="M7610 986 c0 -22 17 -28 24 -10 9 22 8 24 -9 24 -8 0 -15 -6 -15 -14z"/>
<path d="M8772 1218 c-6 -29 -27 -114 -46 -188 -19 -74 -33 -136 -31 -138 2
-3 11 -2 19 1 8 3 17 27 21 59 9 67 25 93 69 108 30 9 37 18 47 52 12 47 5 88
-16 88 -7 0 -16 -12 -18 -27 l-4 -28 -2 28 c0 15 -6 27 -12 27 -7 0 -9 12 -5
35 11 56 -9 40 -22 -17z m24 -140 c-13 -19 -16 -19 -16 -5 0 9 6 26 13 37 9
16 13 17 15 6 2 -9 -4 -26 -12 -38z"/>
<path d="M8716 1182 c-3 -5 -17 -7 -31 -4 -29 5 -32 -8 -7 -31 25 -22 42 -21
42 2 0 11 5 21 12 23 9 3 9 6 1 11 -7 4 -14 3 -17 -1z"/>
<path d="M4722 741 c-10 -6 -7 -12 12 -24 35 -23 46 -21 46 8 0 19 -5 25 -22
25 -13 0 -29 -4 -36 -9z"/>
<path d="M2512 698 c-22 -45 -31 -96 -18 -107 8 -7 16 9 27 60 16 69 12 88 -9
47z"/>
<path d="M5970 710 c19 -13 30 -13 30 0 0 6 -10 10 -22 10 -19 0 -20 -2 -8
-10z"/>
<path d="M5715 610 c-18 -34 -20 -54 -4 -44 8 5 8 1 0 -14 -12 -22 3 -42 19
-26 15 17 22 54 10 54 -8 0 -7 8 4 25 20 30 20 35 1 35 -8 0 -21 -13 -30 -30z"/>
<path d="M6217 614 c-9 -9 4 -35 14 -28 5 3 9 12 9 20 0 14 -12 19 -23 8z"/>
<path d="M4842 592 c-25 -25 -31 -82 -8 -82 16 0 39 60 34 87 -3 16 -6 15 -26
-5z"/>
<path d="M3782 520 c-9 -15 -10 -26 -3 -38 9 -14 11 -14 12 -2 1 8 1 21 0 28
-1 6 3 12 9 12 5 0 10 5 10 10 0 17 -14 11 -28 -10z"/>
<path d="M4371 462 c-14 -26 -14 -52 -1 -52 17 0 35 49 23 61 -8 8 -14 5 -22
-9z"/>
<path d="M3892 428 c6 -18 28 -21 28 -4 0 9 -7 16 -16 16 -9 0 -14 -5 -12 -12z"/>
<path d="M3900 360 c0 -5 5 -10 10 -10 6 0 10 5 10 10 0 6 -4 10 -10 10 -5 0
-10 -4 -10 -10z"/>
</g>
</svg>
