<?xml version="1.0" standalone="no"?>
<!DOCTYPE svg PUBLIC "-//W3C//DTD SVG 20010904//EN"
 "http://www.w3.org/TR/2001/REC-SVG-20010904/DTD/svg10.dtd">
<svg version="1.0" xmlns="http://www.w3.org/2000/svg"
 width="1088.000000pt" height="360.000000pt" viewBox="0 0 1088.000000 360.000000"
 preserveAspectRatio="xMidYMid meet">

<g transform="translate(0.000000,360.000000) scale(0.100000,-0.100000)"
fill="#000000" stroke="none">
<path d="M2975 3453 c-59 -31 -66 -42 -59 -93 6 -44 4 -50 -41 -111 -64 -86
-92 -151 -100 -234 -8 -78 4 -78 23 -1 8 29 27 65 50 91 47 56 64 43 32 -24
-13 -28 -23 -71 -24 -100 -2 -59 9 -58 19 2 4 23 20 60 36 82 16 22 33 64 39
95 6 30 15 59 20 64 6 6 10 18 10 28 0 21 34 45 76 54 l30 6 77 -192 c43 -105
75 -196 72 -201 -4 -5 -1 -9 4 -9 16 0 13 -27 -5 -56 -12 -18 -15 -36 -10 -72
4 -26 8 -60 9 -77 3 -38 38 -57 96 -51 27 2 39 1 30 -5 -8 -5 -36 -9 -64 -9
-45 0 -48 -1 -34 -16 9 -8 38 -19 65 -23 35 -6 41 -9 19 -10 -16 -1 -37 -6
-45 -11 -13 -9 -12 -12 5 -26 24 -18 79 -13 105 11 17 16 40 20 40 8 0 -5 -15
-20 -33 -35 -40 -31 -127 -201 -127 -246 0 -47 12 -92 24 -92 7 0 11 -20 11
-52 0 -36 4 -52 12 -51 7 2 10 -4 7 -12 -7 -18 14 -111 33 -145 13 -24 14 -23
9 20 -15 126 -19 150 -28 150 -13 0 -6 43 8 47 6 2 15 -42 23 -119 15 -158 29
-236 47 -272 8 -16 14 -33 14 -38 0 -13 44 -108 50 -108 3 0 14 13 23 30 10
16 22 30 28 30 14 0 11 -17 -5 -23 -8 -3 -22 -19 -30 -35 -14 -27 -14 -32 2
-53 10 -13 24 -39 31 -56 16 -38 26 -41 41 -12 7 11 14 18 17 15 4 -3 -2 -15
-12 -26 -17 -19 -17 -21 0 -62 10 -24 35 -58 54 -77 19 -19 27 -32 18 -28 -15
6 -16 3 -7 -13 6 -11 17 -20 25 -20 8 0 12 -6 9 -13 -3 -8 4 -25 15 -38 19
-23 20 -23 21 -3 0 11 -6 26 -12 34 -7 8 -3 6 10 -4 18 -16 21 -26 16 -52 -5
-28 0 -37 38 -78 25 -25 43 -48 41 -50 -2 -2 7 -13 21 -24 15 -11 26 -24 26
-30 0 -5 34 -42 76 -81 64 -59 82 -71 113 -72 23 -1 28 -3 14 -6 -13 -2 -23
-7 -23 -9 0 -9 55 -53 66 -54 7 0 14 -6 17 -12 3 -7 22 -22 43 -33 22 -11 44
-25 49 -32 6 -7 41 -28 78 -48 l69 -37 26 23 27 24 -23 -27 -24 -26 36 -17
c41 -19 41 -19 50 13 8 25 -10 30 -34 10 -8 -7 -4 -1 9 15 14 15 30 27 37 27
18 0 37 38 31 60 -3 11 4 27 17 39 l21 20 4 -42 c6 -62 5 -86 -3 -147 l-8 -55
47 -17 c46 -16 47 -16 55 5 8 20 9 20 9 -5 1 -21 6 -28 20 -28 10 0 32 -7 47
-15 16 -8 37 -15 46 -15 9 0 29 -6 44 -12 22 -10 28 -10 32 0 3 10 7 9 16 -3
7 -9 26 -18 44 -19 27 -2 32 1 32 20 0 13 5 26 10 29 6 4 10 -8 10 -29 0 -20
5 -36 10 -36 6 0 10 24 10 53 0 44 6 62 29 94 35 48 67 73 96 73 26 1 50 20
51 43 1 13 -6 17 -30 16 -25 0 -27 -2 -11 -8 19 -8 19 -8 -4 -20 -12 -7 -25
-10 -29 -7 -3 3 0 6 8 6 9 0 10 3 1 14 -7 8 -21 12 -33 9 -18 -5 -19 -4 -9 16
9 16 21 21 52 21 41 0 79 14 79 29 0 5 -32 12 -71 15 -40 4 -96 18 -126 31
-29 13 -60 22 -67 19 -8 -3 -17 -1 -21 5 -3 6 -13 11 -21 11 -11 0 -14 -6 -9
-22 5 -17 2 -15 -13 8 -26 40 -123 74 -156 54 -17 -10 -19 -10 -9 1 10 10 4
17 -29 36 l-42 24 -68 -35 c-85 -44 -89 -39 -7 7 l62 35 -34 18 c-19 10 -43
24 -54 31 -11 7 -30 17 -41 22 -12 5 -24 15 -25 20 -2 6 -24 15 -49 20 -25 5
-34 9 -21 10 19 1 21 4 12 15 -7 8 -26 18 -42 21 -23 5 -28 11 -24 24 3 10 -1
24 -10 31 -22 18 -18 30 10 30 13 0 28 6 32 13 4 7 28 18 53 24 41 10 43 10
25 -4 -18 -14 -14 -14 45 -8 65 7 154 41 145 55 -2 4 7 12 20 18 29 13 33 32
8 33 -11 0 -6 6 14 15 43 18 49 34 57 139 7 84 6 91 -14 108 -21 18 -22 18
-37 0 -8 -10 -11 -11 -7 -3 10 19 7 66 -8 110 -7 19 -11 44 -10 55 2 26 -15
47 -53 64 -17 7 -24 16 -18 18 15 5 -1 43 -18 43 -26 0 -98 61 -104 89 -3 16
-17 37 -30 45 -34 22 -38 20 -20 -14 8 -16 15 -35 15 -42 -1 -7 -10 7 -21 32
-12 27 -37 58 -63 78 -24 18 -55 43 -69 56 -51 48 -67 54 -121 51 -28 -1 -40
-1 -26 2 44 8 43 20 -3 52 -25 17 -49 31 -53 31 -3 0 -29 16 -56 36 -28 19
-52 33 -55 30 -3 -3 -16 8 -30 25 -33 39 -47 28 -21 -17 13 -21 27 -34 37 -32
10 2 27 -13 46 -42 17 -25 46 -53 65 -62 24 -12 29 -17 16 -18 -11 0 -39 20
-63 45 -23 25 -47 45 -52 45 -22 0 -59 23 -55 34 3 7 -6 32 -19 56 -23 44 -47
63 -47 38 0 -8 -7 -15 -15 -15 -9 0 -15 7 -14 16 4 31 -15 53 -99 117 -70 53
-92 64 -126 65 -30 2 -34 3 -13 6 15 2 27 7 27 11 0 4 -23 24 -51 44 -50 37
-98 88 -82 88 4 0 8 153 8 340 l1 340 -99 0 -98 0 7 -223 c5 -149 4 -226 -3
-230 -10 -6 -163 326 -163 352 0 6 -4 11 -8 11 -11 0 -39 64 -47 108 -7 36
-23 40 -70 15z m435 -747 c0 -13 -8 -30 -17 -37 -16 -12 -17 -12 -5 2 16 21 6
47 -21 52 -15 3 -11 5 11 6 27 1 32 -2 32 -23z m-135 -4 c-3 -3 -11 0 -18 7
-9 10 -8 11 6 5 10 -3 15 -9 12 -12z m188 -93 c-8 -8 -16 -8 -30 0 -16 9 -14
10 12 11 21 0 26 -3 18 -11z m-56 -5 c-3 -3 -12 -4 -19 -1 -8 3 -5 6 6 6 11 1
17 -2 13 -5z m246 -104 c5 -4 -15 -5 -42 -2 -37 3 -58 0 -77 -13 -14 -9 -28
-14 -31 -12 -6 6 31 27 66 37 27 8 70 3 84 -10z m82 -87 c3 -13 3 -23 -2 -23
-4 0 -13 16 -19 36 -9 29 -9 33 1 22 7 -7 16 -23 20 -35z m-297 -3 c-7 -11
-17 -20 -22 -20 -5 0 -1 9 9 20 10 11 20 20 22 20 2 0 -2 -9 -9 -20z m139 14
c-3 -3 -12 -4 -19 -1 -8 3 -5 6 6 6 11 1 17 -2 13 -5z m64 -11 c13 -17 13 -17
-6 -3 -11 8 -22 16 -24 17 -2 2 0 3 6 3 6 0 17 -8 24 -17z m-91 -11 c0 -4 12
-20 26 -35 22 -24 28 -26 42 -16 13 10 12 8 -1 -7 -18 -19 -19 -19 -41 9 -12
15 -27 27 -34 27 -7 0 -10 5 -6 11 4 7 1 10 -7 7 -17 -6 -19 -63 -2 -95 7 -14
8 -23 2 -23 -6 0 -7 -5 -3 -12 4 -6 3 -8 -4 -4 -13 8 -42 64 -42 81 0 19 40
65 56 65 8 0 14 -3 14 -8z m-167 -71 c-16 -27 -29 -48 -31 -46 -4 4 26 64 40
83 21 25 17 10 -9 -37z m357 44 c0 -14 -30 -63 -47 -76 -12 -10 -11 -5 5 15
12 16 22 37 22 47 0 11 5 19 10 19 6 0 10 -2 10 -5z m36 -32 c-8 -15 -15 -25
-16 -21 0 12 23 58 27 54 3 -2 -2 -17 -11 -33z m58 11 c3 -8 2 -12 -4 -9 -6 3
-10 10 -10 16 0 14 7 11 14 -7z m-84 -53 c0 -5 -12 -16 -27 -26 l-28 -17 25
25 c28 29 30 30 30 18z m-85 -21 c-3 -5 -12 -10 -18 -10 -7 0 -6 4 3 10 19 12
23 12 15 0z m11 -35 c-11 -8 -29 -15 -40 -14 -15 0 -11 4 14 14 45 17 49 17
26 0z m-111 -5 c3 -5 2 -10 -4 -10 -5 0 -13 5 -16 10 -3 6 -2 10 4 10 5 0 13
-4 16 -10z m-50 -20 c-11 -5 -32 -9 -46 -9 -31 -1 -45 -16 -52 -51 -4 -21 -4
-20 -6 7 0 17 4 35 11 39 15 9 67 22 93 22 l20 1 -20 -9z m65 -77 c0 -7 -5
-13 -11 -13 -5 0 -7 4 -4 10 3 5 -1 23 -10 39 -8 17 -15 34 -15 38 1 12 39
-60 40 -74z m327 15 c-3 -7 -5 -2 -5 12 0 14 2 19 5 13 2 -7 2 -19 0 -25z
m-180 -21 c12 -10 23 -23 23 -28 0 -5 -13 3 -30 18 -16 14 -30 33 -29 42 0 14
1 14 6 1 4 -8 17 -23 30 -33z m-177 -22 c0 -9 -64 -45 -80 -45 -8 0 6 11 30
24 25 13 46 24 48 25 1 0 2 -1 2 -4z m553 -12 c-7 -2 -21 -2 -30 0 -10 3 -4 5
12 5 17 0 24 -2 18 -5z m57 -13 c8 -5 11 -10 5 -10 -5 0 -17 5 -25 10 -8 5
-10 10 -5 10 6 0 17 -5 25 -10z m-370 -16 c0 -2 -7 -4 -15 -4 -8 0 -15 4 -15
10 0 5 7 7 15 4 8 -4 15 -8 15 -10z m-223 -31 c-3 -10 -5 -4 -5 12 0 17 2 24
5 18 2 -7 2 -21 0 -30z m421 7 c-22 -30 -35 -41 -22 -17 9 16 36 47 41 47 2 0
-6 -13 -19 -30z m-311 -12 c-3 -8 -6 -5 -6 6 -1 11 2 17 5 13 3 -3 4 -12 1
-19z m530 -65 c-13 -42 -45 -63 -82 -55 -38 7 -30 22 8 15 46 -7 67 16 68 75
0 39 2 43 9 24 6 -14 5 -35 -3 -59z m-687 43 c0 -8 -4 -17 -9 -21 -12 -7 -24
12 -16 25 9 15 25 12 25 -4z m747 -38 c-2 -13 -4 -5 -4 17 -1 22 1 32 4 23 2
-10 2 -28 0 -40z m-357 -10 c0 -30 -3 -39 -10 -28 -7 12 -13 12 -33 1 -14 -7
-31 -11 -39 -8 -7 3 -3 6 10 6 28 1 39 26 21 49 -11 13 -8 12 9 -2 23 -20 23
-20 29 2 8 34 13 26 13 -20z m208 17 c-3 -3 -9 2 -12 12 -6 14 -5 15 5 6 7 -7
10 -15 7 -18z m-441 -7 c-3 -8 -6 -5 -6 6 -1 11 2 17 5 13 3 -3 4 -12 1 -19z
m296 -28 c3 -11 2 -18 -3 -15 -4 3 -10 14 -13 25 -3 11 -2 18 3 15 4 -3 10
-14 13 -25z m-490 5 c-3 -9 -8 -14 -10 -11 -3 3 -2 9 2 15 9 16 15 13 8 -4z
m39 -132 c-9 -45 -10 -42 -10 42 0 79 1 85 9 48 6 -25 6 -60 1 -90z m195 97
c28 -8 28 -8 3 -10 -14 -1 -35 -3 -48 -4 -16 -2 -21 1 -17 11 3 8 5 19 5 25 0
7 5 6 14 -1 8 -7 27 -16 43 -21z m66 3 c-7 -2 -19 -2 -25 0 -7 3 -2 5 12 5 14
0 19 -2 13 -5z m542 -22 c3 -5 1 -12 -5 -16 -6 -4 -8 -10 -5 -15 3 -5 1 -11
-5 -15 -6 -4 -10 6 -10 24 0 30 13 41 25 22z m160 -9 c-3 -3 -11 0 -18 7 -9
10 -8 11 6 5 10 -3 15 -9 12 -12z m-322 -19 c-7 -2 -21 -2 -30 0 -10 3 -4 5
12 5 17 0 24 -2 18 -5z m362 -3 c3 -6 -1 -7 -9 -4 -18 7 -21 14 -7 14 6 0 13
-4 16 -10z m-805 -13 c-27 -15 -36 -14 -25 2 3 6 16 11 28 11 21 0 21 -1 -3
-13z m103 6 c-13 -2 -33 -2 -45 0 -13 2 -3 4 22 4 25 0 35 -2 23 -4z m-157
-38 c-22 -16 -21 -20 11 -29 15 -5 25 -1 37 15 9 13 19 19 23 15 5 -5 2 -11
-4 -13 -7 -3 -13 -12 -13 -20 0 -12 -7 -14 -27 -10 -17 3 -36 0 -47 -9 -11 -8
-24 -14 -28 -14 -13 0 20 58 39 69 26 15 31 13 9 -4z m212 -28 c18 7 17 5 -10
-16 -16 -12 -19 -10 -28 13 -5 14 -17 26 -27 26 -15 0 -16 2 -3 10 11 7 20 3
33 -15 12 -16 24 -22 35 -18z m74 13 c18 -16 27 -30 21 -30 -7 0 -13 5 -13 10
0 6 -15 19 -32 30 -18 11 -27 20 -21 20 7 0 27 -13 45 -30z m423 14 c12 -5 14
-9 4 -14 -9 -6 -3 -17 22 -40 36 -35 20 -31 -19 4 -46 41 -49 66 -7 50z m165
-4 c18 -12 2 -12 -25 0 -13 6 -15 9 -5 9 8 0 22 -4 30 -9z m-753 -6 c-3 -3
-12 -4 -19 -1 -8 3 -5 6 6 6 11 1 17 -2 13 -5z m-207 -25 c0 -5 -4 -9 -10 -9
-5 0 -10 7 -10 16 0 8 5 12 10 9 6 -3 10 -10 10 -16z m855 11 c13 -6 15 -9 5
-9 -8 0 -22 4 -30 9 -18 12 -2 12 25 0z m150 -8 c-3 -3 -11 0 -18 7 -9 10 -8
11 6 5 10 -3 15 -9 12 -12z m-654 -9 c13 -17 13 -17 -6 -3 -11 8 -22 16 -24
17 -2 2 0 3 6 3 6 0 17 -8 24 -17z m394 -101 c-5 -6 -25 71 -24 93 0 11 7 -5
14 -35 7 -30 12 -57 10 -58z m-205 72 c0 -2 -9 0 -20 6 -11 6 -20 13 -20 16 0
2 9 0 20 -6 11 -6 20 -13 20 -16z m407 20 c-3 -3 -12 -4 -19 -1 -8 3 -5 6 6 6
11 1 17 -2 13 -5z m-547 -37 c0 -5 -4 -5 -10 -2 -5 3 -10 14 -10 23 0 15 2 15
10 2 5 -8 10 -19 10 -23z m205 23 c3 -6 -1 -7 -9 -4 -18 7 -21 14 -7 14 6 0
13 -4 16 -10z m380 0 c3 -6 -1 -7 -9 -4 -18 7 -21 14 -7 14 6 0 13 -4 16 -10z
m-643 -22 c-7 -7 -12 -8 -12 -2 0 14 12 26 19 19 2 -3 -1 -11 -7 -17z m-297
-28 c7 0 18 7 25 15 7 9 15 13 17 11 3 -2 -5 -14 -17 -26 -17 -17 -24 -19 -36
-9 -23 19 -17 -20 11 -68 13 -24 20 -43 16 -43 -4 0 -17 21 -30 46 -16 35 -20
55 -15 78 5 21 9 25 12 14 2 -10 9 -18 17 -18z m546 13 c13 -17 13 -17 -6 -3
-11 8 -22 16 -24 17 -2 2 0 3 6 3 6 0 17 -8 24 -17z m208 -9 c-9 -11 -8 -18 2
-31 13 -16 12 -17 -3 -4 -23 17 -25 63 -3 55 12 -5 13 -10 4 -20z m134 9 c-7
-2 -21 -2 -30 0 -10 3 -4 5 12 5 17 0 24 -2 18 -5z m-494 -36 l25 -32 -32 29
c-33 31 -37 36 -24 35 4 0 18 -14 31 -32z m606 3 c33 -63 5 -93 -66 -71 -31
10 -31 10 -5 7 17 -2 36 -2 43 1 18 7 17 23 -1 23 -23 0 -27 16 -4 17 28 3 31
8 18 32 -6 12 -8 21 -6 21 3 0 12 -13 21 -30z m-385 -30 c30 -43 18 -37 -16 7
-15 20 -23 33 -16 29 6 -3 21 -20 32 -36z m-274 3 c-10 -10 -19 5 -10 18 6 11
8 11 12 0 2 -7 1 -15 -2 -18z m-284 -18 c2 -13 11 -20 25 -20 12 0 25 -3 29
-7 4 -5 -9 -8 -28 -8 -33 0 -36 2 -40 35 -4 36 7 36 14 0z m240 3 c-13 -7 -26
-24 -29 -40 -3 -17 -12 -28 -22 -27 -10 0 -11 2 -3 6 6 2 12 11 12 19 0 18 36
54 53 53 6 0 2 -5 -11 -11z m448 -13 c13 -14 21 -25 18 -25 -2 0 -15 11 -28
25 -13 14 -21 25 -18 25 2 0 15 -11 28 -25z m-785 -21 c18 -43 19 -54 4 -54
-5 0 -8 4 -5 9 3 5 -1 25 -9 45 -8 20 -13 36 -10 36 2 0 12 -16 20 -36z m623
24 c7 -7 12 -16 12 -20 0 -11 -23 -6 -32 7 -18 24 -1 34 20 13z m96 -4 c3 -8
2 -12 -4 -9 -6 3 -10 10 -10 16 0 14 7 11 14 -7z m-271 -14 c23 -11 32 -12 49
-1 15 9 23 10 32 1 8 -8 6 -9 -8 -4 -16 6 -18 3 -14 -24 2 -18 1 -32 -4 -32
-4 0 -8 9 -8 20 0 14 -7 20 -24 20 -13 0 -29 7 -36 15 -7 8 -16 12 -21 9 -5
-3 -9 0 -9 6 0 7 3 10 8 8 4 -2 20 -10 35 -18z m470 3 c-7 -2 -19 -2 -25 0 -7
3 -2 5 12 5 14 0 19 -2 13 -5z m-529 -14 c-8 -14 -44 -17 -44 -4 0 7 10 12 24
11 13 0 22 -4 20 -7z m-157 -5 c-3 -3 -12 -4 -19 -1 -8 3 -5 6 6 6 11 1 17 -2
13 -5z m333 -15 c0 -6 -4 -7 -10 -4 -5 3 -10 11 -10 16 0 6 5 7 10 4 6 -3 10
-11 10 -16z m-370 -10 c0 -14 -16 -11 -29 5 -10 12 -8 13 8 9 12 -3 21 -9 21
-14z m427 -1 c-3 -8 -6 -5 -6 6 -1 11 2 17 5 13 3 -3 4 -12 1 -19z m111 -20
c1 -51 -6 -78 -19 -78 -13 0 -11 61 4 93 6 15 13 27 13 27 1 0 2 -19 2 -42z
m-620 -8 c27 0 27 -1 -6 -17 -19 -9 -36 -24 -40 -32 -8 -23 -42 -54 -50 -46
-4 3 1 11 11 16 9 6 17 16 17 24 0 8 9 19 20 25 24 13 26 30 5 30 -16 0 -20
12 -8 24 4 3 11 0 15 -9 5 -8 21 -15 36 -15z m984 -3 c4 -6 7 -28 6 -47 l-1
-35 -4 38 c-4 39 -33 55 -33 18 0 -11 -9 -23 -20 -26 -11 -3 -20 -13 -20 -21
0 -8 -4 -14 -8 -14 -5 0 -14 -11 -20 -25 -6 -14 -18 -25 -27 -25 -12 0 -10 9
11 41 14 22 23 47 20 55 -4 10 2 14 19 14 15 0 25 6 25 15 0 12 -12 14 -75 8
-52 -4 -75 -3 -75 5 0 23 187 23 202 -1z m-514 -6 c-2 -10 -12 -15 -26 -13
-15 2 -22 -2 -22 -13 0 -9 -5 -13 -10 -10 -8 5 -7 11 0 20 7 8 10 18 7 22 -3
4 8 8 24 9 23 1 29 -3 27 -15z m-251 -23 c-3 -7 -5 -2 -5 12 0 14 2 19 5 13 2
-7 2 -19 0 -25z m-127 12 c20 -6 21 -8 5 -8 -11 0 -31 4 -45 8 -20 6 -21 8 -5
8 11 0 31 -4 45 -8z m477 -12 c-3 -8 -6 -5 -6 6 -1 11 2 17 5 13 3 -3 4 -12 1
-19z m190 16 c-3 -3 -12 -4 -19 -1 -8 3 -5 6 6 6 11 1 17 -2 13 -5z m-578 -25
c17 -6 31 -15 31 -20 0 -12 -2 -12 -51 11 -47 21 -33 27 20 9z m596 1 c-3 -5
-18 -10 -33 -9 -24 0 -25 1 -7 9 28 12 47 12 40 0z m43 -2 c-6 -18 -28 -21
-28 -4 0 9 7 16 16 16 9 0 14 -5 12 -12z m-363 -25 c-9 -37 -11 -38 -30 -20
-21 21 -19 30 5 22 14 -5 20 -2 20 9 0 9 3 16 6 16 3 0 3 -12 -1 -27z m104 1
c7 5 11 -2 11 -18 0 -33 -18 -33 -30 0 -12 31 -13 44 -1 25 5 -7 14 -10 20 -7z
m125 -44 c-36 -72 -16 -94 40 -42 l31 27 -29 -32 c-27 -30 -63 -42 -79 -27
-10 10 44 124 59 124 2 0 -8 -23 -22 -50z m257 19 c-5 -13 -10 -19 -10 -12 -1
15 10 45 15 40 3 -2 0 -15 -5 -28z m-777 -61 c-3 -4 -16 -8 -29 -8 -13 0 -30
-9 -38 -20 -11 -16 -21 -19 -42 -14 -18 4 -30 2 -36 -7 -6 -10 -11 -11 -19 -3
-14 14 32 28 60 19 13 -4 22 1 30 15 6 12 21 20 35 20 21 0 25 5 26 33 l1 32
8 -29 c5 -16 7 -33 4 -38z m35 33 c-15 -5 -22 6 -14 19 6 9 10 9 16 -1 5 -8 4
-15 -2 -18z m66 9 c3 -5 2 -10 -4 -10 -5 0 -13 5 -16 10 -3 6 -2 10 4 10 5 0
13 -4 16 -10z m-327 -31 c-3 -8 -7 -3 -11 10 -4 17 -3 21 5 13 5 -5 8 -16 6
-23z m422 21 c0 -5 -10 -10 -22 -10 -19 0 -20 2 -8 10 19 13 30 13 30 0z m432
-22 c-8 -8 -9 -4 -5 13 4 13 8 18 11 10 2 -7 -1 -18 -6 -23z m-512 -8 c0 -5 8
-10 17 -10 9 0 14 -3 11 -6 -4 -3 -28 -2 -55 2 -45 7 -46 8 -18 15 44 10 45
10 45 -1z m123 -6 c-3 -8 -12 -13 -20 -10 -8 3 -24 7 -36 7 -19 1 3 8 55 18 4
0 5 -6 1 -15z m459 -16 c-6 -6 -15 -8 -19 -4 -4 4 -1 11 7 16 19 12 27 3 12
-12z m-662 9 c0 -2 -17 -19 -37 -38 l-38 -34 34 38 c33 34 41 42 41 34z m579
-23 c-35 -19 -45 -17 -25 5 10 11 25 17 33 14 12 -5 10 -9 -8 -19z m-318 3
c-1 -4 -1 -14 -1 -22 0 -8 -7 -15 -16 -15 -11 0 -14 5 -10 16 3 9 6 20 6 26 0
5 5 8 11 6 6 -2 10 -7 10 -11z m163 -36 c-7 -9 -24 13 -24 32 0 21 1 21 13 -3
8 -14 12 -27 11 -29z m246 19 c-8 -5 -19 -10 -25 -10 -5 0 -3 5 5 10 8 5 20
10 25 10 6 0 3 -5 -5 -10z m-53 -16 c-3 -3 -12 -4 -19 -1 -8 3 -5 6 6 6 11 1
17 -2 13 -5z m-750 -12 c6 -4 -10 -7 -35 -8 -32 -1 -41 1 -27 7 26 10 47 10
62 1z m483 0 c0 -13 -12 -22 -22 -16 -10 6 -1 24 13 24 5 0 9 -4 9 -8z m217 2
c-3 -3 -12 -4 -19 -1 -8 3 -5 6 6 6 11 1 17 -2 13 -5z m-403 -45 c-3 -5 -10
-7 -15 -3 -5 3 -7 10 -3 15 3 5 10 7 15 3 5 -3 7 -10 3 -15z m63 -1 c-3 -8 -6
-5 -6 6 -1 11 2 17 5 13 3 -3 4 -12 1 -19z m-200 6 c-3 -3 -12 -4 -19 -1 -8 3
-5 6 6 6 11 1 17 -2 13 -5z m285 -21 c-3 -16 -7 -22 -10 -15 -4 13 4 42 11 42
2 0 2 -12 -1 -27z m328 17 c-34 -11 -60 -11 -35 0 11 5 29 8 40 8 16 0 15 -2
-5 -8z m-655 -10 c3 -5 -3 -10 -14 -10 -11 0 -23 5 -26 10 -3 6 3 10 14 10 11
0 23 -4 26 -10z m114 -5 c25 -12 50 -60 38 -72 -2 -2 -18 12 -35 32 -17 19
-36 35 -42 35 -5 0 -10 5 -10 10 0 14 16 12 49 -5z m121 -50 c-7 -8 -17 -15
-23 -15 -6 0 -2 7 9 15 25 19 30 19 14 0z m107 -44 c3 -22 1 -41 -4 -41 -11 0
-34 81 -26 93 10 16 24 -10 30 -52z m-108 5 c-10 -8 -89 -13 -83 -5 3 5 24 9
46 9 23 0 39 -2 37 -4z m-172 -12 c-3 -3 -12 -4 -19 -1 -8 3 -5 6 6 6 11 1 17
-2 13 -5z m178 -35 c11 -17 -1 -21 -15 -4 -8 9 -8 15 -2 15 6 0 14 -5 17 -11z
m-98 -5 c-3 -3 -12 -4 -19 -1 -8 3 -5 6 6 6 11 1 17 -2 13 -5z m296 -51 c-7
-2 -19 -2 -25 0 -7 3 -2 5 12 5 14 0 19 -2 13 -5z m-176 -35 c-3 -8 -6 -5 -6
6 -1 11 2 17 5 13 3 -3 4 -12 1 -19z m-177 8 c0 -3 -4 -8 -10 -11 -5 -3 -10
-1 -10 4 0 6 5 11 10 11 6 0 10 -2 10 -4z m80 -6 c0 -5 -4 -10 -10 -10 -5 0
-10 5 -10 10 0 6 5 10 10 10 6 0 10 -4 10 -10z m90 -25 c0 -12 -19 -12 -23 0
-4 9 -1 12 9 8 7 -3 14 -7 14 -8z m-106 -30 c3 -9 0 -15 -9 -15 -9 0 -12 6 -9
15 4 8 7 15 9 15 2 0 5 -7 9 -15z m359 -27 c-11 -13 -19 -28 -17 -33 5 -13
-34 -38 -47 -30 -5 4 1 15 13 26 18 16 20 22 9 26 -10 4 -8 9 10 19 39 22 56
18 32 -8z m-113 -8 c-8 -5 -22 -9 -30 -9 -10 0 -8 3 5 9 27 12 43 12 25 0z
m-232 -7 c-10 -2 -26 -2 -35 0 -10 3 -2 5 17 5 19 0 27 -2 18 -5z m167 -3 c3
-6 -1 -7 -9 -4 -18 7 -21 14 -7 14 6 0 13 -4 16 -10z m375 -24 c0 -2 -7 -7
-16 -10 -8 -3 -12 -2 -9 4 6 10 25 14 25 6z m-65 -36 c-3 -5 -12 -10 -18 -10
-7 0 -6 4 3 10 19 12 23 12 15 0z m-100 -20 c-3 -5 -16 -15 -28 -21 -19 -9
-19 -8 3 10 28 23 34 26 25 11z m-155 -24 c0 -3 -15 -14 -32 -26 l-33 -22 30
26 c31 27 35 29 35 22z m348 -26 c-7 -10 -14 -17 -17 -15 -4 4 18 35 25 35 2
0 -1 -9 -8 -20z m365 -45 c42 -18 48 -24 13 -18 -28 6 -96 59 -96 76 0 7 10 0
23 -15 12 -15 39 -35 60 -43z m-643 40 c0 -6 -97 -55 -107 -55 -4 1 17 14 47
30 61 32 60 32 60 25z m40 -20 c-7 -8 -17 -15 -23 -15 -6 0 -2 7 9 15 25 19
30 19 14 0z m489 -51 c2 -2 -25 -4 -60 -4 -39 0 -59 4 -51 9 13 8 101 3 111
-5z m124 -4 c26 0 21 -17 -10 -35 l-28 -16 31 5 c17 3 41 2 53 -1 21 -5 21 -6
-7 -23 -34 -21 -72 -70 -73 -97 -1 -16 -2 -17 -6 0 -2 9 -9 15 -14 12 -25 -16
17 57 44 76 12 8 -10 22 -22 14 -6 -3 -8 6 -5 21 4 20 0 27 -16 31 -11 3 -17
10 -14 15 4 5 16 7 28 4 11 -3 29 -6 39 -6z m-323 -40 c0 -5 -5 -10 -11 -10
-5 0 -7 5 -4 10 3 6 8 10 11 10 2 0 4 -4 4 -10z m21 -23 c-10 -9 -11 -8 -5 6
3 10 9 15 12 12 3 -3 0 -11 -7 -18z m227 8 c12 -10 -41 -9 -73 0 l-40 13 55
-6 c30 -2 56 -6 58 -7z m-108 -33 c0 -4 -14 -8 -31 -8 -32 -1 -32 -1 -8 11 23
13 39 11 39 -3z m-116 -8 c3 -8 2 -12 -4 -9 -6 3 -10 10 -10 16 0 14 7 11 14
-7z m184 -3 c-7 -11 -15 -18 -20 -15 -11 7 3 34 18 34 12 0 12 -4 2 -19z m-48
-19 c0 -12 -49 -56 -55 -50 -7 7 34 58 46 58 5 0 9 -4 9 -8z m-73 -28 c-3 -3
-12 -4 -19 -1 -8 3 -5 6 6 6 11 1 17 -2 13 -5z m113 -5 c0 8 2 12 5 10 2 -3 2
-15 -2 -28 -4 -17 -8 -19 -14 -9 -7 11 -11 10 -19 -2 -14 -22 -12 -3 2 20 9
14 14 16 20 7 6 -9 8 -8 8 2z m-13 -71 c-3 -8 -6 -5 -6 6 -1 11 2 17 5 13 3
-3 4 -12 1 -19z m59 -26 c-12 -11 -18 7 -10 30 l8 23 4 -23 c2 -13 1 -26 -2
-30z"/>
<path d="M5459 3421 c-114 -37 -179 -107 -179 -195 0 -58 17 -99 64 -155 59
-70 70 -97 55 -133 -13 -32 -74 -67 -115 -68 -11 0 -23 -3 -27 -6 -8 -8 56
-136 76 -152 35 -30 187 49 235 121 23 35 27 51 27 117 l0 76 -62 84 c-35 46
-63 94 -63 106 0 44 45 71 109 65 12 -1 21 2 20 6 -2 4 -17 41 -34 80 -16 40
-34 73 -40 72 -5 0 -35 -8 -66 -18z"/>
<path d="M3860 3413 l-35 -4 0 -337 0 -337 95 0 95 0 -4 118 -3 117 38 0 c22
0 44 -4 51 -8 6 -4 30 -54 52 -112 23 -57 47 -107 53 -112 18 -11 176 -10 183
1 3 5 -20 64 -50 130 -30 66 -55 124 -55 129 0 4 16 24 36 43 48 45 64 85 64
159 0 75 -16 116 -63 157 -57 50 -118 63 -281 61 -78 -1 -157 -3 -176 -5z
m283 -145 c35 -18 46 -40 47 -90 0 -39 -4 -50 -27 -68 -22 -17 -38 -20 -92
-18 l-66 3 -3 70 c-5 110 -2 115 64 115 30 0 65 -5 77 -12z"/>
<path d="M4724 3082 c-1 -235 2 -339 10 -344 13 -9 131 -10 161 -2 19 5 20 14
20 345 l1 339 -96 0 -95 0 -1 -338z"/>
<path d="M5954 3075 l0 -346 95 3 95 3 0 135 1 135 128 3 127 3 0 -141 0 -140
98 0 97 0 0 345 0 345 -98 0 -98 0 3 -122 3 -123 -134 -3 -134 -3 5 126 6 125
-97 0 -97 0 0 -345z"/>
<path d="M9498 3312 c-125 -34 -233 -134 -275 -255 -23 -68 -23 -186 1 -302
18 -90 18 -90 66 -121 l49 -32 28 30 c53 56 98 73 203 75 52 1 113 7 135 14
208 63 425 -234 345 -470 -42 -127 -107 -196 -299 -320 -70 -45 -83 -48 -101
-26 -24 29 0 76 85 165 166 172 217 298 165 401 -19 37 -70 79 -97 79 -8 0 -9
-10 -1 -37 16 -60 6 -161 -24 -226 -32 -67 -119 -164 -167 -184 -31 -13 -36
-13 -60 5 -14 10 -34 32 -43 48 -45 77 -63 259 -33 331 20 47 19 50 -6 27 -40
-36 -56 -85 -62 -189 -7 -122 -21 -167 -50 -163 -31 4 -56 55 -71 144 -8 44
-20 93 -26 109 -15 40 -49 75 -72 75 -17 0 -17 -2 -3 -30 40 -78 61 -327 35
-421 -23 -81 -110 -120 -186 -81 -47 24 -64 43 -95 102 -20 39 -23 60 -24 155
0 61 3 125 7 144 11 49 -14 25 -42 -42 -18 -40 -23 -71 -23 -134 0 -73 4 -90
32 -147 37 -75 94 -130 191 -184 114 -62 121 -69 118 -110 -5 -56 -39 -68
-150 -54 -152 19 -260 87 -307 192 -122 278 56 740 281 729 32 -2 52 3 74 20
17 12 52 25 78 29 l48 7 -83 54 c-150 100 -259 128 -377 97 -129 -33 -212 -98
-267 -209 -61 -123 -56 -278 10 -379 31 -46 31 -46 1 -77 -66 -70 -106 -214
-87 -316 37 -200 196 -335 396 -335 79 0 146 20 270 82 102 52 287 171 320
208 33 36 36 21 6 -32 -44 -78 -124 -270 -167 -399 -20 -63 -41 -118 -46 -123
-4 -6 -8 -17 -8 -26 0 -9 -9 -25 -20 -35 -27 -24 -70 -13 -70 18 0 56 -51 63
-77 9 -13 -28 -25 -38 -46 -40 -35 -4 -57 13 -57 44 0 30 -32 49 -60 34 -11
-6 -20 -20 -20 -32 0 -25 -26 -47 -56 -48 -24 0 -46 21 -43 42 3 27 -1 38 -21
48 -27 15 -60 -4 -60 -34 0 -33 -31 -56 -73 -56 -36 0 -37 1 -37 35 0 36 -20
55 -59 55 -14 0 -22 -8 -26 -27 -9 -42 -19 -56 -54 -77 -30 -17 -33 -17 -66
-2 -29 14 -35 22 -35 49 0 40 -15 57 -50 57 -32 0 -50 -17 -50 -46 0 -27 -57
-77 -77 -69 -8 3 -26 8 -39 11 -21 6 -23 10 -18 44 5 32 3 40 -14 49 -28 15
-67 14 -80 -1 -6 -7 -12 -26 -14 -42 -4 -41 -46 -70 -88 -61 -31 7 -32 9 -27
46 4 32 1 42 -16 54 -26 18 -68 20 -85 3 -7 -7 -12 -24 -12 -39 0 -41 -49 -79
-92 -70 -31 7 -33 9 -30 45 5 47 -19 76 -62 76 -45 0 -59 -13 -62 -57 -4 -47
-33 -73 -81 -73 l-36 0 5 44 c6 49 3 58 -29 75 -52 27 -103 -3 -103 -61 -1
-50 -39 -74 -99 -62 -41 8 -46 12 -43 34 2 14 4 34 5 45 1 13 -10 26 -35 40
-35 18 -40 19 -65 5 -21 -12 -29 -25 -31 -50 -4 -35 -23 -64 -53 -81 -16 -8
-135 21 -126 31 2 3 7 21 10 41 7 50 -19 79 -73 79 -47 0 -70 -21 -70 -64 0
-22 -9 -41 -28 -59 -32 -31 -40 -32 -79 -13 -15 8 -36 17 -45 20 -19 6 -24 41
-9 65 23 36 -43 78 -103 67 -36 -7 -46 -21 -46 -62 0 -39 -17 -62 -62 -85 -38
-19 -43 -20 -72 -6 -17 9 -39 18 -48 21 -14 4 -16 13 -11 56 5 42 3 53 -13 65
-27 20 -77 27 -108 15 -21 -8 -26 -16 -26 -45 0 -43 -23 -81 -61 -101 -40 -20
-65 -18 -86 9 -22 29 -54 47 -82 47 -24 0 -25 2 -10 54 20 74 -10 106 -102
106 -46 0 -69 -27 -69 -83 0 -42 -13 -58 -80 -102 -45 -28 -90 -73 -90 -88 0
-14 32 -70 82 -145 45 -67 49 -77 43 -113 -4 -21 -5 -39 -3 -40 37 -5 268 -9
268 -4 0 4 -18 27 -40 52 -34 39 -40 53 -40 90 l0 44 54 -6 c35 -5 56 -3 60 4
13 21 43 11 55 -17 10 -25 1 -73 -74 -373 -83 -336 -111 -446 -121 -481 -4
-14 1 -18 24 -18 16 0 34 6 39 13 6 6 19 64 31 127 17 90 26 118 42 129 17 11
20 24 20 77 0 35 3 64 6 64 3 0 15 -11 26 -25 10 -14 40 -32 66 -40 l47 -15
-42 5 c-33 4 -43 2 -43 -9 0 -22 46 -46 89 -46 35 0 40 3 50 31 15 45 14 51
-10 44 -15 -5 -19 -4 -15 4 5 7 -5 11 -28 11 -28 0 -42 8 -68 36 -18 20 -42
40 -53 45 -18 7 -19 8 -1 8 10 1 35 -17 56 -40 27 -30 43 -40 61 -37 16 2 24
10 24 23 0 20 -15 23 -47 10 -13 -5 -18 -2 -18 9 0 23 44 38 75 26 14 -5 25
-16 25 -25 0 -23 17 -18 23 7 8 28 1 38 -26 39 -17 1 -15 3 8 8 17 4 29 13 27
20 -1 7 2 19 8 26 9 10 7 16 -8 24 -23 12 -34 55 -19 70 19 19 26 12 21 -24
-3 -27 -1 -35 12 -35 11 0 15 6 11 20 -3 10 2 25 10 32 13 10 13 14 -3 25 -74
54 -168 -53 -115 -130 l22 -32 -26 29 c-23 25 -26 35 -21 68 3 21 3 38 -1 38
-4 0 -24 -19 -45 -42 -20 -24 -37 -39 -38 -35 0 5 22 30 49 57 27 27 47 51 43
54 -9 10 -52 7 -73 -4 -17 -10 -19 -7 -19 22 0 42 22 148 31 148 4 0 12 -7 20
-16 10 -12 10 -22 2 -45 -6 -16 -8 -31 -5 -33 4 -2 40 -4 81 -5 92 -1 144 -10
138 -25 -5 -13 -34 -130 -77 -316 -17 -74 -40 -172 -51 -218 -24 -98 -21 -114
18 -103 26 7 28 12 48 119 11 61 26 117 32 123 7 7 31 12 55 10 23 -1 63 4 90
10 42 11 48 16 48 38 0 14 4 33 10 41 6 11 1 22 -23 42 -18 15 -39 27 -47 28
-11 0 -12 2 -1 13 10 10 14 9 22 -6 6 -9 23 -24 40 -33 28 -14 31 -14 49 8 11
13 18 31 16 40 -3 11 2 18 11 18 9 0 12 -6 9 -17 -6 -20 -42 -175 -49 -213 -3
-14 -12 -52 -21 -85 -20 -78 -20 -75 9 -75 31 0 39 17 55 113 17 105 22 109
106 109 38 1 75 5 81 11 7 5 20 7 28 3 8 -3 15 -1 15 4 0 6 -8 10 -17 10 -10
0 -25 4 -32 9 -12 8 -9 11 13 17 21 5 32 1 47 -15 24 -26 39 -27 39 -2 0 26
-48 44 -120 45 -33 1 -60 4 -60 7 0 3 -10 11 -22 18 -20 9 -20 10 -3 7 11 -3
60 -7 108 -11 70 -6 87 -10 83 -21 -3 -8 -2 -14 3 -14 14 0 20 38 11 68 -7 24
-8 24 -9 5 -1 -13 -6 -23 -12 -23 -6 0 -8 9 -3 23 17 55 17 53 5 37 -9 -13
-12 -12 -25 5 -8 11 -12 22 -10 25 3 2 9 -2 15 -10 8 -13 10 -13 18 -1 7 11
10 9 16 -8 9 -29 21 -27 29 5 7 25 -13 53 -36 54 -5 0 -8 5 -8 11 0 6 9 4 22
-5 23 -17 48 -6 48 20 0 35 -130 80 -156 54 -5 -5 -26 -7 -47 -3 -30 4 -37 10
-37 28 0 13 7 25 15 29 13 4 13 9 3 25 -15 25 10 125 32 128 8 2 28 -16 44
-39 25 -36 27 -46 18 -70 -5 -15 -7 -29 -4 -32 3 -3 43 -6 88 -6 46 0 85 -4
88 -8 3 -5 -5 -51 -18 -103 -63 -251 -109 -450 -105 -453 2 -2 15 -2 30 1 23
4 27 12 45 101 18 93 20 97 47 100 17 2 25 8 21 14 -5 8 -1 9 12 4 51 -21 51
-21 49 39 -3 64 -10 78 -19 40 -4 -15 -17 -30 -32 -35 -39 -15 -43 -13 -34 23
5 17 13 48 17 67 7 29 14 35 43 41 41 9 45 6 35 -18 -13 -29 -14 -43 -4 -43 5
0 9 6 9 13 0 7 14 28 30 47 l30 35 -29 -50 c-28 -47 -34 -74 -32 -137 1 -21 6
-28 21 -28 18 0 20 4 15 34 -8 41 11 86 61 144 22 26 30 43 23 47 -6 4 -16 2
-22 -4 -17 -17 -31 -13 -17 4 7 8 25 15 40 15 33 0 43 9 29 26 -9 10 -7 15 5
20 9 3 16 12 16 20 0 10 -21 12 -100 9 -54 -2 -103 -6 -109 -9 -17 -11 -20 9
-10 88 15 123 36 144 77 80 17 -26 22 -45 18 -65 -6 -32 0 -35 84 -38 30 -1
58 -6 63 -10 4 -4 3 -20 -2 -37 -5 -16 -14 -48 -20 -72 -7 -23 -18 -42 -25
-42 -15 0 -50 -39 -78 -86 -26 -44 -22 -119 6 -119 16 0 24 16 43 89 22 87 41
130 30 71 -6 -36 -63 -280 -73 -314 -6 -22 -5 -24 17 -18 13 4 27 7 31 7 3 0
11 31 18 69 6 38 17 77 24 86 8 12 37 19 105 25 51 5 95 11 99 14 3 3 6 20 7
38 1 18 8 52 15 76 16 50 7 64 -20 34 -12 -12 -24 -22 -27 -22 -4 0 6 14 22
30 26 27 65 41 65 23 0 -5 -18 -80 -40 -167 -22 -88 -38 -162 -35 -164 2 -2
15 -2 28 2 21 5 26 15 37 73 7 38 16 73 20 78 5 6 10 21 13 35 4 24 4 24 6 -3
1 -28 2 -28 49 -21 57 8 59 10 65 54 l4 35 1 -37 c4 -84 32 -22 32 71 0 30 7
55 20 71 11 14 20 38 20 53 0 16 5 37 10 48 9 16 7 19 -8 19 -13 0 -23 -11
-30 -32 l-11 -33 5 32 c5 31 4 33 -25 33 -16 0 -32 -4 -35 -9 -3 -4 -16 -6
-30 -4 -21 4 -23 9 -21 49 5 67 15 104 29 104 18 0 35 -42 29 -73 -5 -27 -5
-27 55 -27 34 0 63 -4 66 -9 5 -8 -59 -291 -90 -395 -19 -64 -18 -76 6 -76 24
0 37 24 46 81 11 71 19 80 63 73 34 -5 40 -3 59 23 14 20 18 34 11 45 -6 11
-4 20 6 28 25 21 17 29 -36 36 -30 4 -47 10 -41 16 5 5 21 4 38 -2 37 -15 103
-15 116 -2 8 8 8 16 -2 26 -10 13 -9 17 3 22 16 6 33 56 28 86 -1 10 3 18 9
18 6 0 8 5 5 10 -4 6 -12 7 -18 3 -7 -4 -22 -6 -34 -4 -13 1 -23 -3 -23 -10 0
-8 -4 -8 -16 2 -14 11 -18 11 -29 -4 -10 -15 -14 -15 -18 -3 -4 9 -14 12 -26
9 -24 -6 -29 15 -6 23 12 5 13 10 4 20 -18 22 -2 101 21 107 25 6 52 -34 48
-71 -3 -24 1 -27 27 -28 97 -4 95 -3 95 -24 0 -11 -22 -102 -49 -203 -70 -266
-66 -239 -34 -235 25 3 28 9 39 60 13 66 30 94 49 78 8 -7 26 -6 56 3 24 8 51
11 59 9 8 -3 12 -1 8 3 -4 4 -1 13 8 19 8 7 17 31 20 55 4 41 3 42 -24 39 -16
-2 -28 -10 -30 -21 -3 -16 -1 -17 17 -7 12 6 21 7 21 2 0 -6 -8 -12 -17 -15
-10 -2 -25 -8 -34 -11 -11 -5 -18 -1 -22 13 -3 12 -1 24 4 27 20 12 7 24 -28
25 -33 1 -34 2 -13 8 22 6 23 8 8 17 -23 13 74 17 107 4 16 -6 25 -6 25 0 0 6
-8 10 -17 11 -12 1 -9 4 7 8 14 4 25 13 25 21 0 12 -16 15 -72 15 -39 0 -75 3
-79 7 -4 5 3 8 15 8 17 0 22 4 17 16 -6 15 0 16 51 9 32 -4 68 -7 80 -7 20 0
22 -4 17 -27 -11 -44 -75 -295 -80 -313 -4 -14 0 -18 18 -18 21 0 26 8 39 57
14 53 17 58 50 66 32 7 35 11 31 36 -2 16 1 32 8 36 9 5 10 1 5 -14 -4 -12 -2
-21 4 -21 6 0 11 6 11 14 0 8 4 17 9 20 5 4 7 -3 4 -14 -3 -11 -9 -23 -14 -26
-14 -8 -10 -24 6 -24 8 0 23 18 32 40 18 40 39 50 60 29 6 -6 16 -8 22 -5 18
11 12 44 -9 56 -29 15 -25 28 7 22 21 -4 25 -2 20 12 -4 9 -2 16 2 16 11 0 31
56 23 64 -3 4 -17 -4 -31 -16 -14 -13 -11 -6 8 14 56 61 21 74 -144 55 -18 -2
-20 3 -17 56 3 64 15 97 36 97 20 0 46 -44 39 -69 -3 -12 0 -22 6 -22 6 -1 16
-3 21 -4 6 -1 38 -3 71 -4 59 -1 61 -2 55 -23 -3 -13 -27 -102 -52 -198 -24
-96 -47 -183 -50 -193 -5 -15 -1 -18 17 -15 22 3 29 17 43 79 5 23 13 28 51
33 25 4 45 10 45 14 0 4 -16 18 -35 31 -32 22 -45 41 -27 41 4 0 25 -7 47 -15
56 -20 68 -19 62 5 -3 11 -2 20 2 20 9 0 32 72 26 78 -2 3 -17 -3 -32 -13 -18
-11 -13 -3 15 22 49 47 57 79 16 69 -19 -5 -25 -3 -22 6 6 16 29 21 47 9 13
-8 8 -35 -27 -177 -23 -92 -40 -169 -38 -172 3 -2 13 -1 24 2 13 4 22 19 27
42 15 82 29 92 120 85 17 -2 27 1 22 5 -4 4 0 16 10 26 11 12 17 37 17 73 1
36 5 55 13 55 7 0 10 6 7 14 -3 8 0 17 6 21 8 5 7 14 -4 31 -14 20 -14 23 -1
18 10 -4 15 0 15 15 0 21 -10 27 -24 14 -7 -7 -97 -5 -105 3 -2 2 1 10 8 17 6
8 9 22 5 31 -18 46 36 100 60 60 6 -11 11 -28 11 -39 0 -16 8 -21 35 -23 19
-2 38 -7 43 -11 4 -4 1 -29 -7 -57 -23 -77 -73 -275 -80 -316 -7 -36 -6 -37
16 -29 16 6 25 19 29 45 3 20 8 38 11 41 2 3 28 8 58 12 59 9 91 39 94 89 1
16 5 35 10 42 4 7 3 19 -4 27 -10 12 -9 16 4 21 9 3 14 10 11 14 -3 4 2 13 10
20 21 17 9 30 -28 31 -30 1 -30 2 8 9 22 4 42 6 44 4 3 -3 -53 -231 -75 -307
-5 -15 -1 -18 18 -15 18 2 25 12 32 45 9 46 27 56 101 57 33 1 40 5 41 21 0
11 4 28 8 37 10 22 -2 42 -17 30 -7 -4 -25 -14 -42 -20 -28 -11 -28 -11 -11 3
11 8 26 15 33 15 17 0 17 20 1 21 -7 0 2 5 21 12 40 14 58 44 20 33 -13 -4
-42 -9 -64 -11 l-40 -5 40 10 c22 6 43 17 48 25 4 8 17 15 27 15 11 0 20 7 20
15 0 12 -14 15 -62 17 l-63 2 55 3 c63 5 77 13 61 40 -6 10 -11 12 -11 6 0 -9
-17 -13 -51 -13 l-51 0 6 31 c3 17 6 41 6 53 0 12 7 31 15 42 14 19 15 19 34
-5 10 -13 16 -32 14 -42 -5 -17 1 -19 41 -19 40 0 46 -3 46 -21 0 -11 -20 -95
-45 -187 -25 -91 -45 -170 -45 -174 0 -4 9 -8 20 -8 13 0 21 9 25 28 10 47 21
57 67 62 25 3 53 12 62 19 19 16 21 4 7 -46 -5 -17 -7 -34 -4 -37 12 -11 32 8
39 37 9 46 22 57 64 57 46 0 97 35 80 55 -6 8 -24 16 -38 18 -25 4 -24 4 3 3
35 0 58 11 49 25 -3 5 0 16 6 24 7 8 10 22 6 30 -3 8 -1 15 4 15 6 0 10 9 10
19 0 11 5 23 11 27 13 8 9 -14 -31 -169 -26 -101 -26 -107 -9 -107 12 0 19 7
19 19 0 33 12 52 37 62 22 8 23 11 12 26 -13 15 -12 15 8 5 22 -12 83 -17 83
-6 0 3 -10 15 -22 26 -21 18 -20 18 9 -1 43 -29 71 -27 79 4 12 48 15 17 5
-41 -6 -31 -9 -59 -7 -61 11 -11 36 13 42 40 9 43 22 57 53 57 35 0 53 13 45
33 -3 9 -2 17 4 17 6 0 14 14 17 32 6 26 3 35 -15 50 -16 13 -18 18 -7 18 19
0 27 12 37 56 8 35 0 44 -44 44 -13 0 -25 3 -28 6 -8 7 11 75 24 92 14 16 38
-3 38 -29 0 -14 7 -19 29 -19 17 0 32 -3 34 -7 2 -5 -13 -69 -34 -143 -21 -74
-41 -155 -45 -178 -6 -39 -5 -44 12 -40 13 2 21 16 27 44 7 39 11 43 53 53 38
10 44 15 39 31 -4 12 -2 20 4 20 20 0 11 20 -11 30 l-23 9 23 0 c17 1 27 11
38 37 8 20 13 43 9 52 -3 8 2 23 11 33 23 26 10 38 -36 32 -39 -6 -40 -5 -40
26 0 21 -5 31 -15 31 -8 0 -15 7 -15 16 0 11 6 14 20 9 12 -4 20 -2 20 5 0 22
34 5 40 -20 4 -18 14 -26 34 -28 25 -3 27 -6 21 -35 -3 -18 -10 -43 -15 -57
-5 -14 -20 -74 -35 -135 -14 -60 -28 -116 -31 -123 -2 -8 3 -12 12 -10 10 2
22 22 31 50 8 28 20 49 32 53 10 3 29 17 42 32 l24 26 -35 -6 c-19 -3 -30 -3
-23 -1 7 3 9 13 6 22 -4 15 -3 15 6 2 8 -11 15 -12 27 -5 9 6 17 15 17 20 -1
6 6 19 13 30 21 30 17 64 -8 75 l-23 9 23 0 c13 1 22 7 22 17 0 11 -8 15 -27
12 -26 -3 -28 0 -28 35 -1 24 4 37 12 37 7 0 13 -9 13 -20 0 -15 7 -20 29 -20
17 0 32 -4 35 -9 3 -4 -10 -64 -28 -132 -44 -162 -53 -213 -35 -207 8 2 20 25
28 51 12 38 20 49 40 53 46 9 56 20 57 59 1 20 7 41 14 45 17 11 3 30 -23 31
-20 1 -20 2 3 8 l25 7 -25 9 c-24 8 -23 9 15 16 22 4 41 6 43 5 1 -2 -5 -25
-13 -52 -8 -27 -22 -78 -30 -114 -9 -36 -18 -73 -21 -82 -4 -12 0 -18 11 -18
16 0 32 31 38 77 3 22 14 33 49 50 38 18 47 28 52 56 4 19 4 41 1 49 -4 9 1
18 9 21 9 4 16 15 16 26 0 16 -8 21 -42 24 l-43 4 48 1 c34 1 47 6 44 15 -2 7
-18 11 -40 9 -34 -3 -37 -1 -37 22 0 16 -6 26 -15 26 -28 0 -15 17 17 24 35 7
38 5 42 -20 2 -10 14 -21 27 -24 16 -4 24 -13 23 -26 -1 -17 -35 -154 -65
-267 -6 -22 -8 -41 -5 -44 10 -11 36 7 36 24 0 10 5 34 10 54 8 30 17 38 50
49 22 7 39 18 37 24 -3 6 1 18 8 26 13 15 19 34 16 55 0 6 -18 10 -38 8 l-38
-2 43 11 c52 13 54 28 5 29 l-38 1 40 9 c68 16 76 45 11 41 -39 -3 -50 14 -32
49 15 31 46 38 46 10 0 -13 8 -21 23 -23 28 -4 27 -25 -3 -133 -12 -44 -24
-91 -26 -105 -3 -14 -9 -40 -14 -59 -10 -39 -8 -46 14 -38 8 3 18 28 23 58 7
46 11 53 38 61 58 18 61 21 30 28 l-30 8 27 1 c16 1 32 9 38 21 9 17 7 22 -12
29 -49 18 -52 21 -15 16 29 -5 37 -3 37 10 0 8 -6 15 -12 16 -7 0 -3 4 10 9
15 6 22 18 22 35 0 22 -4 25 -38 25 -38 0 -38 0 -34 35 5 38 21 47 29 15 4
-14 14 -20 34 -20 36 0 41 -9 28 -51 -41 -141 -69 -273 -60 -282 7 -7 15 0 26
26 8 20 15 44 15 54 0 45 12 62 44 65 19 2 30 8 28 16 -1 9 6 10 24 6 18 -5
30 -1 45 14 30 33 23 49 -36 88 -45 30 -55 42 -55 65 0 67 37 103 50 48 5 -19
13 -25 43 -27 35 -3 49 9 27 23 -17 11 -11 35 9 35 11 0 23 5 26 10 3 6 19 10
35 10 22 0 30 -6 39 -30 5 -16 17 -30 25 -30 13 0 16 16 16 96 0 85 -2 95 -15
84 -8 -7 -15 -18 -15 -24 0 -7 -14 -23 -31 -36 -39 -28 -80 -19 -89 20 -9 37
-36 37 -55 1 -8 -17 -22 -31 -30 -31 -8 0 -15 -4 -15 -10 0 -5 -9 -10 -20 -10
-18 0 -24 10 -22 32 1 3 -5 12 -13 18 -20 16 -45 5 -45 -19 0 -18 -35 -39 -46
-28 -3 2 -1 46 3 97 l8 92 52 20 c69 25 151 101 191 175 128 241 -7 525 -278
582 -30 7 -100 15 -154 18 l-99 6 39 31 c73 58 164 149 193 195 128 201 48
473 -169 575 -80 37 -201 48 -274 23 l-45 -16 -36 48 c-92 126 -262 185 -417
143z m77 -1638 c35 -131 78 -243 134 -350 l50 -95 -24 -11 c-30 -14 -55 -4
-55 21 0 20 -21 33 -36 23 -5 -4 -15 -19 -23 -34 -16 -31 -36 -41 -63 -32 -12
4 -18 13 -16 27 2 18 -2 22 -22 22 -17 0 -26 -6 -28 -20 -2 -11 -14 -28 -27
-38 -30 -22 -62 -9 -67 25 -5 36 -37 35 -49 0 -9 -27 -35 -49 -46 -38 -6 6 75
241 119 346 51 121 118 253 124 247 3 -2 15 -44 29 -93z m1185 -368 c0 -11
-19 -15 -25 -6 -3 5 1 10 9 10 9 0 16 -2 16 -4z m-150 -26 c0 -5 -4 -10 -10
-10 -5 0 -10 5 -10 10 0 6 5 10 10 10 6 0 10 -4 10 -10z m-12 -47 c-4 -22 -22
-20 -26 1 -2 10 3 16 13 16 10 0 15 -7 13 -17z m-368 -3 c0 -5 -5 -10 -11 -10
-5 0 -7 5 -4 10 3 6 8 10 11 10 2 0 4 -4 4 -10z m-380 -40 c0 -5 -4 -10 -10
-10 -5 0 -10 5 -10 10 0 6 5 10 10 10 6 0 10 -4 10 -10z m-150 -20 c0 -5 -4
-10 -10 -10 -5 0 -10 5 -10 10 0 6 5 10 10 10 6 0 10 -4 10 -10z m440 -10 c0
-14 7 -20 23 -20 41 0 51 -14 34 -45 -9 -18 -17 -24 -21 -16 -4 6 -23 11 -42
11 -36 0 -42 14 -28 68 8 27 34 29 34 2z m-565 0 c3 -5 -1 -10 -10 -10 -9 0
-13 5 -10 10 3 6 8 10 10 10 2 0 7 -4 10 -10z m515 0 c0 -5 -2 -10 -4 -10 -3
0 -8 5 -11 10 -3 6 -1 10 4 10 6 0 11 -4 11 -10z m-800 -41 c0 -5 -7 -9 -15
-9 -15 0 -20 12 -9 23 8 8 24 -1 24 -14z m145 11 c-3 -5 -10 -10 -16 -10 -5 0
-9 5 -9 10 0 6 7 10 16 10 8 0 12 -4 9 -10z m255 -5 c0 -8 -4 -15 -10 -15 -5
0 -10 7 -10 15 0 8 5 15 10 15 6 0 10 -7 10 -15z m-568 -10 c0 -5 -5 -11 -11
-13 -6 -2 -11 4 -11 13 0 9 5 15 11 13 6 -2 11 -8 11 -13z m486 -13 c3 -17 10
-22 31 -22 15 0 30 -3 33 -6 6 -5 -4 -53 -36 -168 -18 -67 -20 -71 -36 -61 -8
5 -6 13 6 26 12 14 15 29 11 59 -3 22 -1 38 3 35 9 -5 23 25 15 33 -2 3 -11
-1 -20 -8 -8 -7 -15 -9 -15 -4 0 14 14 30 30 38 12 5 -120 -1 -154 -7 -15 -3
-20 35 -4 45 7 4 28 6 46 3 33 -6 34 -6 27 24 -5 23 -2 30 12 34 32 9 48 2 51
-21z m-660 7 c-2 -6 -8 -10 -13 -10 -5 0 -11 4 -13 10 -2 6 4 11 13 11 9 0 15
-5 13 -11z m508 -51 c-15 -70 -23 -81 -72 -97 -39 -13 -44 -12 -73 10 -26 19
-31 28 -25 49 3 14 7 34 8 45 1 27 30 26 34 -2 3 -17 11 -22 43 -25 49 -4 52
-2 32 28 -9 14 -14 26 -12 27 11 7 65 23 70 21 3 -2 1 -27 -5 -56z m-696 42
c0 -5 -5 -10 -11 -10 -5 0 -7 5 -4 10 3 6 8 10 11 10 2 0 4 -4 4 -10z m1735 0
c3 -5 1 -10 -4 -10 -6 0 -11 5 -11 10 0 6 2 10 4 10 3 0 8 -4 11 -10z m-1925
-15 c0 -8 -4 -15 -10 -15 -5 0 -10 7 -10 15 0 8 5 15 10 15 6 0 10 -7 10 -15z
m-2729 -11 c44 -22 37 -58 -11 -62 -53 -4 -65 9 -46 47 19 36 18 36 57 15z
m2525 5 c8 -13 -13 -29 -38 -29 -11 0 -18 8 -18 20 0 15 7 20 24 20 14 0 28
-5 32 -11z m912 -17 c2 -15 -2 -22 -12 -22 -11 0 -16 9 -16 26 0 31 23 28 28
-4z m-1160 -5 c2 -12 -3 -17 -17 -17 -15 0 -21 6 -21 21 0 25 33 22 38 -4z
m992 -8 c0 -20 -15 -26 -25 -9 -9 15 3 43 15 35 5 -3 10 -15 10 -26z m58 -1
c7 -30 12 -33 50 -36 34 -3 42 -7 42 -23 0 -20 -59 -240 -66 -248 -2 -3 -9 0
-16 7 -8 8 -6 15 6 28 23 23 14 28 -47 27 l-52 -1 51 8 c57 8 77 17 69 30 -3
4 2 21 10 36 20 38 19 46 -6 78 -25 31 -54 35 -46 6 5 -19 4 -19 -19 -2 -24
18 -28 38 -18 91 8 40 31 40 42 -1z m-235 16 c3 -4 1 -16 -4 -27 -9 -15 -13
-17 -19 -7 -14 23 5 51 23 34z m1732 -4 c3 -6 -1 -7 -9 -4 -18 7 -21 14 -7 14
6 0 13 -4 16 -10z m-2787 -23 c2 -10 -3 -17 -12 -17 -10 0 -16 9 -16 21 0 24
23 21 28 -4z m936 7 c3 -9 6 -24 6 -34 0 -15 9 -19 43 -22 36 -3 42 -6 42 -26
0 -22 -4 -23 -82 -28 -76 -4 -95 1 -76 20 4 4 8 25 8 47 1 39 15 58 41 59 7 0
15 -7 18 -16z m-2592 -19 c16 -35 0 -49 -36 -35 -20 7 -26 15 -22 26 3 9 6 20
6 25 0 20 41 8 52 -16z m312 9 c8 -22 8 -44 -1 -44 -20 1 -32 18 -26 38 6 26
18 29 27 6z m324 -11 c12 -24 4 -43 -16 -43 -29 0 -40 13 -31 38 10 26 35 29
47 5z m276 1 c13 -33 4 -42 -22 -26 -7 5 -10 16 -6 25 8 21 20 22 28 1z m504
5 c-2 -6 -8 -10 -13 -10 -5 0 -11 4 -13 10 -2 6 4 11 13 11 9 0 15 -5 13 -11z
m796 -66 c-6 -21 -3 -23 40 -23 44 0 46 -1 46 -29 0 -31 -15 -50 -22 -29 -3 7
-27 11 -71 9 -38 -1 -67 2 -67 8 0 11 20 109 27 131 8 26 53 -40 47 -67z m117
54 c-13 -13 -26 -3 -16 12 3 6 11 8 17 5 6 -4 6 -10 -1 -17z m2066 17 c-3 -3
-12 -4 -19 -1 -8 3 -5 6 6 6 11 1 17 -2 13 -5z m-2247 -20 c0 -24 -25 -84 -35
-84 -17 0 -45 44 -45 70 0 17 6 20 40 20 22 0 40 -3 40 -6z m1336 -23 c-11
-21 -12 -31 -3 -40 8 -8 7 -11 -7 -11 -14 0 -17 5 -11 23 4 12 7 30 6 40 0 9
7 17 15 17 13 0 13 -4 0 -29z m165 3 c-17 -14 -32 -36 -32 -47 -1 -19 -2 -19
-6 -4 -5 19 41 77 60 77 5 0 -5 -12 -22 -26z m376 20 c-3 -3 -12 -4 -19 -1 -8
3 -5 6 6 6 11 1 17 -2 13 -5z m-2152 -46 c-9 -39 -11 -42 -24 -33 -6 3 -11 19
-11 36 0 23 4 29 21 29 18 0 20 -4 14 -32z m1432 -15 c-3 -10 -5 -2 -5 17 0
19 2 27 5 18 2 -10 2 -26 0 -35z m-1665 1 c-4 -34 -7 -38 -21 -29 -12 7 -15
48 -4 59 14 14 28 -2 25 -30z m-242 -3 c0 -32 -14 -49 -25 -31 -9 15 3 60 15
60 6 0 10 -13 10 -29z m311 13 c7 -9 12 -29 11 -45 -2 -28 -2 -28 60 -31 63
-3 63 -3 61 -32 -3 -38 -7 -40 -35 -23 -27 17 -135 9 -147 -12 -6 -9 -10 -7
-14 8 -2 11 -2 22 1 25 3 4 7 28 8 56 1 27 5 54 9 60 9 15 31 12 46 -6z m2426
0 c-3 -3 -12 -4 -19 -1 -8 3 -5 6 6 6 11 1 17 -2 13 -5z m-3227 -24 c0 -29
-15 -70 -25 -70 -16 0 -24 30 -18 63 4 18 10 23 24 20 10 -3 19 -9 19 -13z
m-912 -14 c7 -7 -7 -89 -19 -106 -15 -24 -59 35 -59 81 0 20 3 38 6 41 5 6 62
-7 72 -16z m82 -27 c28 -43 31 -54 22 -74 -6 -13 -8 -26 -4 -29 4 -2 40 -4 81
-5 41 0 78 -4 83 -9 5 -5 2 -37 -7 -74 l-17 -66 -41 0 c-39 -1 -41 0 -23 14
11 8 25 14 32 14 7 0 17 14 23 31 l11 31 -114 -5 c-63 -2 -118 -2 -124 2 -11
7 25 221 38 221 4 0 23 -23 40 -51z m226 36 c3 -8 0 -30 -6 -50 -10 -29 -14
-34 -26 -24 -8 6 -14 29 -14 50 0 33 3 39 20 39 11 0 23 -7 26 -15z m674 -21
c16 -24 21 -44 16 -65 -3 -16 -2 -29 2 -30 4 0 34 -2 67 -5 88 -7 86 -4 68
-71 -17 -67 -21 -73 -33 -53 -7 12 -12 11 -29 -5 -12 -10 -24 -16 -27 -12 -3
3 4 10 15 16 23 13 72 81 66 91 -6 9 -96 0 -110 -11 -6 -4 -17 -4 -24 0 -8 5
-28 3 -47 -5 -31 -13 -34 -13 -35 3 -1 10 0 23 1 28 2 6 4 24 5 40 2 27 10 69
21 103 6 21 22 13 44 -24z m194 -1 c-8 -45 -9 -47 -23 -38 -6 3 -11 22 -11 41
0 28 4 34 20 34 19 0 20 -4 14 -37z m-557 19 c9 -5 9 -18 0 -50 -13 -48 -19
-51 -41 -20 -16 23 -21 60 -9 71 8 9 35 9 50 -1z m2348 -12 c4 -6 -7 -10 -27
-9 -27 0 -30 2 -13 9 27 12 33 12 40 0z m184 -16 c14 -12 -19 -1 -35 12 -18
14 -18 14 6 3 14 -6 27 -13 29 -15z m175 11 c3 -8 1 -15 -4 -15 -6 0 -10 7
-10 15 0 8 2 15 4 15 2 0 6 -7 10 -15z m179 -2 c-7 -2 -21 -2 -30 0 -10 3 -4
5 12 5 17 0 24 -2 18 -5z m-263 -36 c0 -5 -4 -5 -10 -2 -5 3 -10 14 -10 23 0
15 2 15 10 2 5 -8 10 -19 10 -23z m-883 -3 c-3 -3 -12 -4 -19 -1 -8 3 -5 6 6
6 11 1 17 -2 13 -5z m718 -14 c18 -19 17 -20 -3 -20 -15 0 -20 6 -19 20 1 11
2 20 3 20 0 0 9 -9 19 -20z m-908 -6 c-3 -3 -12 -4 -19 -1 -8 3 -5 6 6 6 11 1
17 -2 13 -5z m576 -1 c-7 -2 -19 -2 -25 0 -7 3 -2 5 12 5 14 0 19 -2 13 -5z
m214 1 c-3 -3 -12 -4 -19 -1 -8 3 -5 6 6 6 11 1 17 -2 13 -5z m297 -10 c3 -8
2 -12 -4 -9 -6 3 -10 10 -10 16 0 14 7 11 14 -7z m363 10 c-3 -3 -12 -4 -19
-1 -8 3 -5 6 6 6 11 1 17 -2 13 -5z m-1590 -35 c-12 -14 -24 -22 -25 -17 -2 4
-8 6 -13 2 -5 -3 -9 0 -9 6 0 7 7 9 16 6 11 -4 15 -2 11 8 -7 18 0 25 23 23
17 -1 16 -3 -3 -28z m526 24 c-7 -2 -19 -2 -25 0 -7 3 -2 5 12 5 14 0 19 -2
13 -5z m685 -29 c-10 -10 -28 6 -28 24 0 15 1 15 17 -1 9 -9 14 -19 11 -23z
m252 26 c0 -5 -10 -10 -22 -10 -19 0 -20 2 -8 10 19 13 30 13 30 0z m-1552
-31 c23 -28 22 -41 -1 -16 -26 27 -39 47 -31 46 5 0 19 -13 32 -30z m277 11
c-3 -5 -12 -10 -18 -10 -7 0 -6 4 3 10 19 12 23 12 15 0z m-290 -91 c-4 -5
-16 -8 -28 -8 -19 1 -19 2 -3 6 15 4 17 12 13 41 l-5 37 14 -33 c8 -18 12 -37
9 -43z m805 64 c-8 -3 -21 -12 -27 -21 -15 -18 -28 -10 -20 13 4 9 18 15 34
14 15 0 21 -3 13 -6z m-1195 -23 c10 -11 14 -20 9 -20 -5 0 -15 9 -22 20 -7
11 -11 20 -9 20 2 0 12 -9 22 -20z m615 -4 c0 -2 -7 -7 -16 -10 -8 -3 -12 -2
-9 4 6 10 25 14 25 6z m-1160 -10 c0 -2 -8 -10 -17 -17 -16 -13 -17 -12 -4 4
13 16 21 21 21 13z m1038 -15 c3 -8 -1 -12 -9 -9 -7 2 -15 10 -17 17 -3 8 1
12 9 9 7 -2 15 -10 17 -17z m572 15 c0 -2 -8 -10 -17 -17 -16 -13 -17 -12 -4
4 13 16 21 21 21 13z m507 -2 c-3 -3 -12 -4 -19 -1 -8 3 -5 6 6 6 11 1 17 -2
13 -5z m-1596 -21 c13 -16 12 -17 -3 -4 -10 7 -18 15 -18 17 0 8 8 3 21 -13z
m473 2 c3 -8 1 -15 -4 -15 -6 0 -10 7 -10 15 0 8 2 15 4 15 2 0 6 -7 10 -15z
m416 11 c0 -2 -8 -10 -17 -17 -16 -13 -17 -12 -4 4 13 16 21 21 21 13z m-1209
-29 c-10 -9 -11 -8 -5 6 3 10 9 15 12 12 3 -3 0 -11 -7 -18z m977 4 c-7 -11
-16 -17 -22 -14 -5 3 -1 12 9 20 25 18 27 17 13 -6z m-1430 -7 c-16 -8 -28
-17 -28 -21 0 -6 55 1 85 13 14 5 17 4 10 -4 -15 -16 -129 -37 -151 -27 -16 7
-14 9 16 19 19 6 44 16 55 23 11 7 25 12 30 12 6 0 -2 -7 -17 -15z m545 -46
c-3 -35 -10 -67 -15 -73 -10 -10 -5 57 9 113 9 39 11 24 6 -40z m1269 40 c-7
-7 -12 -8 -12 -2 0 14 12 26 19 19 2 -3 -1 -11 -7 -17z m208 8 c0 -2 -7 -7
-16 -10 -8 -3 -12 -2 -9 4 6 10 25 14 25 6z m-2366 -22 c5 -14 4 -15 -9 -4
-17 14 -19 20 -6 20 5 0 12 -7 15 -16z m46 -5 l25 -20 -32 16 c-18 8 -33 18
-33 20 0 10 16 4 40 -16z m977 15 c-3 -3 -12 -4 -19 -1 -8 3 -5 6 6 6 11 1 17
-2 13 -5z m503 -8 c0 -8 -4 -18 -10 -21 -5 -3 -10 -1 -10 4 0 20 -20 11 -30
-13 -5 -13 -15 -28 -22 -32 -10 -6 -11 -5 -1 7 7 9 9 20 3 29 -13 21 7 40 41
40 19 0 29 -5 29 -14z m-754 -42 c-8 -21 -15 -34 -15 -28 -1 15 20 76 25 71 2
-2 -2 -21 -10 -43z m-822 27 c3 -4 -6 -6 -19 -3 -14 2 -25 6 -25 8 0 8 39 4
44 -5z m1609 -11 c-10 -11 -19 -20 -21 -20 -1 0 2 9 8 20 6 11 15 20 20 20 6
0 2 -9 -7 -20z m-2114 -28 c-15 -25 -6 -50 23 -62 13 -5 17 -9 9 -9 -38 -2
-66 60 -39 87 17 17 21 7 7 -16z m233 -3 c-52 -24 -46 -39 16 -40 31 0 41 -3
28 -8 -16 -6 -14 -11 18 -39 20 -18 32 -32 26 -32 -6 0 -22 12 -35 26 -22 24
-30 26 -85 22 -33 -2 -55 -1 -48 4 7 4 21 8 31 8 9 0 17 5 17 10 0 6 -14 10
-32 10 -39 0 -31 8 35 36 65 28 87 29 29 3z m293 -7 c17 -16 37 -37 45 -47 14
-18 13 -19 -1 -8 -9 7 -19 10 -22 6 -4 -3 -16 6 -28 20 -19 25 -59 37 -59 19
0 -11 60 -56 84 -62 33 -9 28 -26 -8 -26 -19 0 -33 3 -30 7 2 4 -11 20 -31 35
-33 25 -46 60 -28 77 14 15 49 5 78 -21z m288 13 c-4 -15 -36 -12 -41 3 -3 9
3 13 19 10 13 -1 23 -7 22 -13z m349 -21 c-23 -20 -47 -45 -53 -56 -10 -18 -9
-20 7 -14 15 6 13 1 -6 -19 -25 -26 -25 -27 -5 -42 19 -15 19 -15 -7 -11 -15
3 -29 0 -32 -6 -2 -6 -5 0 -5 14 -1 14 6 37 15 50 24 36 107 120 118 120 5 0
-9 -16 -32 -36z m631 0 c-30 -24 -41 -18 -24 15 7 13 17 17 32 14 20 -6 20 -7
-8 -29z m-1175 1 c-3 -3 -9 2 -12 12 -6 14 -5 15 5 6 7 -7 10 -15 7 -18z
m-228 -21 c0 -9 -7 -14 -17 -12 -25 5 -28 28 -4 28 12 0 21 -6 21 -16z m1201
-5 c9 -18 7 -25 -13 -46 -16 -15 -30 -21 -41 -17 -24 9 -21 22 5 26 26 3 37
36 16 49 -10 7 -9 9 4 9 10 0 22 -10 29 -21z m-281 -21 c0 -21 -3 -29 -10 -22
-5 5 -7 19 -4 32 9 31 14 27 14 -10z m-975 -6 c-3 -3 -11 0 -18 7 -9 10 -8 11
6 5 10 -3 15 -9 12 -12z m835 14 c0 -2 -8 -10 -17 -17 -16 -13 -17 -12 -4 4
13 16 21 21 21 13z m623 -11 c-3 -9 -8 -14 -10 -11 -3 3 -2 9 2 15 9 16 15 13
8 -4z m-1327 -31 c18 -14 18 -14 -6 -3 -31 14 -36 19 -24 19 6 0 19 -7 30 -16z
m-316 -18 c0 -2 -8 -10 -17 -17 -16 -13 -17 -12 -4 4 13 16 21 21 21 13z m60
-6 c0 -5 -6 -10 -14 -10 -8 0 -18 5 -21 10 -3 6 3 10 14 10 12 0 21 -4 21 -10z
m310 -67 c-8 -3 -27 -12 -42 -20 -16 -7 -28 -11 -28 -9 0 9 54 35 70 35 13 -1
13 -1 0 -6z"/>
<path d="M9352 1001 c-35 -6 -43 -20 -18 -36 18 -11 90 20 81 35 -7 11 -12 11
-63 1z"/>
<path d="M6475 2677 c-108 -49 -206 -277 -249 -577 -39 -275 -46 -628 -14
-726 26 -80 94 -46 118 59 6 28 7 110 4 209 -15 378 45 724 137 791 21 15 29
16 52 6 72 -33 94 -211 51 -426 -20 -98 -38 -137 -78 -168 -42 -32 -56 -82
-56 -199 l0 -84 85 28 c92 32 235 60 303 60 24 0 52 5 63 10 45 25 48 48 60
454 11 373 11 385 -8 418 -10 18 -32 37 -47 43 -24 8 -31 6 -46 -12 -22 -27
-27 -95 -36 -433 -4 -170 -10 -257 -18 -262 -10 -7 -116 -12 -116 -5 0 1 7 34
15 72 25 119 37 321 25 418 -30 244 -130 376 -245 324z"/>
<path d="M7245 2531 c-70 -32 -121 -157 -95 -235 12 -39 58 -82 72 -68 4 4 18
28 31 52 27 54 67 85 99 77 36 -9 87 -65 100 -111 17 -59 14 -210 -5 -278 -12
-38 -31 -71 -59 -102 -57 -60 -81 -65 -138 -27 -52 36 -75 39 -90 12 -16 -30
-12 -102 8 -140 32 -65 148 -101 226 -71 43 16 107 82 137 142 83 164 82 426
-2 590 -31 61 -98 128 -154 154 -60 28 -78 29 -130 5z"/>
<path d="M3319 2523 c-12 -3 -18 -21 -23 -66 -3 -34 -8 -75 -11 -92 -3 -20 -2
-23 3 -10 11 30 52 106 73 137 11 14 19 29 19 32 0 7 -36 6 -61 -1z"/>
<path d="M8288 2479 c-25 -14 -94 -118 -130 -195 -26 -55 -32 -62 -48 -54 -33
18 -111 12 -145 -11 -97 -67 -155 -258 -155 -516 0 -105 1 -113 26 -142 15
-18 35 -31 49 -31 44 0 50 22 56 209 7 186 19 248 62 312 13 19 33 35 46 37
21 3 23 1 17 -20 -4 -12 -15 -48 -24 -78 -11 -37 -16 -93 -17 -175 0 -112 2
-124 28 -178 18 -36 39 -63 57 -72 89 -46 200 23 252 155 17 43 22 78 22 155
1 120 -23 192 -85 257 -26 28 -37 47 -34 59 3 10 35 66 70 125 36 59 65 113
65 120 0 18 -49 54 -74 54 -11 0 -29 -5 -38 -11z m-57 -491 c50 -96 32 -279
-28 -294 -44 -11 -56 17 -49 117 5 74 39 219 51 219 3 0 14 -19 26 -42z"/>
<path d="M9615 2438 c-24 -43 -29 -66 -29 -122 -1 -45 3 -70 11 -73 14 -5 46
54 63 116 12 45 6 131 -9 131 -4 0 -21 -24 -36 -52z"/>
<path d="M9054 2305 c-11 -29 2 -130 21 -170 50 -102 71 18 22 128 -27 60 -34
67 -43 42z"/>
<path d="M5053 2064 c-32 -16 -37 -26 -33 -72 3 -35 -25 -69 -85 -103 -60 -34
-85 -62 -85 -95 0 -12 30 -66 66 -120 50 -77 64 -105 60 -124 -12 -51 -45
-249 -61 -360 -9 -63 -20 -133 -25 -155 -5 -22 -12 -65 -15 -96 l-7 -56 94
-17 c161 -29 238 -48 238 -59 0 -10 -55 -239 -145 -602 -25 -99 -45 -186 -45
-193 0 -17 139 -16 162 2 10 7 23 44 33 92 20 101 44 201 57 237 8 20 15 26
27 21 25 -10 65 -14 243 -20 157 -5 167 -4 172 13 9 27 -16 103 -49 149 l-27
39 7 -38 c3 -21 9 -45 12 -53 3 -8 1 -14 -5 -14 -5 0 -12 18 -16 41 -7 45 -46
113 -76 131 -11 7 -20 17 -20 21 0 5 16 -5 35 -22 20 -17 40 -31 46 -31 17 0
61 -38 49 -42 -6 -2 0 -19 13 -38 29 -43 47 -93 47 -131 0 -24 4 -29 24 -29
18 0 27 8 35 31 15 42 -5 85 -60 133 -24 21 -34 33 -22 27 12 -6 25 -16 28
-21 10 -16 25 -11 25 8 0 11 -10 24 -22 30 -18 8 -11 9 34 5 55 -6 58 -5 68
21 5 15 10 36 10 47 0 16 -5 19 -22 14 -16 -4 -12 0 10 15 23 14 32 26 28 36
-3 9 -6 20 -6 25 0 12 -81 11 -100 -1 -9 -6 -17 -5 -21 1 -3 6 -43 13 -87 16
-70 5 -82 3 -88 -11 -3 -9 -13 -16 -21 -16 -13 0 -13 3 -3 15 11 13 5 15 -52
14 -35 -1 -74 2 -86 5 -13 5 -22 3 -22 -3 0 -6 1 -11 3 -11 2 0 56 -18 121
-40 162 -55 230 -54 321 3 l30 19 -30 -26 c-16 -14 -33 -26 -37 -26 -4 0 -5
-6 -2 -14 4 -10 -8 -16 -48 -20 -29 -4 -65 -9 -80 -12 -18 -4 -32 1 -47 17
-12 13 -35 23 -58 25 -56 6 -173 47 -173 62 0 6 -4 12 -10 12 -13 0 -13 57 0
65 5 3 26 2 46 -4 l36 -10 -8 112 c-12 156 -10 251 8 327 9 36 23 101 32 145
9 44 21 94 25 110 5 17 12 47 15 67 6 32 14 41 60 68 84 48 88 98 5 61 -58
-27 -81 -26 -108 3 -19 21 -22 31 -16 72 4 27 11 66 17 88 15 60 6 70 -42 45
-22 -11 -57 -23 -78 -26 -32 -4 -44 0 -81 31 -24 20 -54 36 -67 36 -23 0 -24
3 -19 38 4 20 9 45 11 54 6 22 -38 68 -65 68 -11 0 -25 2 -33 5 -7 2 -28 -3
-45 -11z m189 -279 c14 -32 -5 -58 -36 -49 -30 9 -30 10 -16 44 15 36 36 39
52 5z m195 -22 c-7 -39 -29 -69 -45 -59 -9 6 3 55 21 84 17 25 30 12 24 -25z
m53 -173 c8 -5 12 -10 10 -12 -53 -34 -70 -35 -70 -3 0 19 5 25 23 25 12 0 29
-4 37 -10z m-2 -82 c-3 -7 -20 -62 -37 -123 -18 -60 -36 -114 -41 -118 -16
-17 -21 73 -9 148 8 54 17 78 28 82 9 2 23 8 31 13 22 13 33 12 28 -2z m-276
-80 c6 -17 -1 -38 -13 -38 -5 0 -9 11 -9 25 0 26 14 34 22 13z m403 -744 l50
-14 -45 5 c-25 3 -49 10 -54 16 -12 11 -12 11 49 -7z m100 6 c-3 -5 -16 -10
-28 -9 -21 0 -21 1 -2 9 28 12 37 12 30 0z m-326 -54 c8 -9 9 -16 2 -20 -6 -4
-8 -21 -5 -39 3 -25 2 -28 -5 -12 -7 14 -10 15 -11 5 0 -12 -3 -12 -14 3 -18
23 -26 22 -26 -5 0 -13 -5 -30 -10 -38 -15 -21 -3 35 17 83 17 39 33 46 52 23z
m311 -72 c0 -2 -9 0 -20 6 -11 6 -20 13 -20 16 0 2 9 0 20 -6 11 -6 20 -13 20
-16z m-205 6 c3 -6 -1 -7 -9 -4 -18 7 -21 14 -7 14 6 0 13 -4 16 -10z m65 -51
c0 -5 -11 1 -25 13 -14 12 -25 23 -25 25 0 2 11 -4 25 -13 14 -9 25 -20 25
-25z m-130 -59 l25 -22 -33 22 c-17 12 -37 31 -43 43 l-10 22 18 -22 c10 -12
29 -31 43 -43z m-103 28 c-3 -8 -6 -5 -6 6 -1 11 2 17 5 13 3 -3 4 -12 1 -19z
m153 -4 c0 -2 -9 0 -20 6 -11 6 -20 13 -20 16 0 2 9 0 20 -6 11 -6 20 -13 20
-16z m107 -26 c-3 -8 -6 -5 -6 6 -1 11 2 17 5 13 3 -3 4 -12 1 -19z m-232 -14
c9 -15 12 -23 6 -20 -11 7 -35 46 -28 46 3 0 12 -12 22 -26z m170 6 c10 -11
16 -20 13 -20 -3 0 -13 9 -23 20 -10 11 -16 20 -13 20 3 0 13 -9 23 -20z m-21
-51 c10 -17 15 -33 12 -36 -3 -4 -6 -1 -6 5 0 6 -12 24 -26 41 -14 17 -20 29
-12 26 8 -3 22 -19 32 -36z m81 -9 c-7 -42 -29 -51 -31 -13 -1 11 -5 27 -9 34
-5 8 1 5 13 -5 22 -19 22 -19 22 9 0 16 3 26 6 22 3 -3 3 -24 -1 -47z m-261
-2 c8 -5 7 -8 -1 -8 -7 0 -17 9 -23 19 -14 27 -12 41 2 16 6 -11 16 -23 22
-27z m322 6 c-3 -9 -6 -22 -6 -30 0 -8 -4 -14 -8 -14 -5 0 -7 14 -4 30 2 17 9
30 14 30 6 0 7 -7 4 -16z m-221 -14 c3 -5 2 -10 -4 -10 -5 0 -13 5 -16 10 -3
6 -2 10 4 10 5 0 13 -4 16 -10z"/>
<path d="M4460 1973 c0 -6 7 -19 16 -28 9 -9 19 -13 22 -10 3 3 -4 15 -16 28
-12 12 -22 16 -22 10z"/>
<path d="M4692 1650 c0 -14 2 -19 5 -12 2 6 2 18 0 25 -3 6 -5 1 -5 -13z"/>
<path d="M10772 1218 c-6 -29 -27 -114 -46 -188 -19 -74 -33 -136 -31 -138 2
-3 11 -2 19 1 8 3 17 27 21 59 9 67 25 93 69 108 30 9 37 18 47 52 12 47 5 88
-16 88 -7 0 -16 -12 -18 -27 l-4 -28 -2 28 c0 15 -6 27 -12 27 -7 0 -9 12 -5
35 11 56 -9 40 -22 -17z m24 -140 c-20 -28 -22 -5 -3 35 10 23 12 24 15 7 2
-11 -4 -30 -12 -42z"/>
<path d="M10716 1182 c-3 -5 -17 -7 -31 -4 -31 5 -33 -12 -3 -32 29 -21 38
-20 38 3 0 11 5 21 12 23 9 3 9 6 1 11 -7 4 -14 3 -17 -1z"/>
<path d="M10852 1030 c-13 -52 -26 -101 -29 -108 -4 -9 1 -13 13 -10 21 4 46
108 42 173 -3 35 -6 29 -26 -55z"/>
<path d="M7930 790 c0 -5 7 -10 15 -10 8 0 15 5 15 10 0 6 -7 10 -15 10 -8 0
-15 -4 -15 -10z"/>
<path d="M6722 741 c-10 -6 -7 -12 12 -24 35 -23 46 -21 46 8 0 19 -5 25 -22
25 -13 0 -29 -4 -36 -9z"/>
<path d="M4512 698 c-24 -48 -31 -96 -16 -109 11 -9 14 -7 14 12 0 13 7 45 15
72 15 49 7 64 -13 25z"/>
<path d="M5086 644 c-50 -18 -63 -29 -87 -76 -14 -27 -19 -54 -17 -86 4 -57
21 -58 29 -2 3 22 16 51 30 66 29 31 59 49 59 35 0 -5 -9 -13 -21 -16 -46 -15
-80 -125 -43 -139 31 -12 41 -6 42 24 0 17 8 37 17 46 11 12 13 20 5 29 -7 9
-6 16 5 25 9 7 14 19 11 27 -3 8 2 25 11 39 22 34 6 45 -41 28z"/>
<path d="M8370 644 c0 -10 33 -33 48 -34 18 0 15 27 -4 34 -20 8 -44 8 -44 0z"/>
<path d="M7715 610 c-17 -33 -20 -54 -5 -45 6 3 10 2 10 -4 0 -5 -5 -13 -10
-16 -12 -7 -4 -25 11 -25 15 0 32 52 19 60 -6 4 -5 13 5 26 19 24 19 34 0 34
-8 0 -21 -13 -30 -30z"/>
<path d="M8220 599 c0 -11 5 -17 10 -14 6 3 10 13 10 21 0 8 -4 14 -10 14 -5
0 -10 -9 -10 -21z"/>
<path d="M6843 593 c-25 -25 -33 -88 -10 -81 17 6 39 55 35 81 l-3 22 -22 -22z"/>
<path d="M5782 520 c-9 -15 -10 -26 -3 -38 9 -14 11 -14 12 -2 1 8 1 21 0 28
-1 6 3 12 9 12 5 0 10 5 10 10 0 17 -14 11 -28 -10z"/>
<path d="M6371 462 c-14 -26 -14 -52 -1 -52 17 0 35 49 23 61 -8 8 -14 5 -22
-9z"/>
<path d="M5896 425 c4 -8 10 -15 15 -15 5 0 9 7 9 15 0 8 -7 15 -15 15 -9 0
-12 -6 -9 -15z"/>
<path d="M5900 360 c0 -5 5 -10 10 -10 6 0 10 5 10 10 0 6 -4 10 -10 10 -5 0
-10 -4 -10 -10z"/>
</g>
</svg>
